{"glyphs":{"0":{"ha":772,"x_min":40,"x_max":743,"o":"m 328 -17 q 113 48 186 -17 q 40 271 40 113 q 61 476 40 356 q 147 773 92 665 q 276 925 201 881 q 456 969 351 969 q 670 904 597 969 q 743 679 743 839 q 722 476 743 596 q 635 181 690 289 q 506 28 581 72 q 328 -17 431 -17 m 324 119 q 431 155 390 119 q 497 259 472 190 q 544 444 522 328 q 575 683 575 617 q 548 797 575 760 q 458 833 521 833 q 351 798 393 833 q 285 694 310 763 q 239 508 260 625 q 207 269 207 336 q 234 156 207 193 q 324 119 261 119 z "},"1":{"ha":772,"x_min":39,"x_max":674,"o":"m 63 136 l 294 136 l 401 742 l 168 742 l 186 844 q 349 882 251 851 q 524 953 446 913 l 604 953 l 461 136 l 674 136 l 649 0 l 39 0 l 63 136 z "},"2":{"ha":772,"x_min":-22,"x_max":760,"o":"m -14 47 q 47 188 -1 124 q 157 302 94 253 q 317 417 219 351 q 463 522 410 479 q 553 617 517 564 q 589 731 589 669 q 558 801 589 772 q 464 831 528 831 q 338 793 383 831 q 278 682 293 756 l 267 625 l 101 625 q 219 887 114 804 q 474 969 324 969 q 693 903 626 969 q 760 735 760 836 q 708 554 760 635 q 586 417 657 474 q 406 292 515 361 q 271 197 307 228 q 226 151 240 171 l 665 151 l 639 0 l -22 0 l -14 47 z "},"3":{"ha":772,"x_min":13,"x_max":753,"o":"m 333 -17 q 94 44 176 -17 q 13 213 13 106 q 21 290 13 251 l 189 290 q 182 231 182 250 q 219 148 182 176 q 326 119 257 119 q 467 166 411 119 q 522 304 522 213 q 368 417 522 417 l 288 417 l 311 553 l 396 553 q 524 599 469 553 q 578 731 578 646 q 544 808 578 782 q 454 833 511 833 q 335 796 382 833 q 281 696 289 758 l 278 674 l 108 674 l 114 703 q 174 844 125 783 q 297 937 222 904 q 458 969 371 969 q 674 911 594 969 q 753 746 753 853 q 557 494 753 572 l 556 489 q 656 417 619 467 q 693 293 693 368 q 645 130 693 200 q 515 22 597 60 q 333 -17 432 -17 z "},"4":{"ha":772,"x_min":-12,"x_max":715,"o":"m 407 214 l -12 214 l 10 351 q 364 969 214 613 l 550 969 q 428 728 503 856 q 279 497 353 600 q 165 350 206 393 l 429 350 l 471 588 q 601 828 536 683 l 681 828 l 596 350 l 715 350 l 692 214 l 574 214 l 535 0 l 368 0 l 407 214 z "},"5":{"ha":772,"x_min":15,"x_max":756,"o":"m 326 -17 q 98 49 181 -17 q 15 231 15 114 q 21 296 15 264 l 193 296 q 189 253 189 274 q 224 155 189 190 q 321 119 260 119 q 420 145 374 119 q 495 224 467 171 q 524 356 524 278 q 490 453 524 419 q 399 486 457 486 q 229 404 301 486 l 76 425 l 207 953 l 756 953 l 729 801 l 326 801 l 268 564 q 453 619 350 619 q 631 558 565 619 q 697 374 697 496 q 648 166 697 254 q 515 31 599 78 q 326 -17 431 -17 z "},"6":{"ha":772,"x_min":35,"x_max":736,"o":"m 343 -17 q 113 53 192 -17 q 35 282 35 122 q 51 453 35 356 q 140 758 83 644 q 276 921 197 872 q 464 969 356 969 q 669 909 601 969 q 736 746 736 849 q 729 672 736 714 l 563 672 q 567 724 567 701 q 458 833 567 833 q 348 797 390 833 q 281 697 306 761 q 236 528 256 632 q 446 611 332 611 q 639 545 575 611 q 703 364 703 479 q 654 165 703 251 q 523 31 606 78 q 343 -17 440 -17 m 335 119 q 476 185 424 119 q 528 344 528 250 q 497 442 528 407 q 400 478 465 478 q 257 415 311 478 q 203 256 203 351 q 236 156 203 193 q 335 119 269 119 z "},"7":{"ha":772,"x_min":106,"x_max":818,"o":"m 106 0 q 274 425 144 217 q 575 801 404 633 l 110 801 l 136 953 l 818 953 l 799 844 q 487 472 618 664 q 315 69 356 279 l 304 0 l 106 0 z "},"8":{"ha":772,"x_min":7,"x_max":744,"o":"m 324 -17 q 85 44 163 -17 q 7 208 7 106 q 58 378 7 306 q 206 489 108 451 q 134 561 158 517 q 110 661 110 606 q 153 814 110 743 q 274 927 196 885 q 456 969 353 969 q 671 906 597 969 q 744 742 744 843 q 700 594 744 661 q 572 489 656 526 q 692 301 692 433 q 650 142 692 214 q 526 26 608 69 q 324 -17 443 -17 m 400 554 q 524 600 475 554 q 574 728 574 646 q 542 807 574 779 q 450 835 510 835 q 326 788 374 835 q 278 660 278 740 q 309 581 278 608 q 400 554 340 554 m 324 118 q 463 167 406 118 q 519 303 519 217 q 483 390 519 360 q 376 419 447 419 q 235 369 289 419 q 182 233 182 319 q 218 149 182 179 q 324 118 254 118 z "},"9":{"ha":772,"x_min":39,"x_max":740,"o":"m 311 -17 q 106 44 174 -17 q 39 207 39 104 q 46 281 39 239 l 214 281 q 208 229 208 242 q 317 119 208 119 q 427 156 385 119 q 494 256 469 192 q 539 425 519 321 q 329 342 443 342 q 136 408 200 342 q 72 589 72 474 q 121 788 72 701 q 252 922 169 875 q 432 969 335 969 q 662 900 583 969 q 740 671 740 831 q 724 500 740 599 q 636 194 693 308 q 499 32 579 81 q 311 -17 419 -17 m 375 475 q 518 538 464 475 q 572 697 572 601 q 539 797 572 760 q 440 833 506 833 q 301 768 353 833 q 249 608 249 703 q 279 510 249 546 q 375 475 310 475 z "},"\u0000":{"ha":0,"x_min":0,"x_max":0,"o":""},"\r":{"ha":386,"x_min":0,"x_max":0,"o":""}," ":{"ha":386,"x_min":0,"x_max":0,"o":""},"A":{"ha":976,"x_min":-68,"x_max":897,"o":"m -68 0 l 469 953 l 693 953 l 897 0 l 714 0 l 672 207 l 233 207 l 119 0 l -68 0 m 643 357 l 594 606 q 568 763 585 653 q 563 788 564 779 q 561 800 563 796 l 554 800 q 536 765 551 794 q 453 607 479 656 l 317 357 l 643 357 z "},"Á":{"ha":976,"x_min":-68,"x_max":897,"o":"m 0 0 m -68 0 l 469 953 l 693 953 l 897 0 l 714 0 l 672 207 l 233 207 l 119 0 l -68 0 m 643 357 l 594 606 q 568 763 585 653 q 563 788 564 779 q 561 800 563 796 l 554 800 q 536 765 551 794 q 453 607 479 656 l 317 357 l 643 357 m 524 1022 l 668 1206 l 842 1206 l 843 1201 l 664 1022 l 524 1022 z "},"Ă":{"ha":976,"x_min":-68,"x_max":897,"o":"m 0 0 m -68 0 l 469 953 l 693 953 l 897 0 l 714 0 l 672 207 l 233 207 l 119 0 l -68 0 m 643 357 l 594 606 q 568 763 585 653 q 563 788 564 779 q 561 800 563 796 l 554 800 q 536 765 551 794 q 453 607 479 656 l 317 357 l 643 357 m 594 1025 q 440 1067 488 1025 q 393 1172 393 1108 q 396 1206 393 1194 l 507 1206 q 527 1156 507 1176 q 597 1136 547 1136 q 678 1158 646 1136 q 718 1206 710 1179 l 829 1206 q 801 1133 821 1168 q 747 1071 781 1097 q 594 1025 685 1025 z "},"Ắ":{"ha":976,"x_min":-68,"x_max":897,"o":"m 0 0 m -68 0 l 469 953 l 693 953 l 897 0 l 714 0 l 672 207 l 233 207 l 119 0 l -68 0 m 643 357 l 594 606 q 568 763 585 653 q 563 788 564 779 q 561 800 563 796 l 554 800 q 536 765 551 794 q 453 607 479 656 l 317 357 l 643 357 m 594 1025 q 440 1067 488 1025 q 393 1172 393 1108 q 396 1206 393 1194 l 507 1206 q 527 1156 507 1176 q 597 1136 547 1136 q 678 1158 646 1136 q 718 1206 710 1179 l 829 1206 q 801 1133 821 1168 q 747 1071 781 1097 q 594 1025 685 1025 m 532 1206 l 676 1389 l 850 1389 l 851 1385 l 672 1206 l 532 1206 z "},"Ặ":{"ha":976,"x_min":-68,"x_max":897,"o":"m 0 0 m -68 0 l 469 953 l 693 953 l 897 0 l 714 0 l 672 207 l 233 207 l 119 0 l -68 0 m 643 357 l 594 606 q 568 763 585 653 q 563 788 564 779 q 561 800 563 796 l 554 800 q 536 765 551 794 q 453 607 479 656 l 317 357 l 643 357 m 594 1025 q 440 1067 488 1025 q 393 1172 393 1108 q 396 1206 393 1194 l 507 1206 q 527 1156 507 1176 q 597 1136 547 1136 q 678 1158 646 1136 q 718 1206 710 1179 l 829 1206 q 801 1133 821 1168 q 747 1071 781 1097 q 594 1025 685 1025 m 300 -240 l 329 -76 l 493 -76 l 464 -240 l 300 -240 z "},"Ằ":{"ha":976,"x_min":-68,"x_max":897,"o":"m 0 0 m -68 0 l 469 953 l 693 953 l 897 0 l 714 0 l 672 207 l 233 207 l 119 0 l -68 0 m 643 357 l 594 606 q 568 763 585 653 q 563 788 564 779 q 561 800 563 796 l 554 800 q 536 765 551 794 q 453 607 479 656 l 317 357 l 643 357 m 594 1025 q 440 1067 488 1025 q 393 1172 393 1108 q 396 1206 393 1194 l 507 1206 q 527 1156 507 1176 q 597 1136 547 1136 q 678 1158 646 1136 q 718 1206 710 1179 l 829 1206 q 801 1133 821 1168 q 747 1071 781 1097 q 594 1025 685 1025 m 563 1206 l 444 1385 l 446 1389 l 608 1389 l 689 1206 l 563 1206 z "},"Ẳ":{"ha":976,"x_min":-68,"x_max":897,"o":"m 0 0 m -68 0 l 469 953 l 693 953 l 897 0 l 714 0 l 672 207 l 233 207 l 119 0 l -68 0 m 643 357 l 594 606 q 568 763 585 653 q 563 788 564 779 q 561 800 563 796 l 554 800 q 536 765 551 794 q 453 607 479 656 l 317 357 l 643 357 m 594 1025 q 440 1067 488 1025 q 393 1172 393 1108 q 396 1206 393 1194 l 507 1206 q 527 1156 507 1176 q 597 1136 547 1136 q 678 1158 646 1136 q 718 1206 710 1179 l 829 1206 q 801 1133 821 1168 q 747 1071 781 1097 q 594 1025 685 1025 m 572 1283 l 592 1283 q 628 1291 617 1283 q 639 1315 639 1299 q 628 1332 639 1328 q 596 1336 618 1336 l 515 1336 l 525 1394 q 638 1406 578 1406 q 733 1390 692 1406 q 774 1335 774 1374 q 739 1269 774 1292 q 654 1242 704 1246 l 647 1206 l 558 1206 l 572 1283 z "},"Ẵ":{"ha":976,"x_min":-68,"x_max":897,"o":"m 0 0 m -68 0 l 469 953 l 693 953 l 897 0 l 714 0 l 672 207 l 233 207 l 119 0 l -68 0 m 643 357 l 594 606 q 568 763 585 653 q 563 788 564 779 q 561 800 563 796 l 554 800 q 536 765 551 794 q 453 607 479 656 l 317 357 l 643 357 m 594 1025 q 440 1067 488 1025 q 393 1172 393 1108 q 396 1206 393 1194 l 507 1206 q 527 1156 507 1176 q 597 1136 547 1136 q 678 1158 646 1136 q 718 1206 710 1179 l 829 1206 q 801 1133 821 1168 q 747 1071 781 1097 q 594 1025 685 1025 m 389 1267 q 439 1382 400 1336 q 540 1428 478 1428 q 639 1403 581 1428 q 729 1379 694 1379 q 783 1428 768 1379 l 878 1428 q 826 1312 865 1357 q 724 1267 788 1267 q 676 1273 699 1267 q 626 1292 654 1279 q 578 1309 599 1303 q 536 1315 558 1315 q 482 1267 497 1315 l 389 1267 z "},"Ǎ":{"ha":976,"x_min":-68,"x_max":897,"o":"m 0 0 m -68 0 l 469 953 l 693 953 l 897 0 l 714 0 l 672 207 l 233 207 l 119 0 l -68 0 m 643 357 l 594 606 q 568 763 585 653 q 563 788 564 779 q 561 800 563 796 l 554 800 q 536 765 551 794 q 453 607 479 656 l 317 357 l 643 357 m 519 1018 l 406 1206 l 543 1206 l 606 1106 l 696 1206 l 849 1206 l 669 1018 l 519 1018 z "},"Â":{"ha":976,"x_min":-68,"x_max":897,"o":"m 0 0 m -68 0 l 469 953 l 693 953 l 897 0 l 714 0 l 672 207 l 233 207 l 119 0 l -68 0 m 643 357 l 594 606 q 568 763 585 653 q 563 788 564 779 q 561 800 563 796 l 554 800 q 536 765 551 794 q 453 607 479 656 l 317 357 l 643 357 m 364 1018 l 543 1206 l 693 1206 l 807 1018 l 669 1018 l 608 1118 l 518 1018 l 364 1018 z "},"Ấ":{"ha":976,"x_min":-68,"x_max":1061,"o":"m 0 0 m -68 0 l 469 953 l 693 953 l 897 0 l 714 0 l 672 207 l 233 207 l 119 0 l -68 0 m 643 357 l 594 606 q 568 763 585 653 q 563 788 564 779 q 561 800 563 796 l 554 800 q 536 765 551 794 q 453 607 479 656 l 317 357 l 643 357 m 364 1018 l 543 1206 l 693 1206 l 807 1018 l 669 1018 l 608 1118 l 518 1018 l 364 1018 m 742 1154 l 886 1338 l 1060 1338 l 1061 1333 l 882 1154 l 742 1154 z "},"Ậ":{"ha":976,"x_min":-68,"x_max":897,"o":"m 0 0 m -68 0 l 469 953 l 693 953 l 897 0 l 714 0 l 672 207 l 233 207 l 119 0 l -68 0 m 643 357 l 594 606 q 568 763 585 653 q 563 788 564 779 q 561 800 563 796 l 554 800 q 536 765 551 794 q 453 607 479 656 l 317 357 l 643 357 m 364 1018 l 543 1206 l 693 1206 l 807 1018 l 669 1018 l 608 1118 l 518 1018 l 364 1018 m 300 -240 l 329 -76 l 493 -76 l 464 -240 l 300 -240 z "},"Ầ":{"ha":976,"x_min":-68,"x_max":931,"o":"m 0 0 m -68 0 l 469 953 l 693 953 l 897 0 l 714 0 l 672 207 l 233 207 l 119 0 l -68 0 m 643 357 l 594 606 q 568 763 585 653 q 563 788 564 779 q 561 800 563 796 l 554 800 q 536 765 551 794 q 453 607 479 656 l 317 357 l 643 357 m 364 1018 l 543 1206 l 693 1206 l 807 1018 l 669 1018 l 608 1118 l 518 1018 l 364 1018 m 804 1154 l 686 1333 l 688 1338 l 850 1338 l 931 1154 l 804 1154 z "},"Ẩ":{"ha":976,"x_min":-68,"x_max":983,"o":"m 0 0 m -68 0 l 469 953 l 693 953 l 897 0 l 714 0 l 672 207 l 233 207 l 119 0 l -68 0 m 643 357 l 594 606 q 568 763 585 653 q 563 788 564 779 q 561 800 563 796 l 554 800 q 536 765 551 794 q 453 607 479 656 l 317 357 l 643 357 m 364 1018 l 543 1206 l 693 1206 l 807 1018 l 669 1018 l 608 1118 l 518 1018 l 364 1018 m 782 1232 l 801 1232 q 838 1240 826 1232 q 849 1264 849 1247 q 838 1281 849 1276 q 806 1285 828 1285 l 725 1285 l 735 1343 q 847 1354 788 1354 q 942 1338 901 1354 q 983 1283 983 1322 q 949 1217 983 1240 q 864 1190 914 1194 l 857 1154 l 768 1154 l 782 1232 z "},"Ẫ":{"ha":976,"x_min":-68,"x_max":897,"o":"m 0 0 m -68 0 l 469 953 l 693 953 l 897 0 l 714 0 l 672 207 l 233 207 l 119 0 l -68 0 m 643 357 l 594 606 q 568 763 585 653 q 563 788 564 779 q 561 800 563 796 l 554 800 q 536 765 551 794 q 453 607 479 656 l 317 357 l 643 357 m 364 1018 l 543 1206 l 693 1206 l 807 1018 l 669 1018 l 608 1118 l 518 1018 l 364 1018 m 401 1267 q 451 1382 413 1336 q 553 1428 490 1428 q 651 1403 593 1428 q 742 1379 707 1379 q 796 1428 781 1379 l 890 1428 q 839 1312 878 1357 q 736 1267 800 1267 q 689 1273 711 1267 q 639 1292 667 1279 q 591 1309 611 1303 q 549 1315 571 1315 q 494 1267 510 1315 l 401 1267 z "},"Ȁ":{"ha":976,"x_min":-68,"x_max":897,"o":"m 0 0 m -68 0 l 469 953 l 693 953 l 897 0 l 714 0 l 672 207 l 233 207 l 119 0 l -68 0 m 643 357 l 594 606 q 568 763 585 653 q 563 788 564 779 q 561 800 563 796 l 554 800 q 536 765 551 794 q 453 607 479 656 l 317 357 l 643 357 m 442 1022 l 335 1201 l 338 1206 l 504 1206 l 574 1022 l 442 1022 m 667 1022 l 560 1201 l 563 1206 l 731 1206 l 799 1022 l 667 1022 z "},"Ä":{"ha":976,"x_min":-68,"x_max":897,"o":"m 0 0 m -68 0 l 469 953 l 693 953 l 897 0 l 714 0 l 672 207 l 233 207 l 119 0 l -68 0 m 643 357 l 594 606 q 568 763 585 653 q 563 788 564 779 q 561 800 563 796 l 554 800 q 536 765 551 794 q 453 607 479 656 l 317 357 l 643 357 m 386 1053 l 413 1206 l 561 1206 l 535 1053 l 386 1053 m 665 1053 l 693 1206 l 843 1206 l 815 1053 l 665 1053 z "},"Ạ":{"ha":976,"x_min":-68,"x_max":897,"o":"m 0 0 m -68 0 l 469 953 l 693 953 l 897 0 l 714 0 l 672 207 l 233 207 l 119 0 l -68 0 m 643 357 l 594 606 q 568 763 585 653 q 563 788 564 779 q 561 800 563 796 l 554 800 q 536 765 551 794 q 453 607 479 656 l 317 357 l 643 357 m 300 -240 l 329 -76 l 493 -76 l 464 -240 l 300 -240 z "},"À":{"ha":976,"x_min":-68,"x_max":897,"o":"m 0 0 m -68 0 l 469 953 l 693 953 l 897 0 l 714 0 l 672 207 l 233 207 l 119 0 l -68 0 m 643 357 l 594 606 q 568 763 585 653 q 563 788 564 779 q 561 800 563 796 l 554 800 q 536 765 551 794 q 453 607 479 656 l 317 357 l 643 357 m 532 1022 l 414 1201 l 415 1206 l 578 1206 l 658 1022 l 532 1022 z "},"Ả":{"ha":976,"x_min":-68,"x_max":897,"o":"m 0 0 m -68 0 l 469 953 l 693 953 l 897 0 l 714 0 l 672 207 l 233 207 l 119 0 l -68 0 m 643 357 l 594 606 q 568 763 585 653 q 563 788 564 779 q 561 800 563 796 l 554 800 q 536 765 551 794 q 453 607 479 656 l 317 357 l 643 357 m 565 1100 l 585 1100 q 621 1108 610 1100 q 632 1132 632 1115 q 622 1149 632 1144 q 589 1153 611 1153 l 508 1153 l 518 1211 q 631 1222 571 1222 q 726 1206 685 1222 q 767 1151 767 1190 q 732 1085 767 1108 q 647 1058 697 1063 l 640 1022 l 551 1022 l 565 1100 z "},"Ȃ":{"ha":976,"x_min":-68,"x_max":897,"o":"m 0 0 m -68 0 l 469 953 l 693 953 l 897 0 l 714 0 l 672 207 l 233 207 l 119 0 l -68 0 m 643 357 l 594 606 q 568 763 585 653 q 563 788 564 779 q 561 800 563 796 l 554 800 q 536 765 551 794 q 453 607 479 656 l 317 357 l 643 357 m 379 1025 q 449 1153 392 1101 q 626 1206 506 1206 q 765 1160 715 1206 q 814 1050 814 1114 q 811 1025 814 1042 l 701 1025 q 680 1073 703 1051 q 607 1094 657 1094 q 528 1074 557 1094 q 490 1025 500 1053 l 379 1025 z "},"Ā":{"ha":976,"x_min":-68,"x_max":897,"o":"m 0 0 m -68 0 l 469 953 l 693 953 l 897 0 l 714 0 l 672 207 l 233 207 l 119 0 l -68 0 m 643 357 l 594 606 q 568 763 585 653 q 563 788 564 779 q 561 800 563 796 l 554 800 q 536 765 551 794 q 453 607 479 656 l 317 357 l 643 357 m 390 1058 l 411 1172 l 835 1172 l 814 1058 l 390 1058 z "},"Ą":{"ha":976,"x_min":-68,"x_max":897,"o":"m 750 -253 q 662 -228 697 -253 q 626 -147 626 -203 q 714 0 626 -67 l 672 207 l 233 207 l 119 0 l -68 0 l 469 953 l 693 953 l 897 0 l 833 0 q 788 -49 807 -21 q 769 -104 769 -76 q 832 -158 769 -158 l 869 -158 l 856 -233 q 750 -253 801 -253 m 643 357 l 594 606 q 568 763 585 653 q 563 788 564 779 q 561 800 563 796 l 554 800 q 536 765 551 794 q 453 607 479 656 l 317 357 l 643 357 z "},"Å":{"ha":976,"x_min":-68,"x_max":897,"o":"m 0 0 m -68 0 l 469 953 l 693 953 l 897 0 l 714 0 l 672 207 l 233 207 l 119 0 l -68 0 m 643 357 l 594 606 q 568 763 585 653 q 563 788 564 779 q 561 800 563 796 l 554 800 q 536 765 551 794 q 453 607 479 656 l 317 357 l 643 357 m 590 978 q 501 1010 535 978 q 468 1093 468 1043 q 512 1208 468 1161 q 625 1254 556 1254 q 715 1222 682 1254 q 747 1138 747 1189 q 703 1024 747 1069 q 590 978 660 978 m 597 1051 q 651 1074 629 1051 q 674 1128 674 1096 q 658 1166 674 1151 q 618 1181 643 1181 q 564 1158 585 1181 q 543 1103 543 1135 q 558 1066 543 1081 q 597 1051 572 1051 z "},"Ǻ":{"ha":976,"x_min":-68,"x_max":897,"o":"m 549 1196 l 693 1379 l 868 1379 l 869 1375 l 690 1196 l 549 1196 m 465 946 q 451 1000 451 968 q 495 1115 451 1068 q 610 1161 539 1161 q 699 1128 665 1161 q 732 1044 732 1096 q 696 944 732 985 l 897 0 l 714 0 l 672 207 l 233 207 l 119 0 l -68 0 l 465 946 m 581 960 q 635 982 613 960 q 658 1035 658 1004 q 642 1074 658 1058 q 601 1089 626 1089 q 547 1066 568 1089 q 526 1010 526 1043 q 541 974 526 988 q 581 960 556 960 m 643 357 l 594 606 q 568 763 585 653 q 563 788 564 779 q 561 800 563 796 l 554 800 q 536 765 551 794 q 453 607 479 656 l 317 357 l 643 357 z "},"Ã":{"ha":976,"x_min":-68,"x_max":897,"o":"m 0 0 m -68 0 l 469 953 l 693 953 l 897 0 l 714 0 l 672 207 l 233 207 l 119 0 l -68 0 m 643 357 l 594 606 q 568 763 585 653 q 563 788 564 779 q 561 800 563 796 l 554 800 q 536 765 551 794 q 453 607 479 656 l 317 357 l 643 357 m 369 1044 q 419 1160 381 1114 q 521 1206 458 1206 q 619 1181 561 1206 q 710 1157 675 1157 q 764 1206 749 1157 l 858 1206 q 807 1090 846 1135 q 704 1044 768 1044 q 657 1051 679 1044 q 607 1069 635 1057 q 559 1087 579 1081 q 517 1093 539 1093 q 463 1044 478 1093 l 369 1044 z "},"Æ":{"ha":1389,"x_min":-86,"x_max":1390,"o":"m -86 0 l 549 953 l 1390 953 l 1364 801 l 799 801 l 821 563 l 1261 563 l 1235 411 l 836 411 l 861 151 l 1258 151 l 1231 0 l 706 0 l 686 207 l 240 207 l 106 0 l -86 0 m 338 357 l 674 357 l 633 801 l 626 801 l 338 357 z "},"Ǽ":{"ha":1389,"x_min":-86,"x_max":1390,"o":"m 0 0 m -86 0 l 549 953 l 1390 953 l 1364 801 l 799 801 l 821 563 l 1261 563 l 1235 411 l 836 411 l 861 151 l 1258 151 l 1231 0 l 706 0 l 686 207 l 240 207 l 106 0 l -86 0 m 338 357 l 674 357 l 633 801 l 626 801 l 338 357 m 743 1022 l 888 1206 l 1061 1206 l 1063 1201 l 883 1022 l 743 1022 z "},"B":{"ha":976,"x_min":17,"x_max":929,"o":"m 185 953 l 631 953 q 850 898 771 953 q 929 736 929 843 q 872 584 929 650 q 731 500 815 518 l 731 494 q 836 420 796 474 q 876 289 876 367 q 829 128 876 193 q 704 31 782 63 q 533 0 626 0 l 17 0 l 185 953 m 585 563 q 701 602 660 563 q 743 700 743 642 q 712 776 743 751 q 629 801 681 801 l 336 801 l 294 563 l 585 563 m 528 151 q 649 188 601 151 q 696 299 696 225 q 663 384 696 354 q 563 414 629 414 l 268 414 l 222 151 l 528 151 z "},"C":{"ha":1003,"x_min":49,"x_max":974,"o":"m 451 -17 q 49 353 49 -17 q 101 644 49 511 q 254 861 153 778 q 406 942 319 914 q 592 969 492 969 q 869 895 765 969 q 974 679 974 821 q 967 601 974 647 l 785 601 q 789 650 789 626 q 736 776 789 733 q 590 819 683 819 q 365 737 451 819 q 249 508 278 654 q 231 360 231 419 q 285 189 231 244 q 453 133 340 133 q 649 190 569 133 q 747 349 728 246 l 922 349 q 763 76 892 169 q 451 -17 633 -17 z "},"Ć":{"ha":1003,"x_min":49,"x_max":974,"o":"m 49 0 m 451 -17 q 49 353 49 -17 q 101 644 49 511 q 254 861 153 778 q 406 942 319 914 q 592 969 492 969 q 869 895 765 969 q 974 679 974 821 q 967 601 974 647 l 785 601 q 789 650 789 626 q 736 776 789 733 q 590 819 683 819 q 365 737 451 819 q 249 508 278 654 q 231 360 231 419 q 285 189 231 244 q 453 133 340 133 q 649 190 569 133 q 747 349 728 246 l 922 349 q 763 76 892 169 q 451 -17 633 -17 m 536 1022 l 681 1206 l 854 1206 l 856 1201 l 676 1022 l 536 1022 z "},"Č":{"ha":1003,"x_min":49,"x_max":974,"o":"m 49 0 m 451 -17 q 49 353 49 -17 q 101 644 49 511 q 254 861 153 778 q 406 942 319 914 q 592 969 492 969 q 869 895 765 969 q 974 679 974 821 q 967 601 974 647 l 785 601 q 789 650 789 626 q 736 776 789 733 q 590 819 683 819 q 365 737 451 819 q 249 508 278 654 q 231 360 231 419 q 285 189 231 244 q 453 133 340 133 q 649 190 569 133 q 747 349 728 246 l 922 349 q 763 76 892 169 q 451 -17 633 -17 m 532 1018 l 418 1206 l 556 1206 l 618 1106 l 708 1206 l 861 1206 l 682 1018 l 532 1018 z "},"Ç":{"ha":1003,"x_min":49,"x_max":974,"o":"m 785 601 q 789 650 789 626 q 736 776 789 733 q 590 819 683 819 q 365 737 451 819 q 249 508 278 654 q 231 360 231 419 q 285 189 231 244 q 453 133 340 133 q 649 190 569 133 q 747 349 728 246 l 922 349 q 773 85 892 178 q 485 -15 654 -8 l 474 -47 q 559 -72 526 -50 q 592 -135 592 -93 q 531 -226 592 -200 q 394 -253 471 -253 q 253 -242 317 -253 l 265 -174 l 393 -174 q 442 -165 425 -174 q 460 -133 460 -156 q 448 -113 460 -119 q 408 -107 436 -107 l 346 -107 l 378 -14 q 49 353 49 18 q 101 644 49 511 q 254 861 153 778 q 406 942 319 914 q 592 969 492 969 q 869 895 765 969 q 974 679 974 821 q 967 601 974 647 l 785 601 z "},"Ĉ":{"ha":1003,"x_min":49,"x_max":974,"o":"m 49 0 m 451 -17 q 49 353 49 -17 q 101 644 49 511 q 254 861 153 778 q 406 942 319 914 q 592 969 492 969 q 869 895 765 969 q 974 679 974 821 q 967 601 974 647 l 785 601 q 789 650 789 626 q 736 776 789 733 q 590 819 683 819 q 365 737 451 819 q 249 508 278 654 q 231 360 231 419 q 285 189 231 244 q 453 133 340 133 q 649 190 569 133 q 747 349 728 246 l 922 349 q 763 76 892 169 q 451 -17 633 -17 m 376 1018 l 556 1206 l 706 1206 l 819 1018 l 682 1018 l 621 1118 l 531 1018 l 376 1018 z "},"Ċ":{"ha":1003,"x_min":49,"x_max":974,"o":"m 49 0 m 451 -17 q 49 353 49 -17 q 101 644 49 511 q 254 861 153 778 q 406 942 319 914 q 592 969 492 969 q 869 895 765 969 q 974 679 974 821 q 967 601 974 647 l 785 601 q 789 650 789 626 q 736 776 789 733 q 590 819 683 819 q 365 737 451 819 q 249 508 278 654 q 231 360 231 419 q 285 189 231 244 q 453 133 340 133 q 649 190 569 133 q 747 349 728 246 l 922 349 q 763 76 892 169 q 451 -17 633 -17 m 528 1043 l 557 1207 l 721 1207 l 692 1043 l 528 1043 z "},"D":{"ha":1003,"x_min":17,"x_max":957,"o":"m 185 953 l 546 953 q 851 860 744 953 q 957 576 957 767 q 918 337 957 447 q 804 147 879 226 q 638 38 735 76 q 425 0 542 0 l 17 0 l 185 953 m 415 151 q 644 230 553 151 q 760 451 735 308 q 774 572 774 529 q 713 744 774 686 q 538 801 653 801 l 335 801 l 221 151 l 415 151 z "},"Ǳ":{"ha":1851,"x_min":17,"x_max":1893,"o":"m 17 0 m 185 953 l 546 953 q 851 860 744 953 q 957 576 957 767 q 918 337 957 447 q 804 147 879 226 q 638 38 735 76 q 425 0 542 0 l 17 0 l 185 953 m 415 151 q 644 230 553 151 q 760 451 735 308 q 774 572 774 529 q 713 744 774 686 q 538 801 653 801 l 335 801 l 221 151 l 415 151 m 950 0 l 965 85 l 1590 801 l 1126 801 l 1153 953 l 1893 953 l 1878 867 l 1253 151 l 1765 151 l 1738 0 l 950 0 z "},"Ǆ":{"ha":1851,"x_min":17,"x_max":1893,"o":"m 17 0 m 185 953 l 546 953 q 851 860 744 953 q 957 576 957 767 q 918 337 957 447 q 804 147 879 226 q 638 38 735 76 q 425 0 542 0 l 17 0 l 185 953 m 415 151 q 644 230 553 151 q 760 451 735 308 q 774 572 774 529 q 713 744 774 686 q 538 801 653 801 l 335 801 l 221 151 l 415 151 m 950 0 l 965 85 l 1590 801 l 1126 801 l 1153 953 l 1893 953 l 1878 867 l 1253 151 l 1765 151 l 1738 0 l 950 0 m 1444 1018 l 1331 1206 l 1468 1206 l 1531 1106 l 1621 1206 l 1774 1206 l 1594 1018 l 1444 1018 z "},"Ð":{"ha":1003,"x_min":3,"x_max":957,"o":"m 546 953 q 851 860 744 953 q 957 576 957 767 q 918 337 957 447 q 804 147 879 226 q 638 38 735 76 q 425 0 542 0 l 17 0 l 94 439 l 3 439 l 21 547 l 113 547 l 185 953 l 546 953 m 760 451 q 774 572 774 529 q 713 744 774 686 q 538 801 653 801 l 335 801 l 290 547 l 500 547 l 481 439 l 271 439 l 221 151 l 415 151 q 644 230 553 151 q 760 451 735 308 z "},"Ď":{"ha":1003,"x_min":17,"x_max":957,"o":"m 17 0 m 185 953 l 546 953 q 851 860 744 953 q 957 576 957 767 q 918 337 957 447 q 804 147 879 226 q 638 38 735 76 q 425 0 542 0 l 17 0 l 185 953 m 415 151 q 644 230 553 151 q 760 451 735 308 q 774 572 774 529 q 713 744 774 686 q 538 801 653 801 l 335 801 l 221 151 l 415 151 m 482 1018 l 368 1206 l 506 1206 l 568 1106 l 658 1206 l 811 1206 l 632 1018 l 482 1018 z "},"Đ":{"ha":1003,"x_min":3,"x_max":957,"o":"m 3 0 m 546 953 q 851 860 744 953 q 957 576 957 767 q 918 337 957 447 q 804 147 879 226 q 638 38 735 76 q 425 0 542 0 l 17 0 l 94 439 l 3 439 l 21 547 l 113 547 l 185 953 l 546 953 m 760 451 q 774 572 774 529 q 713 744 774 686 q 538 801 653 801 l 335 801 l 290 547 l 500 547 l 481 439 l 271 439 l 221 151 l 415 151 q 644 230 553 151 q 760 451 735 308 z "},"Ḍ":{"ha":1003,"x_min":17,"x_max":957,"o":"m 17 0 m 185 953 l 546 953 q 851 860 744 953 q 957 576 957 767 q 918 337 957 447 q 804 147 879 226 q 638 38 735 76 q 425 0 542 0 l 17 0 l 185 953 m 415 151 q 644 230 553 151 q 760 451 735 308 q 774 572 774 529 q 713 744 774 686 q 538 801 653 801 l 335 801 l 221 151 l 415 151 m 313 -240 l 342 -76 l 506 -76 l 476 -240 l 313 -240 z "},"ǲ":{"ha":1697,"x_min":17,"x_max":1711,"o":"m 17 0 m 185 953 l 546 953 q 851 860 744 953 q 957 576 957 767 q 918 337 957 447 q 804 147 879 226 q 638 38 735 76 q 425 0 542 0 l 17 0 l 185 953 m 415 151 q 644 230 553 151 q 760 451 735 308 q 774 572 774 529 q 713 744 774 686 q 538 801 653 801 l 335 801 l 221 151 l 415 151 m 968 0 l 982 78 l 1432 594 l 1094 594 l 1119 731 l 1711 731 l 1697 654 l 1244 136 l 1622 136 l 1599 0 l 968 0 z "},"ǅ":{"ha":1697,"x_min":17,"x_max":1711,"o":"m 17 0 m 185 953 l 546 953 q 851 860 744 953 q 957 576 957 767 q 918 337 957 447 q 804 147 879 226 q 638 38 735 76 q 425 0 542 0 l 17 0 l 185 953 m 415 151 q 644 230 553 151 q 760 451 735 308 q 774 572 774 529 q 713 744 774 686 q 538 801 653 801 l 335 801 l 221 151 l 415 151 m 968 0 l 982 78 l 1432 594 l 1094 594 l 1119 731 l 1711 731 l 1697 654 l 1244 136 l 1622 136 l 1599 0 l 968 0 m 1354 817 l 1240 1004 l 1378 1004 l 1440 904 l 1531 1004 l 1683 1004 l 1504 817 l 1354 817 z "},"E":{"ha":926,"x_min":17,"x_max":928,"o":"m 17 0 l 185 953 l 928 953 l 901 801 l 335 801 l 293 563 l 799 563 l 772 411 l 267 411 l 221 151 l 796 151 l 768 0 l 17 0 z "},"É":{"ha":926,"x_min":17,"x_max":928,"o":"m 17 0 m 17 0 l 185 953 l 928 953 l 901 801 l 335 801 l 293 563 l 799 563 l 772 411 l 267 411 l 221 151 l 796 151 l 768 0 l 17 0 m 503 1022 l 647 1206 l 821 1206 l 822 1201 l 643 1022 l 503 1022 z "},"Ĕ":{"ha":926,"x_min":17,"x_max":928,"o":"m 17 0 m 17 0 l 185 953 l 928 953 l 901 801 l 335 801 l 293 563 l 799 563 l 772 411 l 267 411 l 221 151 l 796 151 l 768 0 l 17 0 m 574 1025 q 419 1067 467 1025 q 372 1172 372 1108 q 375 1206 372 1194 l 486 1206 q 506 1156 486 1176 q 576 1136 526 1136 q 657 1158 625 1136 q 697 1206 689 1179 l 808 1206 q 780 1133 800 1168 q 726 1071 760 1097 q 574 1025 664 1025 z "},"Ě":{"ha":926,"x_min":17,"x_max":928,"o":"m 17 0 m 17 0 l 185 953 l 928 953 l 901 801 l 335 801 l 293 563 l 799 563 l 772 411 l 267 411 l 221 151 l 796 151 l 768 0 l 17 0 m 499 1018 l 385 1206 l 522 1206 l 585 1106 l 675 1206 l 828 1206 l 649 1018 l 499 1018 z "},"Ê":{"ha":926,"x_min":17,"x_max":928,"o":"m 17 0 m 17 0 l 185 953 l 928 953 l 901 801 l 335 801 l 293 563 l 799 563 l 772 411 l 267 411 l 221 151 l 796 151 l 768 0 l 17 0 m 343 1018 l 522 1206 l 672 1206 l 786 1018 l 649 1018 l 588 1118 l 497 1018 l 343 1018 z "},"Ế":{"ha":926,"x_min":17,"x_max":1040,"o":"m 17 0 m 17 0 l 185 953 l 928 953 l 901 801 l 335 801 l 293 563 l 799 563 l 772 411 l 267 411 l 221 151 l 796 151 l 768 0 l 17 0 m 343 1018 l 522 1206 l 672 1206 l 786 1018 l 649 1018 l 588 1118 l 497 1018 l 343 1018 m 721 1154 l 865 1338 l 1039 1338 l 1040 1333 l 861 1154 l 721 1154 z "},"Ệ":{"ha":926,"x_min":17,"x_max":928,"o":"m 17 0 m 17 0 l 185 953 l 928 953 l 901 801 l 335 801 l 293 563 l 799 563 l 772 411 l 267 411 l 221 151 l 796 151 l 768 0 l 17 0 m 343 1018 l 522 1206 l 672 1206 l 786 1018 l 649 1018 l 588 1118 l 497 1018 l 343 1018 m 275 -240 l 304 -76 l 468 -76 l 439 -240 l 275 -240 z "},"Ề":{"ha":926,"x_min":17,"x_max":928,"o":"m 17 0 m 17 0 l 185 953 l 928 953 l 901 801 l 335 801 l 293 563 l 799 563 l 772 411 l 267 411 l 221 151 l 796 151 l 768 0 l 17 0 m 343 1018 l 522 1206 l 672 1206 l 786 1018 l 649 1018 l 588 1118 l 497 1018 l 343 1018 m 783 1154 l 665 1333 l 667 1338 l 829 1338 l 910 1154 l 783 1154 z "},"Ể":{"ha":926,"x_min":17,"x_max":963,"o":"m 17 0 m 17 0 l 185 953 l 928 953 l 901 801 l 335 801 l 293 563 l 799 563 l 772 411 l 267 411 l 221 151 l 796 151 l 768 0 l 17 0 m 343 1018 l 522 1206 l 672 1206 l 786 1018 l 649 1018 l 588 1118 l 497 1018 l 343 1018 m 761 1232 l 781 1232 q 817 1240 806 1232 q 828 1264 828 1247 q 817 1281 828 1276 q 785 1285 807 1285 l 704 1285 l 714 1343 q 826 1354 767 1354 q 922 1338 881 1354 q 963 1283 963 1322 q 928 1217 963 1240 q 843 1190 893 1194 l 836 1154 l 747 1154 l 761 1232 z "},"Ễ":{"ha":926,"x_min":17,"x_max":928,"o":"m 17 0 m 17 0 l 185 953 l 928 953 l 901 801 l 335 801 l 293 563 l 799 563 l 772 411 l 267 411 l 221 151 l 796 151 l 768 0 l 17 0 m 343 1018 l 522 1206 l 672 1206 l 786 1018 l 649 1018 l 588 1118 l 497 1018 l 343 1018 m 381 1267 q 431 1382 392 1336 q 532 1428 469 1428 q 631 1403 572 1428 q 721 1379 686 1379 q 775 1428 760 1379 l 869 1428 q 818 1312 857 1357 q 715 1267 779 1267 q 668 1273 690 1267 q 618 1292 646 1279 q 570 1309 590 1303 q 528 1315 550 1315 q 474 1267 489 1315 l 381 1267 z "},"Ȅ":{"ha":926,"x_min":17,"x_max":928,"o":"m 17 0 m 17 0 l 185 953 l 928 953 l 901 801 l 335 801 l 293 563 l 799 563 l 772 411 l 267 411 l 221 151 l 796 151 l 768 0 l 17 0 m 421 1022 l 314 1201 l 317 1206 l 483 1206 l 553 1022 l 421 1022 m 646 1022 l 539 1201 l 542 1206 l 710 1206 l 778 1022 l 646 1022 z "},"Ë":{"ha":926,"x_min":17,"x_max":928,"o":"m 17 0 m 17 0 l 185 953 l 928 953 l 901 801 l 335 801 l 293 563 l 799 563 l 772 411 l 267 411 l 221 151 l 796 151 l 768 0 l 17 0 m 365 1053 l 392 1206 l 540 1206 l 514 1053 l 365 1053 m 644 1053 l 672 1206 l 822 1206 l 794 1053 l 644 1053 z "},"Ė":{"ha":926,"x_min":17,"x_max":928,"o":"m 17 0 m 17 0 l 185 953 l 928 953 l 901 801 l 335 801 l 293 563 l 799 563 l 772 411 l 267 411 l 221 151 l 796 151 l 768 0 l 17 0 m 494 1043 l 524 1207 l 688 1207 l 658 1043 l 494 1043 z "},"Ẹ":{"ha":926,"x_min":17,"x_max":928,"o":"m 17 0 m 17 0 l 185 953 l 928 953 l 901 801 l 335 801 l 293 563 l 799 563 l 772 411 l 267 411 l 221 151 l 796 151 l 768 0 l 17 0 m 275 -240 l 304 -76 l 468 -76 l 439 -240 l 275 -240 z "},"È":{"ha":926,"x_min":17,"x_max":928,"o":"m 17 0 m 17 0 l 185 953 l 928 953 l 901 801 l 335 801 l 293 563 l 799 563 l 772 411 l 267 411 l 221 151 l 796 151 l 768 0 l 17 0 m 511 1022 l 393 1201 l 394 1206 l 557 1206 l 638 1022 l 511 1022 z "},"Ẻ":{"ha":926,"x_min":17,"x_max":928,"o":"m 17 0 m 17 0 l 185 953 l 928 953 l 901 801 l 335 801 l 293 563 l 799 563 l 772 411 l 267 411 l 221 151 l 796 151 l 768 0 l 17 0 m 544 1100 l 564 1100 q 600 1108 589 1100 q 611 1132 611 1115 q 601 1149 611 1144 q 568 1153 590 1153 l 488 1153 l 497 1211 q 610 1222 550 1222 q 705 1206 664 1222 q 746 1151 746 1190 q 711 1085 746 1108 q 626 1058 676 1063 l 619 1022 l 531 1022 l 544 1100 z "},"Ȇ":{"ha":926,"x_min":17,"x_max":928,"o":"m 17 0 m 17 0 l 185 953 l 928 953 l 901 801 l 335 801 l 293 563 l 799 563 l 772 411 l 267 411 l 221 151 l 796 151 l 768 0 l 17 0 m 358 1025 q 428 1153 371 1101 q 606 1206 485 1206 q 744 1160 694 1206 q 793 1050 793 1114 q 790 1025 793 1042 l 681 1025 q 659 1073 682 1051 q 586 1094 636 1094 q 508 1074 536 1094 q 469 1025 479 1053 l 358 1025 z "},"Ē":{"ha":926,"x_min":17,"x_max":928,"o":"m 17 0 m 17 0 l 185 953 l 928 953 l 901 801 l 335 801 l 293 563 l 799 563 l 772 411 l 267 411 l 221 151 l 796 151 l 768 0 l 17 0 m 369 1058 l 390 1172 l 814 1172 l 793 1058 l 369 1058 z "},"Ę":{"ha":926,"x_min":17,"x_max":928,"o":"m 629 -253 q 540 -229 578 -253 q 503 -156 503 -206 q 619 0 503 -60 l 17 0 l 185 953 l 928 953 l 901 801 l 335 801 l 293 563 l 799 563 l 772 411 l 267 411 l 221 151 l 796 151 l 768 0 q 682 -50 719 -18 q 644 -114 644 -82 q 660 -146 644 -133 q 704 -158 676 -158 l 740 -158 l 728 -233 q 629 -253 672 -253 z "},"Ẽ":{"ha":926,"x_min":17,"x_max":928,"o":"m 17 0 m 17 0 l 185 953 l 928 953 l 901 801 l 335 801 l 293 563 l 799 563 l 772 411 l 267 411 l 221 151 l 796 151 l 768 0 l 17 0 m 349 1044 q 399 1160 360 1114 q 500 1206 438 1206 q 599 1181 540 1206 q 689 1157 654 1157 q 743 1206 728 1157 l 838 1206 q 786 1090 825 1135 q 683 1044 747 1044 q 636 1051 658 1044 q 586 1069 614 1057 q 538 1087 558 1081 q 496 1093 518 1093 q 442 1044 457 1093 l 349 1044 z "},"F":{"ha":849,"x_min":17,"x_max":869,"o":"m 17 0 l 185 953 l 869 953 l 843 801 l 335 801 l 289 543 l 746 543 l 719 392 l 264 392 l 194 0 l 17 0 z "},"G":{"ha":1081,"x_min":49,"x_max":1025,"o":"m 836 628 q 839 660 839 639 q 778 778 839 736 q 622 819 718 819 q 374 739 469 819 q 249 510 278 658 q 232 361 232 421 q 290 189 232 244 q 463 133 347 133 q 623 163 550 133 q 741 244 696 192 q 794 361 786 296 l 794 363 l 489 363 l 515 510 l 999 510 l 908 0 l 783 0 l 783 110 q 631 15 711 46 q 449 -17 551 -17 q 151 76 254 -17 q 49 356 49 168 q 94 623 49 500 q 226 828 139 746 q 397 933 299 897 q 617 969 496 969 q 911 898 797 969 q 1025 690 1025 826 q 1019 628 1025 657 l 836 628 z "},"Ǵ":{"ha":1081,"x_min":49,"x_max":1025,"o":"m 49 0 m 836 628 q 839 660 839 639 q 778 778 839 736 q 622 819 718 819 q 374 739 469 819 q 249 510 278 658 q 232 361 232 421 q 290 189 232 244 q 463 133 347 133 q 623 163 550 133 q 741 244 696 192 q 794 361 786 296 l 794 363 l 489 363 l 515 510 l 999 510 l 908 0 l 783 0 l 783 110 q 631 15 711 46 q 449 -17 551 -17 q 151 76 254 -17 q 49 356 49 168 q 94 623 49 500 q 226 828 139 746 q 397 933 299 897 q 617 969 496 969 q 911 898 797 969 q 1025 690 1025 826 q 1019 628 1025 657 l 836 628 m 551 1022 l 696 1206 l 869 1206 l 871 1201 l 692 1022 l 551 1022 z "},"Ğ":{"ha":1081,"x_min":49,"x_max":1025,"o":"m 49 0 m 836 628 q 839 660 839 639 q 778 778 839 736 q 622 819 718 819 q 374 739 469 819 q 249 510 278 658 q 232 361 232 421 q 290 189 232 244 q 463 133 347 133 q 623 163 550 133 q 741 244 696 192 q 794 361 786 296 l 794 363 l 489 363 l 515 510 l 999 510 l 908 0 l 783 0 l 783 110 q 631 15 711 46 q 449 -17 551 -17 q 151 76 254 -17 q 49 356 49 168 q 94 623 49 500 q 226 828 139 746 q 397 933 299 897 q 617 969 496 969 q 911 898 797 969 q 1025 690 1025 826 q 1019 628 1025 657 l 836 628 m 622 1025 q 468 1067 515 1025 q 421 1172 421 1108 q 424 1206 421 1194 l 535 1206 q 555 1156 535 1176 q 625 1136 575 1136 q 706 1158 674 1136 q 746 1206 738 1179 l 857 1206 q 828 1133 849 1168 q 775 1071 808 1097 q 622 1025 713 1025 z "},"Ǧ":{"ha":1081,"x_min":49,"x_max":1025,"o":"m 49 0 m 836 628 q 839 660 839 639 q 778 778 839 736 q 622 819 718 819 q 374 739 469 819 q 249 510 278 658 q 232 361 232 421 q 290 189 232 244 q 463 133 347 133 q 623 163 550 133 q 741 244 696 192 q 794 361 786 296 l 794 363 l 489 363 l 515 510 l 999 510 l 908 0 l 783 0 l 783 110 q 631 15 711 46 q 449 -17 551 -17 q 151 76 254 -17 q 49 356 49 168 q 94 623 49 500 q 226 828 139 746 q 397 933 299 897 q 617 969 496 969 q 911 898 797 969 q 1025 690 1025 826 q 1019 628 1025 657 l 836 628 m 547 1018 l 433 1206 l 571 1206 l 633 1106 l 724 1206 l 876 1206 l 697 1018 l 547 1018 z "},"Ĝ":{"ha":1081,"x_min":49,"x_max":1025,"o":"m 49 0 m 836 628 q 839 660 839 639 q 778 778 839 736 q 622 819 718 819 q 374 739 469 819 q 249 510 278 658 q 232 361 232 421 q 290 189 232 244 q 463 133 347 133 q 623 163 550 133 q 741 244 696 192 q 794 361 786 296 l 794 363 l 489 363 l 515 510 l 999 510 l 908 0 l 783 0 l 783 110 q 631 15 711 46 q 449 -17 551 -17 q 151 76 254 -17 q 49 356 49 168 q 94 623 49 500 q 226 828 139 746 q 397 933 299 897 q 617 969 496 969 q 911 898 797 969 q 1025 690 1025 826 q 1019 628 1025 657 l 836 628 m 392 1018 l 571 1206 l 721 1206 l 835 1018 l 697 1018 l 636 1118 l 546 1018 l 392 1018 z "},"Ģ":{"ha":1081,"x_min":49,"x_max":1025,"o":"m 49 0 m 836 628 q 839 660 839 639 q 778 778 839 736 q 622 819 718 819 q 374 739 469 819 q 249 510 278 658 q 232 361 232 421 q 290 189 232 244 q 463 133 347 133 q 623 163 550 133 q 741 244 696 192 q 794 361 786 296 l 794 363 l 489 363 l 515 510 l 999 510 l 908 0 l 783 0 l 783 110 q 631 15 711 46 q 449 -17 551 -17 q 151 76 254 -17 q 49 356 49 168 q 94 623 49 500 q 226 828 139 746 q 397 933 299 897 q 617 969 496 969 q 911 898 797 969 q 1025 690 1025 826 q 1019 628 1025 657 l 836 628 m 338 -319 l 422 -197 l 358 -197 l 382 -64 l 550 -64 l 529 -183 l 426 -319 l 338 -319 z "},"Ġ":{"ha":1081,"x_min":49,"x_max":1025,"o":"m 49 0 m 836 628 q 839 660 839 639 q 778 778 839 736 q 622 819 718 819 q 374 739 469 819 q 249 510 278 658 q 232 361 232 421 q 290 189 232 244 q 463 133 347 133 q 623 163 550 133 q 741 244 696 192 q 794 361 786 296 l 794 363 l 489 363 l 515 510 l 999 510 l 908 0 l 783 0 l 783 110 q 631 15 711 46 q 449 -17 551 -17 q 151 76 254 -17 q 49 356 49 168 q 94 623 49 500 q 226 828 139 746 q 397 933 299 897 q 617 969 496 969 q 911 898 797 969 q 1025 690 1025 826 q 1019 628 1025 657 l 836 628 m 543 1043 l 572 1207 l 736 1207 l 707 1043 l 543 1043 z "},"H":{"ha":1003,"x_min":17,"x_max":990,"o":"m 17 0 l 185 953 l 363 953 l 293 564 l 744 564 l 813 953 l 990 953 l 822 0 l 644 0 l 718 411 l 267 411 l 194 0 l 17 0 z "},"Ħ":{"ha":1003,"x_min":17,"x_max":1056,"o":"m 17 0 l 143 714 l 54 714 l 75 831 l 163 831 l 185 953 l 363 953 l 340 831 l 790 831 l 813 953 l 990 953 l 968 831 l 1056 831 l 1036 714 l 947 714 l 822 0 l 644 0 l 718 411 l 267 411 l 194 0 l 17 0 m 293 564 l 744 564 l 771 714 l 319 714 l 293 564 z "},"Ĥ":{"ha":1003,"x_min":17,"x_max":990,"o":"m 17 0 m 17 0 l 185 953 l 363 953 l 293 564 l 744 564 l 813 953 l 990 953 l 822 0 l 644 0 l 718 411 l 267 411 l 194 0 l 17 0 m 368 1018 l 547 1206 l 697 1206 l 811 1018 l 674 1018 l 613 1118 l 522 1018 l 368 1018 z "},"Ḥ":{"ha":1003,"x_min":17,"x_max":990,"o":"m 17 0 m 17 0 l 185 953 l 363 953 l 293 564 l 744 564 l 813 953 l 990 953 l 822 0 l 644 0 l 718 411 l 267 411 l 194 0 l 17 0 m 313 -240 l 342 -76 l 506 -76 l 476 -240 l 313 -240 z "},"I":{"ha":386,"x_min":24,"x_max":368,"o":"m 24 0 l 192 953 l 368 953 l 200 0 l 24 0 z "},"Ĳ":{"ha":1132,"x_min":24,"x_max":1124,"o":"m 24 0 m 24 0 l 192 953 l 368 953 l 200 0 l 24 0 m 668 -17 q 454 38 528 -17 q 381 197 381 92 q 396 314 381 250 l 572 314 q 558 231 558 263 q 583 157 558 181 q 664 133 608 133 q 772 168 731 133 q 824 271 813 203 l 944 953 l 1124 953 l 1003 271 q 892 55 976 126 q 668 -17 807 -17 z "},"Í":{"ha":386,"x_min":24,"x_max":540,"o":"m 24 0 m 24 0 l 192 953 l 368 953 l 200 0 l 24 0 m 221 1022 l 365 1206 l 539 1206 l 540 1201 l 361 1022 l 221 1022 z "},"Ĭ":{"ha":386,"x_min":24,"x_max":526,"o":"m 24 0 m 24 0 l 192 953 l 368 953 l 200 0 l 24 0 m 292 1025 q 138 1067 185 1025 q 90 1172 90 1108 q 93 1206 90 1194 l 204 1206 q 224 1156 204 1176 q 294 1136 244 1136 q 375 1158 343 1136 q 415 1206 407 1179 l 526 1206 q 498 1133 518 1168 q 444 1071 478 1097 q 292 1025 382 1025 z "},"Ǐ":{"ha":386,"x_min":24,"x_max":546,"o":"m 24 0 m 24 0 l 192 953 l 368 953 l 200 0 l 24 0 m 217 1018 l 103 1206 l 240 1206 l 303 1106 l 393 1206 l 546 1206 l 367 1018 l 217 1018 z "},"Î":{"ha":386,"x_min":24,"x_max":504,"o":"m 24 0 m 24 0 l 192 953 l 368 953 l 200 0 l 24 0 m 61 1018 l 240 1206 l 390 1206 l 504 1018 l 367 1018 l 306 1118 l 215 1018 l 61 1018 z "},"Ȉ":{"ha":386,"x_min":24,"x_max":496,"o":"m 24 0 m 24 0 l 192 953 l 368 953 l 200 0 l 24 0 m 139 1022 l 32 1201 l 35 1206 l 201 1206 l 271 1022 l 139 1022 m 364 1022 l 257 1201 l 260 1206 l 428 1206 l 496 1022 l 364 1022 z "},"Ï":{"ha":386,"x_min":24,"x_max":540,"o":"m 24 0 m 24 0 l 192 953 l 368 953 l 200 0 l 24 0 m 83 1053 l 110 1206 l 258 1206 l 232 1053 l 83 1053 m 363 1053 l 390 1206 l 540 1206 l 513 1053 l 363 1053 z "},"İ":{"ha":386,"x_min":24,"x_max":406,"o":"m 24 0 m 24 0 l 192 953 l 368 953 l 200 0 l 24 0 m 213 1043 l 242 1207 l 406 1207 l 376 1043 l 213 1043 z "},"Ị":{"ha":386,"x_min":-12,"x_max":368,"o":"m 0 0 m 24 0 l 192 953 l 368 953 l 200 0 l 24 0 m -12 -240 l 17 -76 l 181 -76 l 151 -240 l -12 -240 z "},"Ì":{"ha":386,"x_min":24,"x_max":368,"o":"m 24 0 m 24 0 l 192 953 l 368 953 l 200 0 l 24 0 m 229 1022 l 111 1201 l 113 1206 l 275 1206 l 356 1022 l 229 1022 z "},"Ỉ":{"ha":386,"x_min":24,"x_max":464,"o":"m 24 0 m 24 0 l 192 953 l 368 953 l 200 0 l 24 0 m 263 1100 l 282 1100 q 318 1108 307 1100 q 329 1132 329 1115 q 319 1149 329 1144 q 286 1153 308 1153 l 206 1153 l 215 1211 q 328 1222 268 1222 q 423 1206 382 1222 q 464 1151 464 1190 q 429 1085 464 1108 q 344 1058 394 1063 l 338 1022 l 249 1022 l 263 1100 z "},"Ȋ":{"ha":386,"x_min":24,"x_max":511,"o":"m 24 0 m 24 0 l 192 953 l 368 953 l 200 0 l 24 0 m 76 1025 q 146 1153 89 1101 q 324 1206 203 1206 q 462 1160 413 1206 q 511 1050 511 1114 q 508 1025 511 1042 l 399 1025 q 377 1073 400 1051 q 304 1094 354 1094 q 226 1074 254 1094 q 188 1025 197 1053 l 76 1025 z "},"Ī":{"ha":386,"x_min":24,"x_max":532,"o":"m 24 0 m 24 0 l 192 953 l 368 953 l 200 0 l 24 0 m 88 1058 l 108 1172 l 532 1172 l 511 1058 l 88 1058 z "},"Į":{"ha":386,"x_min":-43,"x_max":368,"o":"m 164 0 q 119 -52 139 -21 q 99 -115 99 -83 q 157 -169 99 -169 l 194 -169 l 181 -244 q 82 -264 125 -264 q -7 -238 29 -264 q -43 -158 -43 -212 q -17 -71 -43 -108 q 53 0 10 -33 l 24 0 l 192 953 l 368 953 l 200 0 l 164 0 z "},"Ĩ":{"ha":386,"x_min":24,"x_max":556,"o":"m 24 0 m 24 0 l 192 953 l 368 953 l 200 0 l 24 0 m 67 1044 q 117 1160 78 1114 q 218 1206 156 1206 q 317 1181 258 1206 q 407 1157 372 1157 q 461 1206 446 1157 l 556 1206 q 504 1090 543 1135 q 401 1044 465 1044 q 354 1051 376 1044 q 304 1069 332 1057 q 256 1087 276 1081 q 214 1093 236 1093 q 160 1044 175 1093 l 67 1044 z "},"J":{"ha":746,"x_min":-6,"x_max":738,"o":"m 282 -17 q 68 38 142 -17 q -6 197 -6 92 q 10 314 -6 250 l 186 314 q 172 231 172 263 q 197 157 172 181 q 278 133 222 133 q 385 168 344 133 q 438 271 426 203 l 558 953 l 738 953 l 617 271 q 506 55 590 126 q 282 -17 421 -17 z "},"Ĵ":{"ha":746,"x_min":-6,"x_max":872,"o":"m 0 0 m 282 -17 q 68 38 142 -17 q -6 197 -6 92 q 10 314 -6 250 l 186 314 q 172 231 172 263 q 197 157 172 181 q 278 133 222 133 q 385 168 344 133 q 438 271 426 203 l 558 953 l 738 953 l 617 271 q 506 55 590 126 q 282 -17 421 -17 m 429 1018 l 608 1206 l 758 1206 l 872 1018 l 735 1018 l 674 1118 l 583 1018 l 429 1018 z "},"K":{"ha":976,"x_min":17,"x_max":1042,"o":"m 17 0 l 185 953 l 363 953 l 278 478 l 808 953 l 1042 953 l 606 565 l 881 0 l 682 0 l 469 446 l 240 263 l 194 0 l 17 0 z "},"Ķ":{"ha":976,"x_min":17,"x_max":1042,"o":"m 17 0 m 17 0 l 185 953 l 363 953 l 278 478 l 808 953 l 1042 953 l 606 565 l 881 0 l 682 0 l 469 446 l 240 263 l 194 0 l 17 0 m 286 -319 l 371 -197 l 307 -197 l 331 -64 l 499 -64 l 478 -183 l 375 -319 l 286 -319 z "},"L":{"ha":822,"x_min":17,"x_max":735,"o":"m 17 0 l 185 953 l 363 953 l 221 154 l 735 154 l 707 0 l 17 0 z "},"Ǉ":{"ha":1568,"x_min":17,"x_max":1560,"o":"m 17 0 m 17 0 l 185 953 l 363 953 l 221 154 l 735 154 l 707 0 l 17 0 m 1104 -17 q 890 38 964 -17 q 817 197 817 92 q 832 314 817 250 l 1008 314 q 994 231 994 263 q 1019 157 994 181 q 1100 133 1044 133 q 1208 168 1167 133 q 1260 271 1249 203 l 1381 953 l 1560 953 l 1439 271 q 1328 55 1413 126 q 1104 -17 1243 -17 z "},"Ĺ":{"ha":822,"x_min":17,"x_max":735,"o":"m 17 0 m 17 0 l 185 953 l 363 953 l 221 154 l 735 154 l 707 0 l 17 0 m 214 1022 l 358 1206 l 532 1206 l 533 1201 l 354 1022 l 214 1022 z "},"Ľ":{"ha":822,"x_min":17,"x_max":735,"o":"m 17 0 l 185 953 l 363 953 l 221 154 l 735 154 l 707 0 l 17 0 m 472 638 l 565 793 l 501 793 l 529 953 l 694 953 l 669 808 l 560 638 l 472 638 z "},"Ļ":{"ha":822,"x_min":17,"x_max":735,"o":"m 17 0 m 17 0 l 185 953 l 363 953 l 221 154 l 735 154 l 707 0 l 17 0 m 224 -319 l 308 -197 l 244 -197 l 268 -64 l 436 -64 l 415 -183 l 313 -319 l 224 -319 z "},"Ŀ":{"ha":822,"x_min":17,"x_max":735,"o":"m 17 0 m 17 0 l 185 953 l 363 953 l 221 154 l 735 154 l 707 0 l 17 0 m 460 554 l 492 731 l 664 731 l 632 554 l 460 554 z "},"ǈ":{"ha":1182,"x_min":17,"x_max":1183,"o":"m 17 0 m 17 0 l 185 953 l 363 953 l 221 154 l 735 154 l 707 0 l 17 0 m 989 844 l 1017 1004 l 1183 1004 l 1156 844 l 989 844 m 794 -253 q 728 -247 764 -253 q 671 -232 692 -240 l 690 -118 l 758 -118 q 831 -56 819 -118 l 969 731 l 1136 731 l 996 -67 q 794 -253 963 -253 z "},"Ł":{"ha":822,"x_min":-19,"x_max":735,"o":"m 25 0 l 86 351 l -19 288 l 4 419 l 110 482 l 193 953 l 371 953 l 308 600 l 542 738 l 518 606 l 285 468 l 229 154 l 735 154 l 707 0 l 25 0 z "},"M":{"ha":1157,"x_min":17,"x_max":1144,"o":"m 185 953 l 447 953 l 515 385 q 522 281 519 346 q 524 194 524 215 l 531 194 q 562 284 538 217 q 601 385 586 351 l 869 953 l 1144 953 l 976 0 l 799 0 l 908 615 q 926 706 915 656 q 942 776 938 757 l 933 776 q 888 669 910 715 l 575 0 l 406 0 l 332 669 l 329 706 l 324 776 l 317 776 q 308 706 314 757 q 294 615 301 656 l 186 0 l 17 0 l 185 953 z "},"N":{"ha":1003,"x_min":17,"x_max":990,"o":"m 185 953 l 354 953 l 661 369 q 683 326 672 349 q 699 290 693 303 l 706 292 q 718 374 715 363 l 819 953 l 990 953 l 822 0 l 656 0 l 350 585 q 324 636 336 610 q 310 668 313 663 l 303 668 l 297 635 l 289 581 l 188 0 l 17 0 l 185 953 z "},"Ǌ":{"ha":1749,"x_min":17,"x_max":1740,"o":"m 17 0 m 185 953 l 354 953 l 661 369 q 683 326 672 349 q 699 290 693 303 l 706 292 q 718 374 715 363 l 819 953 l 990 953 l 822 0 l 656 0 l 350 585 q 324 636 336 610 q 310 668 313 663 l 303 668 l 297 635 l 289 581 l 188 0 l 17 0 l 185 953 m 1285 -17 q 1071 38 1144 -17 q 997 197 997 92 q 1013 314 997 250 l 1189 314 q 1175 231 1175 263 q 1200 157 1175 181 q 1281 133 1225 133 q 1388 168 1347 133 q 1440 271 1429 203 l 1561 953 l 1740 953 l 1619 271 q 1508 55 1593 126 q 1285 -17 1424 -17 z "},"Ń":{"ha":1003,"x_min":17,"x_max":990,"o":"m 17 0 m 185 953 l 354 953 l 661 369 q 683 326 672 349 q 699 290 693 303 l 706 292 q 718 374 715 363 l 819 953 l 990 953 l 822 0 l 656 0 l 350 585 q 324 636 336 610 q 310 668 313 663 l 303 668 l 297 635 l 289 581 l 188 0 l 17 0 l 185 953 m 550 1022 l 694 1206 l 868 1206 l 869 1201 l 690 1022 l 550 1022 z "},"Ň":{"ha":1003,"x_min":17,"x_max":990,"o":"m 17 0 m 185 953 l 354 953 l 661 369 q 683 326 672 349 q 699 290 693 303 l 706 292 q 718 374 715 363 l 819 953 l 990 953 l 822 0 l 656 0 l 350 585 q 324 636 336 610 q 310 668 313 663 l 303 668 l 297 635 l 289 581 l 188 0 l 17 0 l 185 953 m 546 1018 l 432 1206 l 569 1206 l 632 1106 l 722 1206 l 875 1206 l 696 1018 l 546 1018 z "},"Ņ":{"ha":1003,"x_min":17,"x_max":990,"o":"m 17 0 m 185 953 l 354 953 l 661 369 q 683 326 672 349 q 699 290 693 303 l 706 292 q 718 374 715 363 l 819 953 l 990 953 l 822 0 l 656 0 l 350 585 q 324 636 336 610 q 310 668 313 663 l 303 668 l 297 635 l 289 581 l 188 0 l 17 0 l 185 953 m 299 -319 l 383 -197 l 319 -197 l 343 -64 l 511 -64 l 490 -183 l 388 -319 l 299 -319 z "},"Ṅ":{"ha":1003,"x_min":17,"x_max":990,"o":"m 17 0 m 185 953 l 354 953 l 661 369 q 683 326 672 349 q 699 290 693 303 l 706 292 q 718 374 715 363 l 819 953 l 990 953 l 822 0 l 656 0 l 350 585 q 324 636 336 610 q 310 668 313 663 l 303 668 l 297 635 l 289 581 l 188 0 l 17 0 l 185 953 m 542 1043 l 571 1207 l 735 1207 l 706 1043 l 542 1043 z "},"Ŋ":{"ha":1003,"x_min":17,"x_max":990,"o":"m 610 -253 q 543 -247 579 -253 q 486 -232 507 -240 l 506 -118 l 571 -118 q 642 -56 631 -118 l 653 4 l 347 589 q 323 636 335 610 q 307 671 311 663 l 300 671 q 290 582 300 647 l 188 0 l 17 0 l 185 953 l 354 953 l 661 369 q 683 326 672 349 q 699 290 693 303 l 706 292 q 718 374 715 363 l 819 953 l 990 953 l 811 -67 q 610 -253 778 -253 z "},"Ɲ":{"ha":1003,"x_min":-149,"x_max":990,"o":"m -25 -253 q -92 -247 -56 -253 q -149 -232 -128 -240 l -129 -118 l -64 -118 q 7 -56 -4 -118 l 185 953 l 354 953 l 661 369 q 683 326 672 349 q 699 290 693 303 l 706 292 q 718 374 715 363 l 819 953 l 990 953 l 822 0 l 656 0 l 357 569 l 322 642 l 310 668 l 303 668 l 286 560 l 176 -67 q -25 -253 143 -253 z "},"ǋ":{"ha":1363,"x_min":17,"x_max":1364,"o":"m 17 0 m 185 953 l 354 953 l 661 369 q 683 326 672 349 q 699 290 693 303 l 706 292 q 718 374 715 363 l 819 953 l 990 953 l 822 0 l 656 0 l 350 585 q 324 636 336 610 q 310 668 313 663 l 303 668 l 297 635 l 289 581 l 188 0 l 17 0 l 185 953 m 1169 844 l 1197 1004 l 1364 1004 l 1336 844 l 1169 844 m 975 -253 q 908 -247 944 -253 q 851 -232 872 -240 l 871 -118 l 939 -118 q 1011 -56 1000 -118 l 1150 731 l 1317 731 l 1176 -67 q 975 -253 1143 -253 z "},"Ñ":{"ha":1003,"x_min":17,"x_max":990,"o":"m 17 0 m 185 953 l 354 953 l 661 369 q 683 326 672 349 q 699 290 693 303 l 706 292 q 718 374 715 363 l 819 953 l 990 953 l 822 0 l 656 0 l 350 585 q 324 636 336 610 q 310 668 313 663 l 303 668 l 297 635 l 289 581 l 188 0 l 17 0 l 185 953 m 396 1044 q 446 1160 407 1114 q 547 1206 485 1206 q 646 1181 588 1206 q 736 1157 701 1157 q 790 1206 775 1157 l 885 1206 q 833 1090 872 1135 q 731 1044 794 1044 q 683 1051 706 1044 q 633 1069 661 1057 q 585 1087 606 1081 q 543 1093 565 1093 q 489 1044 504 1093 l 396 1044 z "},"O":{"ha":1081,"x_min":49,"x_max":1035,"o":"m 475 -15 q 160 78 271 -17 q 49 357 49 174 q 58 483 49 425 q 237 842 94 714 q 606 969 379 969 q 922 874 810 969 q 1035 599 1035 779 q 1025 475 1035 546 q 847 113 990 243 q 475 -15 703 -17 m 474 135 q 717 220 625 135 q 838 467 810 306 q 851 589 851 542 q 788 759 851 699 q 607 819 725 819 q 364 734 456 819 q 244 488 272 649 q 231 367 231 403 q 293 195 231 256 q 474 135 356 135 z "},"Ó":{"ha":1081,"x_min":49,"x_max":1035,"o":"m 49 0 m 475 -15 q 160 78 271 -17 q 49 357 49 174 q 58 483 49 425 q 237 842 94 714 q 606 969 379 969 q 922 874 810 969 q 1035 599 1035 779 q 1025 475 1035 546 q 847 113 990 243 q 475 -15 703 -17 m 474 135 q 717 220 625 135 q 838 467 810 306 q 851 589 851 542 q 788 759 851 699 q 607 819 725 819 q 364 734 456 819 q 244 488 272 649 q 231 367 231 403 q 293 195 231 256 q 474 135 356 135 m 538 1022 l 682 1206 l 856 1206 l 857 1201 l 678 1022 l 538 1022 z "},"Ŏ":{"ha":1081,"x_min":49,"x_max":1035,"o":"m 49 0 m 475 -15 q 160 78 271 -17 q 49 357 49 174 q 58 483 49 425 q 237 842 94 714 q 606 969 379 969 q 922 874 810 969 q 1035 599 1035 779 q 1025 475 1035 546 q 847 113 990 243 q 475 -15 703 -17 m 474 135 q 717 220 625 135 q 838 467 810 306 q 851 589 851 542 q 788 759 851 699 q 607 819 725 819 q 364 734 456 819 q 244 488 272 649 q 231 367 231 403 q 293 195 231 256 q 474 135 356 135 m 608 1025 q 454 1067 501 1025 q 407 1172 407 1108 q 410 1206 407 1194 l 521 1206 q 541 1156 521 1176 q 611 1136 561 1136 q 692 1158 660 1136 q 732 1206 724 1179 l 843 1206 q 815 1133 835 1168 q 761 1071 794 1097 q 608 1025 699 1025 z "},"Ǒ":{"ha":1081,"x_min":49,"x_max":1035,"o":"m 49 0 m 475 -15 q 160 78 271 -17 q 49 357 49 174 q 58 483 49 425 q 237 842 94 714 q 606 969 379 969 q 922 874 810 969 q 1035 599 1035 779 q 1025 475 1035 546 q 847 113 990 243 q 475 -15 703 -17 m 474 135 q 717 220 625 135 q 838 467 810 306 q 851 589 851 542 q 788 759 851 699 q 607 819 725 819 q 364 734 456 819 q 244 488 272 649 q 231 367 231 403 q 293 195 231 256 q 474 135 356 135 m 533 1018 l 419 1206 l 557 1206 l 619 1106 l 710 1206 l 863 1206 l 683 1018 l 533 1018 z "},"Ô":{"ha":1081,"x_min":49,"x_max":1035,"o":"m 49 0 m 475 -15 q 160 78 271 -17 q 49 357 49 174 q 58 483 49 425 q 237 842 94 714 q 606 969 379 969 q 922 874 810 969 q 1035 599 1035 779 q 1025 475 1035 546 q 847 113 990 243 q 475 -15 703 -17 m 474 135 q 717 220 625 135 q 838 467 810 306 q 851 589 851 542 q 788 759 851 699 q 607 819 725 819 q 364 734 456 819 q 244 488 272 649 q 231 367 231 403 q 293 195 231 256 q 474 135 356 135 m 378 1018 l 557 1206 l 707 1206 l 821 1018 l 683 1018 l 622 1118 l 532 1018 l 378 1018 z "},"Ố":{"ha":1081,"x_min":49,"x_max":1075,"o":"m 49 0 m 475 -15 q 160 78 271 -17 q 49 357 49 174 q 58 483 49 425 q 237 842 94 714 q 606 969 379 969 q 922 874 810 969 q 1035 599 1035 779 q 1025 475 1035 546 q 847 113 990 243 q 475 -15 703 -17 m 474 135 q 717 220 625 135 q 838 467 810 306 q 851 589 851 542 q 788 759 851 699 q 607 819 725 819 q 364 734 456 819 q 244 488 272 649 q 231 367 231 403 q 293 195 231 256 q 474 135 356 135 m 378 1018 l 557 1206 l 707 1206 l 821 1018 l 683 1018 l 622 1118 l 532 1018 l 378 1018 m 756 1154 l 900 1338 l 1074 1338 l 1075 1333 l 896 1154 l 756 1154 z "},"Ộ":{"ha":1081,"x_min":49,"x_max":1035,"o":"m 49 0 m 475 -15 q 160 78 271 -17 q 49 357 49 174 q 58 483 49 425 q 237 842 94 714 q 606 969 379 969 q 922 874 810 969 q 1035 599 1035 779 q 1025 475 1035 546 q 847 113 990 243 q 475 -15 703 -17 m 474 135 q 717 220 625 135 q 838 467 810 306 q 851 589 851 542 q 788 759 851 699 q 607 819 725 819 q 364 734 456 819 q 244 488 272 649 q 231 367 231 403 q 293 195 231 256 q 474 135 356 135 m 378 1018 l 557 1206 l 707 1206 l 821 1018 l 683 1018 l 622 1118 l 532 1018 l 378 1018 m 351 -240 l 381 -76 l 544 -76 l 515 -240 l 351 -240 z "},"Ồ":{"ha":1081,"x_min":49,"x_max":1035,"o":"m 49 0 m 475 -15 q 160 78 271 -17 q 49 357 49 174 q 58 483 49 425 q 237 842 94 714 q 606 969 379 969 q 922 874 810 969 q 1035 599 1035 779 q 1025 475 1035 546 q 847 113 990 243 q 475 -15 703 -17 m 474 135 q 717 220 625 135 q 838 467 810 306 q 851 589 851 542 q 788 759 851 699 q 607 819 725 819 q 364 734 456 819 q 244 488 272 649 q 231 367 231 403 q 293 195 231 256 q 474 135 356 135 m 378 1018 l 557 1206 l 707 1206 l 821 1018 l 683 1018 l 622 1118 l 532 1018 l 378 1018 m 818 1154 l 700 1333 l 701 1338 l 864 1338 l 944 1154 l 818 1154 z "},"Ổ":{"ha":1081,"x_min":49,"x_max":1035,"o":"m 49 0 m 475 -15 q 160 78 271 -17 q 49 357 49 174 q 58 483 49 425 q 237 842 94 714 q 606 969 379 969 q 922 874 810 969 q 1035 599 1035 779 q 1025 475 1035 546 q 847 113 990 243 q 475 -15 703 -17 m 474 135 q 717 220 625 135 q 838 467 810 306 q 851 589 851 542 q 788 759 851 699 q 607 819 725 819 q 364 734 456 819 q 244 488 272 649 q 231 367 231 403 q 293 195 231 256 q 474 135 356 135 m 378 1018 l 557 1206 l 707 1206 l 821 1018 l 683 1018 l 622 1118 l 532 1018 l 378 1018 m 796 1232 l 815 1232 q 851 1240 840 1232 q 863 1264 863 1247 q 852 1281 863 1276 q 819 1285 842 1285 l 739 1285 l 749 1343 q 861 1354 801 1354 q 956 1338 915 1354 q 997 1283 997 1322 q 963 1217 997 1240 q 878 1190 928 1194 l 871 1154 l 782 1154 l 796 1232 z "},"Ỗ":{"ha":1081,"x_min":49,"x_max":1035,"o":"m 49 0 m 475 -15 q 160 78 271 -17 q 49 357 49 174 q 58 483 49 425 q 237 842 94 714 q 606 969 379 969 q 922 874 810 969 q 1035 599 1035 779 q 1025 475 1035 546 q 847 113 990 243 q 475 -15 703 -17 m 474 135 q 717 220 625 135 q 838 467 810 306 q 851 589 851 542 q 788 759 851 699 q 607 819 725 819 q 364 734 456 819 q 244 488 272 649 q 231 367 231 403 q 293 195 231 256 q 474 135 356 135 m 378 1018 l 557 1206 l 707 1206 l 821 1018 l 683 1018 l 622 1118 l 532 1018 l 378 1018 m 415 1267 q 465 1382 426 1336 q 567 1428 504 1428 q 665 1403 607 1428 q 756 1379 721 1379 q 810 1428 794 1379 l 904 1428 q 853 1312 892 1357 q 750 1267 814 1267 q 703 1273 725 1267 q 653 1292 681 1279 q 605 1309 625 1303 q 563 1315 585 1315 q 508 1267 524 1315 l 415 1267 z "},"Ȍ":{"ha":1081,"x_min":49,"x_max":1035,"o":"m 49 0 m 475 -15 q 160 78 271 -17 q 49 357 49 174 q 58 483 49 425 q 237 842 94 714 q 606 969 379 969 q 922 874 810 969 q 1035 599 1035 779 q 1025 475 1035 546 q 847 113 990 243 q 475 -15 703 -17 m 474 135 q 717 220 625 135 q 838 467 810 306 q 851 589 851 542 q 788 759 851 699 q 607 819 725 819 q 364 734 456 819 q 244 488 272 649 q 231 367 231 403 q 293 195 231 256 q 474 135 356 135 m 456 1022 l 349 1201 l 351 1206 l 518 1206 l 588 1022 l 456 1022 m 681 1022 l 574 1201 l 576 1206 l 744 1206 l 813 1022 l 681 1022 z "},"Ö":{"ha":1081,"x_min":49,"x_max":1035,"o":"m 49 0 m 475 -15 q 160 78 271 -17 q 49 357 49 174 q 58 483 49 425 q 237 842 94 714 q 606 969 379 969 q 922 874 810 969 q 1035 599 1035 779 q 1025 475 1035 546 q 847 113 990 243 q 475 -15 703 -17 m 474 135 q 717 220 625 135 q 838 467 810 306 q 851 589 851 542 q 788 759 851 699 q 607 819 725 819 q 364 734 456 819 q 244 488 272 649 q 231 367 231 403 q 293 195 231 256 q 474 135 356 135 m 400 1053 l 426 1206 l 575 1206 l 549 1053 l 400 1053 m 679 1053 l 707 1206 l 857 1206 l 829 1053 l 679 1053 z "},"Ọ":{"ha":1081,"x_min":49,"x_max":1035,"o":"m 49 0 m 475 -15 q 160 78 271 -17 q 49 357 49 174 q 58 483 49 425 q 237 842 94 714 q 606 969 379 969 q 922 874 810 969 q 1035 599 1035 779 q 1025 475 1035 546 q 847 113 990 243 q 475 -15 703 -17 m 474 135 q 717 220 625 135 q 838 467 810 306 q 851 589 851 542 q 788 759 851 699 q 607 819 725 819 q 364 734 456 819 q 244 488 272 649 q 231 367 231 403 q 293 195 231 256 q 474 135 356 135 m 351 -240 l 381 -76 l 544 -76 l 515 -240 l 351 -240 z "},"Ò":{"ha":1081,"x_min":49,"x_max":1035,"o":"m 49 0 m 475 -15 q 160 78 271 -17 q 49 357 49 174 q 58 483 49 425 q 237 842 94 714 q 606 969 379 969 q 922 874 810 969 q 1035 599 1035 779 q 1025 475 1035 546 q 847 113 990 243 q 475 -15 703 -17 m 474 135 q 717 220 625 135 q 838 467 810 306 q 851 589 851 542 q 788 759 851 699 q 607 819 725 819 q 364 734 456 819 q 244 488 272 649 q 231 367 231 403 q 293 195 231 256 q 474 135 356 135 m 546 1022 l 428 1201 l 429 1206 l 592 1206 l 672 1022 l 546 1022 z "},"Ỏ":{"ha":1081,"x_min":49,"x_max":1035,"o":"m 49 0 m 475 -15 q 160 78 271 -17 q 49 357 49 174 q 58 483 49 425 q 237 842 94 714 q 606 969 379 969 q 922 874 810 969 q 1035 599 1035 779 q 1025 475 1035 546 q 847 113 990 243 q 475 -15 703 -17 m 474 135 q 717 220 625 135 q 838 467 810 306 q 851 589 851 542 q 788 759 851 699 q 607 819 725 819 q 364 734 456 819 q 244 488 272 649 q 231 367 231 403 q 293 195 231 256 q 474 135 356 135 m 579 1100 l 599 1100 q 635 1108 624 1100 q 646 1132 646 1115 q 635 1149 646 1144 q 603 1153 625 1153 l 522 1153 l 532 1211 q 644 1222 585 1222 q 740 1206 699 1222 q 781 1151 781 1190 q 746 1085 781 1108 q 661 1058 711 1063 l 654 1022 l 565 1022 l 579 1100 z "},"Ơ":{"ha":1081,"x_min":49,"x_max":1206,"o":"m 1206 1150 l 1192 1075 q 1123 901 1174 968 q 983 803 1072 835 q 1035 599 1035 717 q 1025 475 1035 546 q 847 113 990 243 q 475 -15 703 -17 q 160 78 271 -17 q 49 357 49 174 q 58 483 49 425 q 237 842 94 714 q 606 969 379 969 q 924 874 811 969 q 1008 912 975 888 q 1061 974 1042 936 l 986 974 l 1018 1150 l 1206 1150 m 838 467 q 851 589 851 542 q 788 759 851 699 q 607 819 725 819 q 364 734 456 819 q 244 488 272 649 q 231 367 231 403 q 293 195 231 256 q 474 135 356 135 q 717 220 625 135 q 838 467 810 306 z "},"Ớ":{"ha":1081,"x_min":49,"x_max":1206,"o":"m 49 0 m 1206 1150 l 1192 1075 q 1123 901 1174 968 q 983 803 1072 835 q 1035 599 1035 717 q 1025 475 1035 546 q 847 113 990 243 q 475 -15 703 -17 q 160 78 271 -17 q 49 357 49 174 q 58 483 49 425 q 237 842 94 714 q 606 969 379 969 q 924 874 811 969 q 1008 912 975 888 q 1061 974 1042 936 l 986 974 l 1018 1150 l 1206 1150 m 838 467 q 851 589 851 542 q 788 759 851 699 q 607 819 725 819 q 364 734 456 819 q 244 488 272 649 q 231 367 231 403 q 293 195 231 256 q 474 135 356 135 q 717 220 625 135 q 838 467 810 306 m 538 1022 l 682 1206 l 856 1206 l 857 1201 l 678 1022 l 538 1022 z "},"Ợ":{"ha":1081,"x_min":49,"x_max":1206,"o":"m 49 0 m 1206 1150 l 1192 1075 q 1123 901 1174 968 q 983 803 1072 835 q 1035 599 1035 717 q 1025 475 1035 546 q 847 113 990 243 q 475 -15 703 -17 q 160 78 271 -17 q 49 357 49 174 q 58 483 49 425 q 237 842 94 714 q 606 969 379 969 q 924 874 811 969 q 1008 912 975 888 q 1061 974 1042 936 l 986 974 l 1018 1150 l 1206 1150 m 838 467 q 851 589 851 542 q 788 759 851 699 q 607 819 725 819 q 364 734 456 819 q 244 488 272 649 q 231 367 231 403 q 293 195 231 256 q 474 135 356 135 q 717 220 625 135 q 838 467 810 306 m 351 -240 l 381 -76 l 544 -76 l 515 -240 l 351 -240 z "},"Ờ":{"ha":1081,"x_min":49,"x_max":1206,"o":"m 49 0 m 1206 1150 l 1192 1075 q 1123 901 1174 968 q 983 803 1072 835 q 1035 599 1035 717 q 1025 475 1035 546 q 847 113 990 243 q 475 -15 703 -17 q 160 78 271 -17 q 49 357 49 174 q 58 483 49 425 q 237 842 94 714 q 606 969 379 969 q 924 874 811 969 q 1008 912 975 888 q 1061 974 1042 936 l 986 974 l 1018 1150 l 1206 1150 m 838 467 q 851 589 851 542 q 788 759 851 699 q 607 819 725 819 q 364 734 456 819 q 244 488 272 649 q 231 367 231 403 q 293 195 231 256 q 474 135 356 135 q 717 220 625 135 q 838 467 810 306 m 546 1022 l 428 1201 l 429 1206 l 592 1206 l 672 1022 l 546 1022 z "},"Ở":{"ha":1081,"x_min":49,"x_max":1206,"o":"m 49 0 m 1206 1150 l 1192 1075 q 1123 901 1174 968 q 983 803 1072 835 q 1035 599 1035 717 q 1025 475 1035 546 q 847 113 990 243 q 475 -15 703 -17 q 160 78 271 -17 q 49 357 49 174 q 58 483 49 425 q 237 842 94 714 q 606 969 379 969 q 924 874 811 969 q 1008 912 975 888 q 1061 974 1042 936 l 986 974 l 1018 1150 l 1206 1150 m 838 467 q 851 589 851 542 q 788 759 851 699 q 607 819 725 819 q 364 734 456 819 q 244 488 272 649 q 231 367 231 403 q 293 195 231 256 q 474 135 356 135 q 717 220 625 135 q 838 467 810 306 m 579 1100 l 599 1100 q 635 1108 624 1100 q 646 1132 646 1115 q 635 1149 646 1144 q 603 1153 625 1153 l 522 1153 l 532 1211 q 644 1222 585 1222 q 740 1206 699 1222 q 781 1151 781 1190 q 746 1085 781 1108 q 661 1058 711 1063 l 654 1022 l 565 1022 l 579 1100 z "},"Ỡ":{"ha":1081,"x_min":49,"x_max":1206,"o":"m 49 0 m 1206 1150 l 1192 1075 q 1123 901 1174 968 q 983 803 1072 835 q 1035 599 1035 717 q 1025 475 1035 546 q 847 113 990 243 q 475 -15 703 -17 q 160 78 271 -17 q 49 357 49 174 q 58 483 49 425 q 237 842 94 714 q 606 969 379 969 q 924 874 811 969 q 1008 912 975 888 q 1061 974 1042 936 l 986 974 l 1018 1150 l 1206 1150 m 838 467 q 851 589 851 542 q 788 759 851 699 q 607 819 725 819 q 364 734 456 819 q 244 488 272 649 q 231 367 231 403 q 293 195 231 256 q 474 135 356 135 q 717 220 625 135 q 838 467 810 306 m 383 1044 q 433 1160 394 1114 q 535 1206 472 1206 q 633 1181 575 1206 q 724 1157 689 1157 q 778 1206 763 1157 l 872 1206 q 821 1090 860 1135 q 718 1044 782 1044 q 671 1051 693 1044 q 621 1069 649 1057 q 573 1087 593 1081 q 531 1093 553 1093 q 476 1044 492 1093 l 383 1044 z "},"Ő":{"ha":1081,"x_min":49,"x_max":1035,"o":"m 49 0 m 475 -15 q 160 78 271 -17 q 49 357 49 174 q 58 483 49 425 q 237 842 94 714 q 606 969 379 969 q 922 874 810 969 q 1035 599 1035 779 q 1025 475 1035 546 q 847 113 990 243 q 475 -15 703 -17 m 474 135 q 717 220 625 135 q 838 467 810 306 q 851 589 851 542 q 788 759 851 699 q 607 819 725 819 q 364 734 456 819 q 244 488 272 649 q 231 367 231 403 q 293 195 231 256 q 474 135 356 135 m 425 1022 l 557 1206 l 731 1206 l 732 1201 l 561 1022 l 425 1022 m 656 1022 l 789 1206 l 961 1206 l 963 1201 l 793 1022 l 656 1022 z "},"Ȏ":{"ha":1081,"x_min":49,"x_max":1035,"o":"m 49 0 m 475 -15 q 160 78 271 -17 q 49 357 49 174 q 58 483 49 425 q 237 842 94 714 q 606 969 379 969 q 922 874 810 969 q 1035 599 1035 779 q 1025 475 1035 546 q 847 113 990 243 q 475 -15 703 -17 m 474 135 q 717 220 625 135 q 838 467 810 306 q 851 589 851 542 q 788 759 851 699 q 607 819 725 819 q 364 734 456 819 q 244 488 272 649 q 231 367 231 403 q 293 195 231 256 q 474 135 356 135 m 393 1025 q 463 1153 406 1101 q 640 1206 519 1206 q 778 1160 729 1206 q 828 1050 828 1114 q 825 1025 828 1042 l 715 1025 q 694 1073 717 1051 q 621 1094 671 1094 q 542 1074 571 1094 q 504 1025 514 1053 l 393 1025 z "},"Ō":{"ha":1081,"x_min":49,"x_max":1035,"o":"m 49 0 m 475 -15 q 160 78 271 -17 q 49 357 49 174 q 58 483 49 425 q 237 842 94 714 q 606 969 379 969 q 922 874 810 969 q 1035 599 1035 779 q 1025 475 1035 546 q 847 113 990 243 q 475 -15 703 -17 m 474 135 q 717 220 625 135 q 838 467 810 306 q 851 589 851 542 q 788 759 851 699 q 607 819 725 819 q 364 734 456 819 q 244 488 272 649 q 231 367 231 403 q 293 195 231 256 q 474 135 356 135 m 404 1058 l 425 1172 l 849 1172 l 828 1058 l 404 1058 z "},"Ǫ":{"ha":1081,"x_min":49,"x_max":1035,"o":"m 606 969 q 922 874 810 969 q 1035 599 1035 779 q 1025 475 1035 546 q 908 178 999 297 q 669 13 817 60 l 669 11 q 624 -41 644 -10 q 604 -104 604 -72 q 663 -158 604 -158 l 700 -158 l 686 -233 q 588 -253 631 -253 q 499 -227 535 -253 q 463 -147 463 -201 q 528 -14 463 -74 q 471 -15 510 -15 q 159 80 269 -15 q 49 357 49 175 q 58 483 49 425 q 237 842 94 714 q 606 969 379 969 m 838 467 q 851 589 851 542 q 788 759 851 699 q 607 819 725 819 q 364 734 456 819 q 244 488 272 649 q 231 367 231 403 q 293 195 231 256 q 474 135 356 135 q 717 220 625 135 q 838 467 810 306 z "},"Ø":{"ha":1081,"x_min":-17,"x_max":1099,"o":"m 136 99 q 49 353 49 190 q 102 640 49 510 q 254 853 156 769 q 410 940 321 910 q 604 969 500 969 q 872 911 768 969 l 972 1021 l 1099 1021 l 946 854 q 1035 599 1035 758 q 988 330 1035 453 q 854 124 942 207 q 688 19 783 56 q 476 -17 592 -17 q 208 42 308 -17 l 110 -68 l -17 -68 l 136 99 m 757 785 q 614 819 701 819 q 374 738 468 819 q 249 507 279 656 q 232 368 232 419 q 261 235 232 288 l 757 785 m 467 133 q 712 219 615 133 q 836 457 808 304 q 851 585 851 542 q 821 717 851 665 l 324 167 q 467 133 381 133 z "},"Ǿ":{"ha":1081,"x_min":-17,"x_max":1099,"o":"m 0 0 m 136 99 q 49 353 49 190 q 102 640 49 510 q 254 853 156 769 q 410 940 321 910 q 604 969 500 969 q 872 911 768 969 l 972 1021 l 1099 1021 l 946 854 q 1035 599 1035 758 q 988 330 1035 453 q 854 124 942 207 q 688 19 783 56 q 476 -17 592 -17 q 208 42 308 -17 l 110 -68 l -17 -68 l 136 99 m 757 785 q 614 819 701 819 q 374 738 468 819 q 249 507 279 656 q 232 368 232 419 q 261 235 232 288 l 757 785 m 467 133 q 712 219 615 133 q 836 457 808 304 q 851 585 851 542 q 821 717 851 665 l 324 167 q 467 133 381 133 m 589 1022 l 733 1206 l 907 1206 l 908 1201 l 729 1022 l 589 1022 z "},"Õ":{"ha":1081,"x_min":49,"x_max":1035,"o":"m 49 0 m 475 -15 q 160 78 271 -17 q 49 357 49 174 q 58 483 49 425 q 237 842 94 714 q 606 969 379 969 q 922 874 810 969 q 1035 599 1035 779 q 1025 475 1035 546 q 847 113 990 243 q 475 -15 703 -17 m 474 135 q 717 220 625 135 q 838 467 810 306 q 851 589 851 542 q 788 759 851 699 q 607 819 725 819 q 364 734 456 819 q 244 488 272 649 q 231 367 231 403 q 293 195 231 256 q 474 135 356 135 m 383 1044 q 433 1160 394 1114 q 535 1206 472 1206 q 633 1181 575 1206 q 724 1157 689 1157 q 778 1206 763 1157 l 872 1206 q 821 1090 860 1135 q 718 1044 782 1044 q 671 1051 693 1044 q 621 1069 649 1057 q 573 1087 593 1081 q 531 1093 553 1093 q 476 1044 492 1093 l 383 1044 z "},"Œ":{"ha":1389,"x_min":46,"x_max":1388,"o":"m 365 -17 q 128 69 211 -17 q 46 321 46 154 q 61 476 46 388 q 218 843 101 717 q 507 969 335 969 q 758 867 674 969 l 774 953 l 1388 953 l 1361 803 l 924 803 l 882 563 l 1253 563 l 1226 413 l 856 413 l 808 150 l 1256 150 l 1229 0 l 606 0 l 619 85 q 365 -17 510 -17 m 408 133 q 585 215 514 133 q 690 476 657 296 q 703 611 703 554 q 659 770 703 721 q 532 819 615 819 q 345 737 414 819 q 244 476 276 654 q 229 338 229 393 q 273 183 229 233 q 408 133 317 133 z "},"P":{"ha":926,"x_min":17,"x_max":907,"o":"m 185 953 l 583 953 q 907 693 907 953 q 860 505 907 585 q 728 383 814 425 q 531 340 643 340 l 254 340 l 194 0 l 17 0 l 185 953 m 529 492 q 671 540 617 492 q 725 674 725 588 q 583 801 725 801 l 335 801 l 281 492 l 529 492 z "},"Þ":{"ha":926,"x_min":17,"x_max":879,"o":"m 185 953 l 363 953 l 335 799 l 556 799 q 879 539 879 799 q 833 351 879 431 q 701 228 786 271 q 503 186 615 186 l 226 186 l 194 0 l 17 0 l 185 953 m 501 338 q 643 385 589 338 q 697 518 697 433 q 556 647 697 647 l 308 647 l 253 338 l 501 338 z "},"Q":{"ha":1081,"x_min":49,"x_max":1035,"o":"m 511 -14 q 476 -17 494 -17 q 160 76 271 -17 q 49 353 49 168 q 99 633 49 506 q 246 843 150 761 q 405 937 314 904 q 604 969 496 969 q 923 876 811 969 q 1035 599 1035 783 q 944 240 1035 394 q 693 22 854 86 l 869 -181 l 653 -181 l 511 -14 m 467 133 q 706 213 611 133 q 832 438 800 293 q 851 585 851 529 q 791 760 851 701 q 614 819 731 819 q 374 738 469 819 q 249 508 279 656 q 232 368 232 421 q 292 192 232 251 q 467 133 351 133 z "},"R":{"ha":1003,"x_min":17,"x_max":954,"o":"m 185 953 l 638 953 q 875 885 796 953 q 954 697 954 818 q 892 504 954 583 q 732 393 831 425 l 865 0 l 676 0 l 560 368 l 260 368 l 194 0 l 17 0 l 185 953 m 596 518 q 724 563 676 518 q 772 685 772 608 q 738 771 772 740 q 636 801 703 801 l 335 801 l 285 518 l 596 518 z "},"Ŕ":{"ha":1003,"x_min":17,"x_max":954,"o":"m 17 0 m 185 953 l 638 953 q 875 885 796 953 q 954 697 954 818 q 892 504 954 583 q 732 393 831 425 l 865 0 l 676 0 l 560 368 l 260 368 l 194 0 l 17 0 l 185 953 m 596 518 q 724 563 676 518 q 772 685 772 608 q 738 771 772 740 q 636 801 703 801 l 335 801 l 285 518 l 596 518 m 486 1022 l 631 1206 l 804 1206 l 806 1201 l 626 1022 l 486 1022 z "},"Ř":{"ha":1003,"x_min":17,"x_max":954,"o":"m 17 0 m 185 953 l 638 953 q 875 885 796 953 q 954 697 954 818 q 892 504 954 583 q 732 393 831 425 l 865 0 l 676 0 l 560 368 l 260 368 l 194 0 l 17 0 l 185 953 m 596 518 q 724 563 676 518 q 772 685 772 608 q 738 771 772 740 q 636 801 703 801 l 335 801 l 285 518 l 596 518 m 482 1018 l 368 1206 l 506 1206 l 568 1106 l 658 1206 l 811 1206 l 632 1018 l 482 1018 z "},"Ŗ":{"ha":1003,"x_min":17,"x_max":954,"o":"m 17 0 m 185 953 l 638 953 q 875 885 796 953 q 954 697 954 818 q 892 504 954 583 q 732 393 831 425 l 865 0 l 676 0 l 560 368 l 260 368 l 194 0 l 17 0 l 185 953 m 596 518 q 724 563 676 518 q 772 685 772 608 q 738 771 772 740 q 636 801 703 801 l 335 801 l 285 518 l 596 518 m 299 -319 l 383 -197 l 319 -197 l 343 -64 l 511 -64 l 490 -183 l 388 -319 l 299 -319 z "},"Ȑ":{"ha":1003,"x_min":17,"x_max":954,"o":"m 17 0 m 185 953 l 638 953 q 875 885 796 953 q 954 697 954 818 q 892 504 954 583 q 732 393 831 425 l 865 0 l 676 0 l 560 368 l 260 368 l 194 0 l 17 0 l 185 953 m 596 518 q 724 563 676 518 q 772 685 772 608 q 738 771 772 740 q 636 801 703 801 l 335 801 l 285 518 l 596 518 m 404 1022 l 297 1201 l 300 1206 l 467 1206 l 536 1022 l 404 1022 m 629 1022 l 522 1201 l 525 1206 l 693 1206 l 761 1022 l 629 1022 z "},"Ṛ":{"ha":1003,"x_min":17,"x_max":954,"o":"m 17 0 m 185 953 l 638 953 q 875 885 796 953 q 954 697 954 818 q 892 504 954 583 q 732 393 831 425 l 865 0 l 676 0 l 560 368 l 260 368 l 194 0 l 17 0 l 185 953 m 596 518 q 724 563 676 518 q 772 685 772 608 q 738 771 772 740 q 636 801 703 801 l 335 801 l 285 518 l 596 518 m 313 -240 l 342 -76 l 506 -76 l 476 -240 l 313 -240 z "},"Ȓ":{"ha":1003,"x_min":17,"x_max":954,"o":"m 17 0 m 185 953 l 638 953 q 875 885 796 953 q 954 697 954 818 q 892 504 954 583 q 732 393 831 425 l 865 0 l 676 0 l 560 368 l 260 368 l 194 0 l 17 0 l 185 953 m 596 518 q 724 563 676 518 q 772 685 772 608 q 738 771 772 740 q 636 801 703 801 l 335 801 l 285 518 l 596 518 m 342 1025 q 411 1153 354 1101 q 589 1206 468 1206 q 727 1160 678 1206 q 776 1050 776 1114 q 774 1025 776 1042 l 664 1025 q 642 1073 665 1051 q 569 1094 619 1094 q 491 1074 519 1094 q 453 1025 463 1053 l 342 1025 z "},"S":{"ha":926,"x_min":24,"x_max":882,"o":"m 421 -17 q 134 45 244 -17 q 24 226 24 107 q 35 306 24 264 l 214 306 q 206 256 206 272 q 258 165 206 197 q 406 133 311 133 q 587 170 526 133 q 647 271 647 207 q 619 336 647 310 q 547 379 590 363 q 431 418 504 396 q 271 474 332 447 q 167 549 210 500 q 124 676 124 599 q 177 838 124 772 q 320 937 231 904 q 518 969 410 969 q 782 913 682 969 q 882 746 882 857 q 875 676 882 717 l 700 676 q 704 711 704 696 q 657 791 704 763 q 528 819 610 819 q 367 788 426 819 q 307 701 307 757 q 358 626 307 653 q 514 568 408 599 q 678 512 615 539 q 788 434 742 485 q 833 304 833 383 q 775 121 833 193 q 624 16 717 49 q 421 -17 531 -17 z "},"Ś":{"ha":926,"x_min":24,"x_max":882,"o":"m 24 0 m 421 -17 q 134 45 244 -17 q 24 226 24 107 q 35 306 24 264 l 214 306 q 206 256 206 272 q 258 165 206 197 q 406 133 311 133 q 587 170 526 133 q 647 271 647 207 q 619 336 647 310 q 547 379 590 363 q 431 418 504 396 q 271 474 332 447 q 167 549 210 500 q 124 676 124 599 q 177 838 124 772 q 320 937 231 904 q 518 969 410 969 q 782 913 682 969 q 882 746 882 857 q 875 676 882 717 l 700 676 q 704 711 704 696 q 657 791 704 763 q 528 819 610 819 q 367 788 426 819 q 307 701 307 757 q 358 626 307 653 q 514 568 408 599 q 678 512 615 539 q 788 434 742 485 q 833 304 833 383 q 775 121 833 193 q 624 16 717 49 q 421 -17 531 -17 m 499 1022 l 643 1206 l 817 1206 l 818 1201 l 639 1022 l 499 1022 z "},"Ꞌ":{"ha":285,"x_min":42,"x_max":328,"o":"m 42 288 l 158 953 l 328 953 l 301 796 l 147 288 l 42 288 z "},"Š":{"ha":926,"x_min":24,"x_max":882,"o":"m 24 0 m 421 -17 q 134 45 244 -17 q 24 226 24 107 q 35 306 24 264 l 214 306 q 206 256 206 272 q 258 165 206 197 q 406 133 311 133 q 587 170 526 133 q 647 271 647 207 q 619 336 647 310 q 547 379 590 363 q 431 418 504 396 q 271 474 332 447 q 167 549 210 500 q 124 676 124 599 q 177 838 124 772 q 320 937 231 904 q 518 969 410 969 q 782 913 682 969 q 882 746 882 857 q 875 676 882 717 l 700 676 q 704 711 704 696 q 657 791 704 763 q 528 819 610 819 q 367 788 426 819 q 307 701 307 757 q 358 626 307 653 q 514 568 408 599 q 678 512 615 539 q 788 434 742 485 q 833 304 833 383 q 775 121 833 193 q 624 16 717 49 q 421 -17 531 -17 m 494 1018 l 381 1206 l 518 1206 l 581 1106 l 671 1206 l 824 1206 l 644 1018 l 494 1018 z "},"Ş":{"ha":926,"x_min":24,"x_max":882,"o":"m 376 -253 q 233 -242 297 -253 l 246 -174 l 375 -174 q 424 -165 407 -174 q 440 -133 440 -156 q 428 -113 440 -119 q 389 -107 417 -107 l 328 -107 l 360 -14 q 115 57 207 -4 q 24 226 24 118 q 35 306 24 264 l 214 306 q 206 256 206 272 q 258 165 206 197 q 406 133 311 133 q 587 170 526 133 q 647 271 647 207 q 619 336 647 310 q 547 379 590 363 q 431 418 504 396 q 271 474 332 447 q 167 549 210 500 q 124 676 124 599 q 177 838 124 772 q 320 937 231 904 q 518 969 410 969 q 782 913 682 969 q 882 746 882 857 q 875 676 882 717 l 700 676 q 704 711 704 696 q 657 791 704 763 q 528 819 610 819 q 367 788 426 819 q 307 701 307 757 q 358 626 307 653 q 514 568 408 599 q 678 512 615 539 q 788 434 742 485 q 833 304 833 383 q 728 74 833 153 q 467 -14 624 -4 l 456 -47 q 541 -72 508 -50 q 574 -135 574 -93 q 513 -226 574 -200 q 376 -253 453 -253 z "},"Ŝ":{"ha":926,"x_min":24,"x_max":882,"o":"m 24 0 m 421 -17 q 134 45 244 -17 q 24 226 24 107 q 35 306 24 264 l 214 306 q 206 256 206 272 q 258 165 206 197 q 406 133 311 133 q 587 170 526 133 q 647 271 647 207 q 619 336 647 310 q 547 379 590 363 q 431 418 504 396 q 271 474 332 447 q 167 549 210 500 q 124 676 124 599 q 177 838 124 772 q 320 937 231 904 q 518 969 410 969 q 782 913 682 969 q 882 746 882 857 q 875 676 882 717 l 700 676 q 704 711 704 696 q 657 791 704 763 q 528 819 610 819 q 367 788 426 819 q 307 701 307 757 q 358 626 307 653 q 514 568 408 599 q 678 512 615 539 q 788 434 742 485 q 833 304 833 383 q 775 121 833 193 q 624 16 717 49 q 421 -17 531 -17 m 339 1018 l 518 1206 l 668 1206 l 782 1018 l 644 1018 l 583 1118 l 493 1018 l 339 1018 z "},"Ș":{"ha":926,"x_min":24,"x_max":882,"o":"m 24 0 m 421 -17 q 134 45 244 -17 q 24 226 24 107 q 35 306 24 264 l 214 306 q 206 256 206 272 q 258 165 206 197 q 406 133 311 133 q 587 170 526 133 q 647 271 647 207 q 619 336 647 310 q 547 379 590 363 q 431 418 504 396 q 271 474 332 447 q 167 549 210 500 q 124 676 124 599 q 177 838 124 772 q 320 937 231 904 q 518 969 410 969 q 782 913 682 969 q 882 746 882 857 q 875 676 882 717 l 700 676 q 704 711 704 696 q 657 791 704 763 q 528 819 610 819 q 367 788 426 819 q 307 701 307 757 q 358 626 307 653 q 514 568 408 599 q 678 512 615 539 q 788 434 742 485 q 833 304 833 383 q 775 121 833 193 q 624 16 717 49 q 421 -17 531 -17 m 261 -319 l 346 -197 l 282 -197 l 306 -64 l 474 -64 l 453 -183 l 350 -319 l 261 -319 z "},"Ṣ":{"ha":926,"x_min":24,"x_max":882,"o":"m 24 0 m 421 -17 q 134 45 244 -17 q 24 226 24 107 q 35 306 24 264 l 214 306 q 206 256 206 272 q 258 165 206 197 q 406 133 311 133 q 587 170 526 133 q 647 271 647 207 q 619 336 647 310 q 547 379 590 363 q 431 418 504 396 q 271 474 332 447 q 167 549 210 500 q 124 676 124 599 q 177 838 124 772 q 320 937 231 904 q 518 969 410 969 q 782 913 682 969 q 882 746 882 857 q 875 676 882 717 l 700 676 q 704 711 704 696 q 657 791 704 763 q 528 819 610 819 q 367 788 426 819 q 307 701 307 757 q 358 626 307 653 q 514 568 408 599 q 678 512 615 539 q 788 434 742 485 q 833 304 833 383 q 775 121 833 193 q 624 16 717 49 q 421 -17 531 -17 m 275 -240 l 304 -76 l 468 -76 l 439 -240 l 275 -240 z "},"ẞ":{"ha":1108,"x_min":17,"x_max":1017,"o":"m 115 557 q 288 864 150 758 q 640 969 426 969 q 838 940 753 969 q 970 853 924 910 q 1017 724 1017 797 q 968 580 1017 647 q 850 488 919 513 l 850 482 q 951 417 915 463 q 988 303 988 371 q 942 144 988 213 q 818 38 897 75 q 639 0 739 0 l 324 0 l 353 153 l 650 153 q 731 174 696 153 q 786 228 767 194 q 806 296 806 261 q 768 368 806 342 q 661 394 731 394 l 394 394 l 421 549 l 685 549 q 759 570 725 549 q 812 626 793 592 q 831 696 831 660 q 779 787 831 754 q 626 819 728 819 q 292 547 336 819 l 194 0 l 17 0 l 115 557 z "},"Ə":{"ha":1053,"x_min":64,"x_max":1015,"o":"m 465 -17 q 168 75 272 -17 q 64 335 64 167 q 75 449 64 385 l 88 522 l 828 522 q 835 597 835 567 q 770 769 835 713 q 575 825 706 825 q 373 775 450 825 q 279 624 296 725 l 106 624 q 286 900 139 815 q 604 969 406 969 q 907 871 799 969 q 1015 594 1015 772 q 972 342 1015 476 q 861 131 929 208 q 697 19 794 56 q 465 -17 600 -17 m 492 129 q 691 189 618 129 q 801 383 764 249 l 249 383 q 242 319 242 346 q 308 175 242 221 q 492 129 374 129 z "},"T":{"ha":849,"x_min":89,"x_max":906,"o":"m 254 0 l 396 800 l 89 800 l 117 953 l 906 953 l 879 800 l 572 800 l 432 0 l 254 0 z "},"Ŧ":{"ha":849,"x_min":89,"x_max":906,"o":"m 254 0 l 343 503 l 211 503 l 232 619 l 364 619 l 396 800 l 89 800 l 117 953 l 906 953 l 879 800 l 572 800 l 542 619 l 672 619 l 651 503 l 521 503 l 432 0 l 254 0 z "},"Ť":{"ha":849,"x_min":89,"x_max":906,"o":"m 89 0 m 254 0 l 396 800 l 89 800 l 117 953 l 906 953 l 879 800 l 572 800 l 432 0 l 254 0 m 442 1018 l 328 1206 l 465 1206 l 528 1106 l 618 1206 l 771 1206 l 592 1018 l 442 1018 z "},"Ţ":{"ha":849,"x_min":89,"x_max":906,"o":"m 906 953 l 879 800 l 572 800 l 432 0 l 394 0 l 379 -47 q 465 -72 432 -50 q 497 -135 497 -93 q 437 -226 497 -200 q 300 -253 376 -253 q 157 -242 221 -253 l 169 -174 l 299 -174 q 347 -165 331 -174 q 364 -133 364 -156 q 352 -113 364 -119 q 313 -107 340 -107 l 251 -107 l 288 0 l 254 0 l 396 800 l 89 800 l 117 953 l 906 953 z "},"Ț":{"ha":849,"x_min":89,"x_max":906,"o":"m 89 0 m 254 0 l 396 800 l 89 800 l 117 953 l 906 953 l 879 800 l 572 800 l 432 0 l 254 0 m 206 -319 l 290 -197 l 226 -197 l 250 -64 l 418 -64 l 397 -183 l 294 -319 l 206 -319 z "},"Ṭ":{"ha":849,"x_min":89,"x_max":906,"o":"m 89 0 m 254 0 l 396 800 l 89 800 l 117 953 l 906 953 l 879 800 l 572 800 l 432 0 l 254 0 m 219 -240 l 249 -76 l 413 -76 l 383 -240 l 219 -240 z "},"U":{"ha":1003,"x_min":78,"x_max":994,"o":"m 447 -17 q 174 58 269 -17 q 78 276 78 133 q 86 364 78 318 l 189 953 l 367 953 l 263 361 q 256 301 256 326 q 304 176 256 219 q 447 133 353 133 q 623 190 554 133 q 711 357 692 247 l 817 953 l 994 953 l 889 353 q 447 -17 822 -17 z "},"Ú":{"ha":1003,"x_min":78,"x_max":994,"o":"m 78 0 m 447 -17 q 174 58 269 -17 q 78 276 78 133 q 86 364 78 318 l 189 953 l 367 953 l 263 361 q 256 301 256 326 q 304 176 256 219 q 447 133 353 133 q 623 190 554 133 q 711 357 692 247 l 817 953 l 994 953 l 889 353 q 447 -17 822 -17 m 542 1022 l 686 1206 l 860 1206 l 861 1201 l 682 1022 l 542 1022 z "},"Ŭ":{"ha":1003,"x_min":78,"x_max":994,"o":"m 78 0 m 447 -17 q 174 58 269 -17 q 78 276 78 133 q 86 364 78 318 l 189 953 l 367 953 l 263 361 q 256 301 256 326 q 304 176 256 219 q 447 133 353 133 q 623 190 554 133 q 711 357 692 247 l 817 953 l 994 953 l 889 353 q 447 -17 822 -17 m 613 1025 q 458 1067 506 1025 q 411 1172 411 1108 q 414 1206 411 1194 l 525 1206 q 545 1156 525 1176 q 615 1136 565 1136 q 696 1158 664 1136 q 736 1206 728 1179 l 847 1206 q 819 1133 839 1168 q 765 1071 799 1097 q 613 1025 703 1025 z "},"Ǔ":{"ha":1003,"x_min":78,"x_max":994,"o":"m 78 0 m 447 -17 q 174 58 269 -17 q 78 276 78 133 q 86 364 78 318 l 189 953 l 367 953 l 263 361 q 256 301 256 326 q 304 176 256 219 q 447 133 353 133 q 623 190 554 133 q 711 357 692 247 l 817 953 l 994 953 l 889 353 q 447 -17 822 -17 m 538 1018 l 424 1206 l 561 1206 l 624 1106 l 714 1206 l 867 1206 l 688 1018 l 538 1018 z "},"Û":{"ha":1003,"x_min":78,"x_max":994,"o":"m 78 0 m 447 -17 q 174 58 269 -17 q 78 276 78 133 q 86 364 78 318 l 189 953 l 367 953 l 263 361 q 256 301 256 326 q 304 176 256 219 q 447 133 353 133 q 623 190 554 133 q 711 357 692 247 l 817 953 l 994 953 l 889 353 q 447 -17 822 -17 m 382 1018 l 561 1206 l 711 1206 l 825 1018 l 688 1018 l 626 1118 l 536 1018 l 382 1018 z "},"Ȕ":{"ha":1003,"x_min":78,"x_max":994,"o":"m 78 0 m 447 -17 q 174 58 269 -17 q 78 276 78 133 q 86 364 78 318 l 189 953 l 367 953 l 263 361 q 256 301 256 326 q 304 176 256 219 q 447 133 353 133 q 623 190 554 133 q 711 357 692 247 l 817 953 l 994 953 l 889 353 q 447 -17 822 -17 m 460 1022 l 353 1201 l 356 1206 l 522 1206 l 592 1022 l 460 1022 m 685 1022 l 578 1201 l 581 1206 l 749 1206 l 817 1022 l 685 1022 z "},"Ü":{"ha":1003,"x_min":78,"x_max":994,"o":"m 78 0 m 447 -17 q 174 58 269 -17 q 78 276 78 133 q 86 364 78 318 l 189 953 l 367 953 l 263 361 q 256 301 256 326 q 304 176 256 219 q 447 133 353 133 q 623 190 554 133 q 711 357 692 247 l 817 953 l 994 953 l 889 353 q 447 -17 822 -17 m 404 1053 l 431 1206 l 579 1206 l 553 1053 l 404 1053 m 683 1053 l 711 1206 l 861 1206 l 833 1053 l 683 1053 z "},"Ǘ":{"ha":1003,"x_min":78,"x_max":994,"o":"m 78 0 m 447 -17 q 174 58 269 -17 q 78 276 78 133 q 86 364 78 318 l 189 953 l 367 953 l 263 361 q 256 301 256 326 q 304 176 256 219 q 447 133 353 133 q 623 190 554 133 q 711 357 692 247 l 817 953 l 994 953 l 889 353 q 447 -17 822 -17 m 404 1053 l 431 1206 l 579 1206 l 553 1053 l 404 1053 m 683 1053 l 711 1206 l 861 1206 l 833 1053 l 683 1053 m 583 1254 l 728 1438 l 901 1438 l 903 1433 l 724 1254 l 583 1254 z "},"Ǚ":{"ha":1003,"x_min":78,"x_max":994,"o":"m 78 0 m 447 -17 q 174 58 269 -17 q 78 276 78 133 q 86 364 78 318 l 189 953 l 367 953 l 263 361 q 256 301 256 326 q 304 176 256 219 q 447 133 353 133 q 623 190 554 133 q 711 357 692 247 l 817 953 l 994 953 l 889 353 q 447 -17 822 -17 m 404 1053 l 431 1206 l 579 1206 l 553 1053 l 404 1053 m 683 1053 l 711 1206 l 861 1206 l 833 1053 l 683 1053 m 579 1250 l 465 1438 l 603 1438 l 665 1338 l 756 1438 l 908 1438 l 729 1250 l 579 1250 z "},"Ǜ":{"ha":1003,"x_min":78,"x_max":994,"o":"m 78 0 m 447 -17 q 174 58 269 -17 q 78 276 78 133 q 86 364 78 318 l 189 953 l 367 953 l 263 361 q 256 301 256 326 q 304 176 256 219 q 447 133 353 133 q 623 190 554 133 q 711 357 692 247 l 817 953 l 994 953 l 889 353 q 447 -17 822 -17 m 404 1053 l 431 1206 l 579 1206 l 553 1053 l 404 1053 m 683 1053 l 711 1206 l 861 1206 l 833 1053 l 683 1053 m 592 1254 l 474 1433 l 475 1438 l 638 1438 l 718 1254 l 592 1254 z "},"Ǖ":{"ha":1003,"x_min":78,"x_max":994,"o":"m 78 0 m 447 -17 q 174 58 269 -17 q 78 276 78 133 q 86 364 78 318 l 189 953 l 367 953 l 263 361 q 256 301 256 326 q 304 176 256 219 q 447 133 353 133 q 623 190 554 133 q 711 357 692 247 l 817 953 l 994 953 l 889 353 q 447 -17 822 -17 m 404 1053 l 431 1206 l 579 1206 l 553 1053 l 404 1053 m 683 1053 l 711 1206 l 861 1206 l 833 1053 l 683 1053 m 450 1290 l 471 1404 l 894 1404 l 874 1290 l 450 1290 z "},"Ụ":{"ha":1003,"x_min":78,"x_max":994,"o":"m 78 0 m 447 -17 q 174 58 269 -17 q 78 276 78 133 q 86 364 78 318 l 189 953 l 367 953 l 263 361 q 256 301 256 326 q 304 176 256 219 q 447 133 353 133 q 623 190 554 133 q 711 357 692 247 l 817 953 l 994 953 l 889 353 q 447 -17 822 -17 m 313 -240 l 342 -76 l 506 -76 l 476 -240 l 313 -240 z "},"Ù":{"ha":1003,"x_min":78,"x_max":994,"o":"m 78 0 m 447 -17 q 174 58 269 -17 q 78 276 78 133 q 86 364 78 318 l 189 953 l 367 953 l 263 361 q 256 301 256 326 q 304 176 256 219 q 447 133 353 133 q 623 190 554 133 q 711 357 692 247 l 817 953 l 994 953 l 889 353 q 447 -17 822 -17 m 550 1022 l 432 1201 l 433 1206 l 596 1206 l 676 1022 l 550 1022 z "},"Ủ":{"ha":1003,"x_min":78,"x_max":994,"o":"m 78 0 m 447 -17 q 174 58 269 -17 q 78 276 78 133 q 86 364 78 318 l 189 953 l 367 953 l 263 361 q 256 301 256 326 q 304 176 256 219 q 447 133 353 133 q 623 190 554 133 q 711 357 692 247 l 817 953 l 994 953 l 889 353 q 447 -17 822 -17 m 583 1100 l 603 1100 q 639 1108 628 1100 q 650 1132 650 1115 q 640 1149 650 1144 q 607 1153 629 1153 l 526 1153 l 536 1211 q 649 1222 589 1222 q 744 1206 703 1222 q 785 1151 785 1190 q 750 1085 785 1108 q 665 1058 715 1063 l 658 1022 l 569 1022 l 583 1100 z "},"Ư":{"ha":1003,"x_min":78,"x_max":1193,"o":"m 1193 1206 l 1179 1131 q 1113 960 1161 1025 q 978 861 1064 894 l 889 353 q 447 -17 822 -17 q 174 58 269 -17 q 78 276 78 133 q 86 364 78 318 l 189 953 l 367 953 l 263 361 q 256 301 256 326 q 304 176 256 219 q 447 133 353 133 q 623 190 554 133 q 711 357 692 247 l 817 953 l 972 953 q 1049 1029 1024 979 l 974 1029 l 1006 1206 l 1193 1206 z "},"Ứ":{"ha":1003,"x_min":78,"x_max":1193,"o":"m 78 0 m 1193 1206 l 1179 1131 q 1113 960 1161 1025 q 978 861 1064 894 l 889 353 q 447 -17 822 -17 q 174 58 269 -17 q 78 276 78 133 q 86 364 78 318 l 189 953 l 367 953 l 263 361 q 256 301 256 326 q 304 176 256 219 q 447 133 353 133 q 623 190 554 133 q 711 357 692 247 l 817 953 l 972 953 q 1049 1029 1024 979 l 974 1029 l 1006 1206 l 1193 1206 m 542 1022 l 686 1206 l 860 1206 l 861 1201 l 682 1022 l 542 1022 z "},"Ự":{"ha":1003,"x_min":78,"x_max":1193,"o":"m 78 0 m 1193 1206 l 1179 1131 q 1113 960 1161 1025 q 978 861 1064 894 l 889 353 q 447 -17 822 -17 q 174 58 269 -17 q 78 276 78 133 q 86 364 78 318 l 189 953 l 367 953 l 263 361 q 256 301 256 326 q 304 176 256 219 q 447 133 353 133 q 623 190 554 133 q 711 357 692 247 l 817 953 l 972 953 q 1049 1029 1024 979 l 974 1029 l 1006 1206 l 1193 1206 m 313 -240 l 342 -76 l 506 -76 l 476 -240 l 313 -240 z "},"Ừ":{"ha":1003,"x_min":78,"x_max":1193,"o":"m 78 0 m 1193 1206 l 1179 1131 q 1113 960 1161 1025 q 978 861 1064 894 l 889 353 q 447 -17 822 -17 q 174 58 269 -17 q 78 276 78 133 q 86 364 78 318 l 189 953 l 367 953 l 263 361 q 256 301 256 326 q 304 176 256 219 q 447 133 353 133 q 623 190 554 133 q 711 357 692 247 l 817 953 l 972 953 q 1049 1029 1024 979 l 974 1029 l 1006 1206 l 1193 1206 m 550 1022 l 432 1201 l 433 1206 l 596 1206 l 676 1022 l 550 1022 z "},"Ử":{"ha":1003,"x_min":78,"x_max":1193,"o":"m 78 0 m 1193 1206 l 1179 1131 q 1113 960 1161 1025 q 978 861 1064 894 l 889 353 q 447 -17 822 -17 q 174 58 269 -17 q 78 276 78 133 q 86 364 78 318 l 189 953 l 367 953 l 263 361 q 256 301 256 326 q 304 176 256 219 q 447 133 353 133 q 623 190 554 133 q 711 357 692 247 l 817 953 l 972 953 q 1049 1029 1024 979 l 974 1029 l 1006 1206 l 1193 1206 m 583 1100 l 603 1100 q 639 1108 628 1100 q 650 1132 650 1115 q 640 1149 650 1144 q 607 1153 629 1153 l 526 1153 l 536 1211 q 649 1222 589 1222 q 744 1206 703 1222 q 785 1151 785 1190 q 750 1085 785 1108 q 665 1058 715 1063 l 658 1022 l 569 1022 l 583 1100 z "},"Ữ":{"ha":1003,"x_min":78,"x_max":1193,"o":"m 78 0 m 1193 1206 l 1179 1131 q 1113 960 1161 1025 q 978 861 1064 894 l 889 353 q 447 -17 822 -17 q 174 58 269 -17 q 78 276 78 133 q 86 364 78 318 l 189 953 l 367 953 l 263 361 q 256 301 256 326 q 304 176 256 219 q 447 133 353 133 q 623 190 554 133 q 711 357 692 247 l 817 953 l 972 953 q 1049 1029 1024 979 l 974 1029 l 1006 1206 l 1193 1206 m 388 1044 q 438 1160 399 1114 q 539 1206 476 1206 q 638 1181 579 1206 q 728 1157 693 1157 q 782 1206 767 1157 l 876 1206 q 825 1090 864 1135 q 722 1044 786 1044 q 675 1051 697 1044 q 625 1069 653 1057 q 577 1087 597 1081 q 535 1093 557 1093 q 481 1044 496 1093 l 388 1044 z "},"Ű":{"ha":1003,"x_min":78,"x_max":994,"o":"m 78 0 m 447 -17 q 174 58 269 -17 q 78 276 78 133 q 86 364 78 318 l 189 953 l 367 953 l 263 361 q 256 301 256 326 q 304 176 256 219 q 447 133 353 133 q 623 190 554 133 q 711 357 692 247 l 817 953 l 994 953 l 889 353 q 447 -17 822 -17 m 429 1022 l 561 1206 l 735 1206 l 736 1201 l 565 1022 l 429 1022 m 660 1022 l 793 1206 l 965 1206 l 967 1201 l 797 1022 l 660 1022 z "},"Ȗ":{"ha":1003,"x_min":78,"x_max":994,"o":"m 78 0 m 447 -17 q 174 58 269 -17 q 78 276 78 133 q 86 364 78 318 l 189 953 l 367 953 l 263 361 q 256 301 256 326 q 304 176 256 219 q 447 133 353 133 q 623 190 554 133 q 711 357 692 247 l 817 953 l 994 953 l 889 353 q 447 -17 822 -17 m 397 1025 q 467 1153 410 1101 q 644 1206 524 1206 q 783 1160 733 1206 q 832 1050 832 1114 q 829 1025 832 1042 l 719 1025 q 698 1073 721 1051 q 625 1094 675 1094 q 547 1074 575 1094 q 508 1025 518 1053 l 397 1025 z "},"Ū":{"ha":1003,"x_min":78,"x_max":994,"o":"m 78 0 m 447 -17 q 174 58 269 -17 q 78 276 78 133 q 86 364 78 318 l 189 953 l 367 953 l 263 361 q 256 301 256 326 q 304 176 256 219 q 447 133 353 133 q 623 190 554 133 q 711 357 692 247 l 817 953 l 994 953 l 889 353 q 447 -17 822 -17 m 408 1058 l 429 1172 l 853 1172 l 832 1058 l 408 1058 z "},"Ų":{"ha":1003,"x_min":78,"x_max":994,"o":"m 493 -253 q 404 -227 440 -253 q 368 -147 368 -201 q 431 -17 368 -76 q 169 61 260 -12 q 78 276 78 135 q 86 364 78 318 l 189 953 l 367 953 l 263 361 q 256 301 256 326 q 304 176 256 219 q 447 133 353 133 q 623 190 554 133 q 711 357 692 247 l 817 953 l 994 953 l 889 353 q 557 -6 833 42 q 510 -104 510 -56 q 568 -158 510 -158 l 606 -158 l 592 -233 q 493 -253 536 -253 z "},"Ů":{"ha":1003,"x_min":78,"x_max":994,"o":"m 78 0 m 447 -17 q 174 58 269 -17 q 78 276 78 133 q 86 364 78 318 l 189 953 l 367 953 l 263 361 q 256 301 256 326 q 304 176 256 219 q 447 133 353 133 q 623 190 554 133 q 711 357 692 247 l 817 953 l 994 953 l 889 353 q 447 -17 822 -17 m 608 978 q 519 1010 553 978 q 486 1093 486 1043 q 530 1208 486 1161 q 643 1254 574 1254 q 733 1222 700 1254 q 765 1138 765 1189 q 722 1024 765 1069 q 608 978 678 978 m 615 1051 q 669 1074 647 1051 q 692 1128 692 1096 q 676 1166 692 1151 q 636 1181 661 1181 q 582 1158 603 1181 q 561 1103 561 1135 q 576 1066 561 1081 q 615 1051 590 1051 z "},"Ũ":{"ha":1003,"x_min":78,"x_max":994,"o":"m 78 0 m 447 -17 q 174 58 269 -17 q 78 276 78 133 q 86 364 78 318 l 189 953 l 367 953 l 263 361 q 256 301 256 326 q 304 176 256 219 q 447 133 353 133 q 623 190 554 133 q 711 357 692 247 l 817 953 l 994 953 l 889 353 q 447 -17 822 -17 m 388 1044 q 438 1160 399 1114 q 539 1206 476 1206 q 638 1181 579 1206 q 728 1157 693 1157 q 782 1206 767 1157 l 876 1206 q 825 1090 864 1135 q 722 1044 786 1044 q 675 1051 697 1044 q 625 1069 653 1057 q 577 1087 597 1081 q 535 1093 557 1093 q 481 1044 496 1093 l 388 1044 z "},"V":{"ha":926,"x_min":101,"x_max":1004,"o":"m 101 953 l 283 953 l 386 368 q 397 309 392 340 q 406 251 401 278 l 414 199 l 421 199 l 443 243 q 472 301 456 268 q 506 365 489 335 l 814 953 l 1004 953 l 488 0 l 281 0 l 101 953 z "},"W":{"ha":1311,"x_min":94,"x_max":1389,"o":"m 94 953 l 264 953 l 315 336 q 319 264 318 313 q 321 199 321 215 l 328 199 q 349 266 333 215 q 374 336 365 317 l 625 953 l 850 953 l 886 336 q 889 256 889 297 q 889 199 889 214 l 896 199 q 918 262 901 214 q 946 336 935 310 l 1210 953 l 1389 953 l 961 0 l 750 0 l 711 628 q 708 713 708 672 q 707 769 707 754 l 701 769 q 681 705 697 754 q 654 628 665 656 l 390 0 l 179 0 l 94 953 z "},"Ẃ":{"ha":1311,"x_min":94,"x_max":1389,"o":"m 94 0 m 94 953 l 264 953 l 315 336 q 319 264 318 313 q 321 199 321 215 l 328 199 q 349 266 333 215 q 374 336 365 317 l 625 953 l 850 953 l 886 336 q 889 256 889 297 q 889 199 889 214 l 896 199 q 918 262 901 214 q 946 336 935 310 l 1210 953 l 1389 953 l 961 0 l 750 0 l 711 628 q 708 713 708 672 q 707 769 707 754 l 701 769 q 681 705 697 754 q 654 628 665 656 l 390 0 l 179 0 l 94 953 m 696 1022 l 840 1206 l 1014 1206 l 1015 1201 l 836 1022 l 696 1022 z "},"Ŵ":{"ha":1311,"x_min":94,"x_max":1389,"o":"m 94 0 m 94 953 l 264 953 l 315 336 q 319 264 318 313 q 321 199 321 215 l 328 199 q 349 266 333 215 q 374 336 365 317 l 625 953 l 850 953 l 886 336 q 889 256 889 297 q 889 199 889 214 l 896 199 q 918 262 901 214 q 946 336 935 310 l 1210 953 l 1389 953 l 961 0 l 750 0 l 711 628 q 708 713 708 672 q 707 769 707 754 l 701 769 q 681 705 697 754 q 654 628 665 656 l 390 0 l 179 0 l 94 953 m 536 1018 l 715 1206 l 865 1206 l 979 1018 l 842 1018 l 781 1118 l 690 1018 l 536 1018 z "},"Ẅ":{"ha":1311,"x_min":94,"x_max":1389,"o":"m 94 0 m 94 953 l 264 953 l 315 336 q 319 264 318 313 q 321 199 321 215 l 328 199 q 349 266 333 215 q 374 336 365 317 l 625 953 l 850 953 l 886 336 q 889 256 889 297 q 889 199 889 214 l 896 199 q 918 262 901 214 q 946 336 935 310 l 1210 953 l 1389 953 l 961 0 l 750 0 l 711 628 q 708 713 708 672 q 707 769 707 754 l 701 769 q 681 705 697 754 q 654 628 665 656 l 390 0 l 179 0 l 94 953 m 558 1053 l 585 1206 l 733 1206 l 707 1053 l 558 1053 m 838 1053 l 865 1206 l 1015 1206 l 988 1053 l 838 1053 z "},"Ẁ":{"ha":1311,"x_min":94,"x_max":1389,"o":"m 94 0 m 94 953 l 264 953 l 315 336 q 319 264 318 313 q 321 199 321 215 l 328 199 q 349 266 333 215 q 374 336 365 317 l 625 953 l 850 953 l 886 336 q 889 256 889 297 q 889 199 889 214 l 896 199 q 918 262 901 214 q 946 336 935 310 l 1210 953 l 1389 953 l 961 0 l 750 0 l 711 628 q 708 713 708 672 q 707 769 707 754 l 701 769 q 681 705 697 754 q 654 628 665 656 l 390 0 l 179 0 l 94 953 m 704 1022 l 586 1201 l 588 1206 l 750 1206 l 831 1022 l 704 1022 z "},"X":{"ha":926,"x_min":-81,"x_max":974,"o":"m -81 0 l 363 506 l 117 953 l 318 953 l 482 642 l 489 642 l 757 953 l 974 953 l 569 493 l 839 0 l 638 0 l 451 354 l 443 354 l 136 0 l -81 0 z "},"Y":{"ha":926,"x_min":93,"x_max":1004,"o":"m 293 0 l 361 388 l 93 953 l 278 953 l 471 546 l 478 546 l 807 953 l 1004 953 l 539 388 l 471 0 l 293 0 z "},"Ý":{"ha":926,"x_min":93,"x_max":1004,"o":"m 93 0 m 293 0 l 361 388 l 93 953 l 278 953 l 471 546 l 478 546 l 807 953 l 1004 953 l 539 388 l 471 0 l 293 0 m 503 1022 l 647 1206 l 821 1206 l 822 1201 l 643 1022 l 503 1022 z "},"Ŷ":{"ha":926,"x_min":93,"x_max":1004,"o":"m 93 0 m 293 0 l 361 388 l 93 953 l 278 953 l 471 546 l 478 546 l 807 953 l 1004 953 l 539 388 l 471 0 l 293 0 m 343 1018 l 522 1206 l 672 1206 l 786 1018 l 649 1018 l 588 1118 l 497 1018 l 343 1018 z "},"Ÿ":{"ha":926,"x_min":93,"x_max":1004,"o":"m 93 0 m 293 0 l 361 388 l 93 953 l 278 953 l 471 546 l 478 546 l 807 953 l 1004 953 l 539 388 l 471 0 l 293 0 m 365 1053 l 392 1206 l 540 1206 l 514 1053 l 365 1053 m 644 1053 l 672 1206 l 822 1206 l 794 1053 l 644 1053 z "},"Ỵ":{"ha":926,"x_min":93,"x_max":1004,"o":"m 93 0 m 293 0 l 361 388 l 93 953 l 278 953 l 471 546 l 478 546 l 807 953 l 1004 953 l 539 388 l 471 0 l 293 0 m 257 -240 l 286 -76 l 450 -76 l 421 -240 l 257 -240 z "},"Ỳ":{"ha":926,"x_min":93,"x_max":1004,"o":"m 93 0 m 293 0 l 361 388 l 93 953 l 278 953 l 471 546 l 478 546 l 807 953 l 1004 953 l 539 388 l 471 0 l 293 0 m 511 1022 l 393 1201 l 394 1206 l 557 1206 l 638 1022 l 511 1022 z "},"Ỷ":{"ha":926,"x_min":93,"x_max":1004,"o":"m 93 0 m 293 0 l 361 388 l 93 953 l 278 953 l 471 546 l 478 546 l 807 953 l 1004 953 l 539 388 l 471 0 l 293 0 m 544 1100 l 564 1100 q 600 1108 589 1100 q 611 1132 611 1115 q 601 1149 611 1144 q 568 1153 590 1153 l 488 1153 l 497 1211 q 610 1222 550 1222 q 705 1206 664 1222 q 746 1151 746 1190 q 711 1085 746 1108 q 626 1058 676 1063 l 619 1022 l 531 1022 l 544 1100 z "},"Ȳ":{"ha":926,"x_min":93,"x_max":1004,"o":"m 93 0 m 293 0 l 361 388 l 93 953 l 278 953 l 471 546 l 478 546 l 807 953 l 1004 953 l 539 388 l 471 0 l 293 0 m 369 1058 l 390 1172 l 814 1172 l 793 1058 l 369 1058 z "},"Ỹ":{"ha":926,"x_min":93,"x_max":1004,"o":"m 93 0 m 293 0 l 361 388 l 93 953 l 278 953 l 471 546 l 478 546 l 807 953 l 1004 953 l 539 388 l 471 0 l 293 0 m 349 1044 q 399 1160 360 1114 q 500 1206 438 1206 q 599 1181 540 1206 q 689 1157 654 1157 q 743 1206 728 1157 l 838 1206 q 786 1090 825 1135 q 683 1044 747 1044 q 636 1051 658 1044 q 586 1069 614 1057 q 538 1087 558 1081 q 496 1093 518 1093 q 442 1044 457 1093 l 349 1044 z "},"Z":{"ha":849,"x_min":-53,"x_max":890,"o":"m -53 0 l -37 85 l 588 801 l 124 801 l 150 953 l 890 953 l 875 867 l 250 151 l 763 151 l 735 0 l -53 0 z "},"Ź":{"ha":849,"x_min":-53,"x_max":890,"o":"m 0 0 m -53 0 l -37 85 l 588 801 l 124 801 l 150 953 l 890 953 l 875 867 l 250 151 l 763 151 l 735 0 l -53 0 m 446 1022 l 590 1206 l 764 1206 l 765 1201 l 586 1022 l 446 1022 z "},"Ž":{"ha":849,"x_min":-53,"x_max":890,"o":"m 0 0 m -53 0 l -37 85 l 588 801 l 124 801 l 150 953 l 890 953 l 875 867 l 250 151 l 763 151 l 735 0 l -53 0 m 442 1018 l 328 1206 l 465 1206 l 528 1106 l 618 1206 l 771 1206 l 592 1018 l 442 1018 z "},"Ż":{"ha":849,"x_min":-53,"x_max":890,"o":"m 0 0 m -53 0 l -37 85 l 588 801 l 124 801 l 150 953 l 890 953 l 875 867 l 250 151 l 763 151 l 735 0 l -53 0 m 438 1043 l 467 1207 l 631 1207 l 601 1043 l 438 1043 z "},"Ẓ":{"ha":849,"x_min":-53,"x_max":890,"o":"m 0 0 m -53 0 l -37 85 l 588 801 l 124 801 l 150 953 l 890 953 l 875 867 l 250 151 l 763 151 l 735 0 l -53 0 m 236 -240 l 265 -76 l 429 -76 l 400 -240 l 236 -240 z "},"a":{"ha":804,"x_min":25,"x_max":753,"o":"m 651 157 q 692 119 651 119 l 738 119 l 717 6 q 611 -17 675 -17 q 524 15 557 -17 q 492 103 492 47 l 485 103 q 388 15 447 46 q 261 -17 328 -17 q 88 56 151 -17 q 25 264 25 128 q 64 496 25 385 q 178 677 103 607 q 360 747 254 747 q 484 722 435 747 q 564 646 533 697 l 572 646 l 615 731 l 753 731 q 720 548 735 629 q 694 403 706 467 q 651 157 651 171 m 319 126 q 440 181 393 126 q 509 311 488 235 q 531 457 531 388 q 403 608 531 608 q 285 557 331 608 q 219 429 239 506 q 199 274 199 353 q 228 163 199 200 q 319 126 257 126 z "},"á":{"ha":804,"x_min":25,"x_max":753,"o":"m 25 0 m 651 157 q 692 119 651 119 l 738 119 l 717 6 q 611 -17 675 -17 q 524 15 557 -17 q 492 103 492 47 l 485 103 q 388 15 447 46 q 261 -17 328 -17 q 88 56 151 -17 q 25 264 25 128 q 64 496 25 385 q 178 677 103 607 q 360 747 254 747 q 484 722 435 747 q 564 646 533 697 l 572 646 l 615 731 l 753 731 q 720 548 735 629 q 694 403 706 467 q 651 157 651 171 m 319 126 q 440 181 393 126 q 509 311 488 235 q 531 457 531 388 q 403 608 531 608 q 285 557 331 608 q 219 429 239 506 q 199 274 199 353 q 228 163 199 200 q 319 126 257 126 m 351 821 l 496 1004 l 669 1004 l 671 1000 l 492 821 l 351 821 z "},"ă":{"ha":804,"x_min":25,"x_max":753,"o":"m 25 0 m 651 157 q 692 119 651 119 l 738 119 l 717 6 q 611 -17 675 -17 q 524 15 557 -17 q 492 103 492 47 l 485 103 q 388 15 447 46 q 261 -17 328 -17 q 88 56 151 -17 q 25 264 25 128 q 64 496 25 385 q 178 677 103 607 q 360 747 254 747 q 484 722 435 747 q 564 646 533 697 l 572 646 l 615 731 l 753 731 q 720 548 735 629 q 694 403 706 467 q 651 157 651 171 m 319 126 q 440 181 393 126 q 509 311 488 235 q 531 457 531 388 q 403 608 531 608 q 285 557 331 608 q 219 429 239 506 q 199 274 199 353 q 228 163 199 200 q 319 126 257 126 m 422 824 q 268 865 315 824 q 221 971 221 907 q 224 1004 221 993 l 335 1004 q 355 955 335 975 q 425 935 375 935 q 506 956 474 935 q 546 1004 538 978 l 657 1004 q 628 931 649 967 q 575 869 608 896 q 422 824 513 824 z "},"ắ":{"ha":804,"x_min":25,"x_max":753,"o":"m 25 0 m 651 157 q 692 119 651 119 l 738 119 l 717 6 q 611 -17 675 -17 q 524 15 557 -17 q 492 103 492 47 l 485 103 q 388 15 447 46 q 261 -17 328 -17 q 88 56 151 -17 q 25 264 25 128 q 64 496 25 385 q 178 677 103 607 q 360 747 254 747 q 484 722 435 747 q 564 646 533 697 l 572 646 l 615 731 l 753 731 q 720 548 735 629 q 694 403 706 467 q 651 157 651 171 m 319 126 q 440 181 393 126 q 509 311 488 235 q 531 457 531 388 q 403 608 531 608 q 285 557 331 608 q 219 429 239 506 q 199 274 199 353 q 228 163 199 200 q 319 126 257 126 m 422 824 q 268 865 315 824 q 221 971 221 907 q 224 1004 221 993 l 335 1004 q 355 955 335 975 q 425 935 375 935 q 506 956 474 935 q 546 1004 538 978 l 657 1004 q 628 931 649 967 q 575 869 608 896 q 422 824 513 824 m 360 1004 l 504 1188 l 678 1188 l 679 1183 l 500 1004 l 360 1004 z "},"ặ":{"ha":804,"x_min":25,"x_max":753,"o":"m 25 0 m 651 157 q 692 119 651 119 l 738 119 l 717 6 q 611 -17 675 -17 q 524 15 557 -17 q 492 103 492 47 l 485 103 q 388 15 447 46 q 261 -17 328 -17 q 88 56 151 -17 q 25 264 25 128 q 64 496 25 385 q 178 677 103 607 q 360 747 254 747 q 484 722 435 747 q 564 646 533 697 l 572 646 l 615 731 l 753 731 q 720 548 735 629 q 694 403 706 467 q 651 157 651 171 m 319 126 q 440 181 393 126 q 509 311 488 235 q 531 457 531 388 q 403 608 531 608 q 285 557 331 608 q 219 429 239 506 q 199 274 199 353 q 228 163 199 200 q 319 126 257 126 m 422 824 q 268 865 315 824 q 221 971 221 907 q 224 1004 221 993 l 335 1004 q 355 955 335 975 q 425 935 375 935 q 506 956 474 935 q 546 1004 538 978 l 657 1004 q 628 931 649 967 q 575 869 608 896 q 422 824 513 824 m 165 -240 l 194 -76 l 358 -76 l 329 -240 l 165 -240 z "},"ằ":{"ha":804,"x_min":25,"x_max":753,"o":"m 25 0 m 651 157 q 692 119 651 119 l 738 119 l 717 6 q 611 -17 675 -17 q 524 15 557 -17 q 492 103 492 47 l 485 103 q 388 15 447 46 q 261 -17 328 -17 q 88 56 151 -17 q 25 264 25 128 q 64 496 25 385 q 178 677 103 607 q 360 747 254 747 q 484 722 435 747 q 564 646 533 697 l 572 646 l 615 731 l 753 731 q 720 548 735 629 q 694 403 706 467 q 651 157 651 171 m 319 126 q 440 181 393 126 q 509 311 488 235 q 531 457 531 388 q 403 608 531 608 q 285 557 331 608 q 219 429 239 506 q 199 274 199 353 q 228 163 199 200 q 319 126 257 126 m 422 824 q 268 865 315 824 q 221 971 221 907 q 224 1004 221 993 l 335 1004 q 355 955 335 975 q 425 935 375 935 q 506 956 474 935 q 546 1004 538 978 l 657 1004 q 628 931 649 967 q 575 869 608 896 q 422 824 513 824 m 408 1004 l 290 1183 l 292 1188 l 454 1188 l 535 1004 l 408 1004 z "},"ẳ":{"ha":804,"x_min":25,"x_max":753,"o":"m 25 0 m 651 157 q 692 119 651 119 l 738 119 l 717 6 q 611 -17 675 -17 q 524 15 557 -17 q 492 103 492 47 l 485 103 q 388 15 447 46 q 261 -17 328 -17 q 88 56 151 -17 q 25 264 25 128 q 64 496 25 385 q 178 677 103 607 q 360 747 254 747 q 484 722 435 747 q 564 646 533 697 l 572 646 l 615 731 l 753 731 q 720 548 735 629 q 694 403 706 467 q 651 157 651 171 m 319 126 q 440 181 393 126 q 509 311 488 235 q 531 457 531 388 q 403 608 531 608 q 285 557 331 608 q 219 429 239 506 q 199 274 199 353 q 228 163 199 200 q 319 126 257 126 m 422 824 q 268 865 315 824 q 221 971 221 907 q 224 1004 221 993 l 335 1004 q 355 955 335 975 q 425 935 375 935 q 506 956 474 935 q 546 1004 538 978 l 657 1004 q 628 931 649 967 q 575 869 608 896 q 422 824 513 824 m 400 1082 l 419 1082 q 456 1090 444 1082 q 467 1114 467 1097 q 456 1131 467 1126 q 424 1135 446 1135 l 343 1135 l 353 1193 q 465 1204 406 1204 q 560 1188 519 1204 q 601 1133 601 1172 q 567 1067 601 1090 q 482 1040 532 1044 l 475 1004 l 386 1004 l 400 1082 z "},"ẵ":{"ha":804,"x_min":25,"x_max":753,"o":"m 25 0 m 651 157 q 692 119 651 119 l 738 119 l 717 6 q 611 -17 675 -17 q 524 15 557 -17 q 492 103 492 47 l 485 103 q 388 15 447 46 q 261 -17 328 -17 q 88 56 151 -17 q 25 264 25 128 q 64 496 25 385 q 178 677 103 607 q 360 747 254 747 q 484 722 435 747 q 564 646 533 697 l 572 646 l 615 731 l 753 731 q 720 548 735 629 q 694 403 706 467 q 651 157 651 171 m 319 126 q 440 181 393 126 q 509 311 488 235 q 531 457 531 388 q 403 608 531 608 q 285 557 331 608 q 219 429 239 506 q 199 274 199 353 q 228 163 199 200 q 319 126 257 126 m 422 824 q 268 865 315 824 q 221 971 221 907 q 224 1004 221 993 l 335 1004 q 355 955 335 975 q 425 935 375 935 q 506 956 474 935 q 546 1004 538 978 l 657 1004 q 628 931 649 967 q 575 869 608 896 q 422 824 513 824 m 217 1065 q 267 1181 228 1135 q 368 1226 306 1226 q 467 1201 408 1226 q 557 1178 522 1178 q 611 1226 596 1178 l 706 1226 q 654 1110 693 1156 q 551 1065 615 1065 q 504 1072 526 1065 q 454 1090 482 1078 q 406 1108 426 1101 q 364 1114 386 1114 q 310 1065 325 1114 l 217 1065 z "},"ǎ":{"ha":804,"x_min":25,"x_max":753,"o":"m 25 0 m 651 157 q 692 119 651 119 l 738 119 l 717 6 q 611 -17 675 -17 q 524 15 557 -17 q 492 103 492 47 l 485 103 q 388 15 447 46 q 261 -17 328 -17 q 88 56 151 -17 q 25 264 25 128 q 64 496 25 385 q 178 677 103 607 q 360 747 254 747 q 484 722 435 747 q 564 646 533 697 l 572 646 l 615 731 l 753 731 q 720 548 735 629 q 694 403 706 467 q 651 157 651 171 m 319 126 q 440 181 393 126 q 509 311 488 235 q 531 457 531 388 q 403 608 531 608 q 285 557 331 608 q 219 429 239 506 q 199 274 199 353 q 228 163 199 200 q 319 126 257 126 m 347 817 l 233 1004 l 371 1004 l 433 904 l 524 1004 l 676 1004 l 497 817 l 347 817 z "},"â":{"ha":804,"x_min":25,"x_max":753,"o":"m 25 0 m 651 157 q 692 119 651 119 l 738 119 l 717 6 q 611 -17 675 -17 q 524 15 557 -17 q 492 103 492 47 l 485 103 q 388 15 447 46 q 261 -17 328 -17 q 88 56 151 -17 q 25 264 25 128 q 64 496 25 385 q 178 677 103 607 q 360 747 254 747 q 484 722 435 747 q 564 646 533 697 l 572 646 l 615 731 l 753 731 q 720 548 735 629 q 694 403 706 467 q 651 157 651 171 m 319 126 q 440 181 393 126 q 509 311 488 235 q 531 457 531 388 q 403 608 531 608 q 285 557 331 608 q 219 429 239 506 q 199 274 199 353 q 228 163 199 200 q 319 126 257 126 m 192 817 l 371 1004 l 521 1004 l 635 817 l 497 817 l 436 917 l 346 817 l 192 817 z "},"ấ":{"ha":804,"x_min":25,"x_max":889,"o":"m 25 0 m 651 157 q 692 119 651 119 l 738 119 l 717 6 q 611 -17 675 -17 q 524 15 557 -17 q 492 103 492 47 l 485 103 q 388 15 447 46 q 261 -17 328 -17 q 88 56 151 -17 q 25 264 25 128 q 64 496 25 385 q 178 677 103 607 q 360 747 254 747 q 484 722 435 747 q 564 646 533 697 l 572 646 l 615 731 l 753 731 q 720 548 735 629 q 694 403 706 467 q 651 157 651 171 m 319 126 q 440 181 393 126 q 509 311 488 235 q 531 457 531 388 q 403 608 531 608 q 285 557 331 608 q 219 429 239 506 q 199 274 199 353 q 228 163 199 200 q 319 126 257 126 m 192 817 l 371 1004 l 521 1004 l 635 817 l 497 817 l 436 917 l 346 817 l 192 817 m 569 953 l 714 1136 l 888 1136 l 889 1132 l 710 953 l 569 953 z "},"ậ":{"ha":804,"x_min":25,"x_max":753,"o":"m 25 0 m 651 157 q 692 119 651 119 l 738 119 l 717 6 q 611 -17 675 -17 q 524 15 557 -17 q 492 103 492 47 l 485 103 q 388 15 447 46 q 261 -17 328 -17 q 88 56 151 -17 q 25 264 25 128 q 64 496 25 385 q 178 677 103 607 q 360 747 254 747 q 484 722 435 747 q 564 646 533 697 l 572 646 l 615 731 l 753 731 q 720 548 735 629 q 694 403 706 467 q 651 157 651 171 m 319 126 q 440 181 393 126 q 509 311 488 235 q 531 457 531 388 q 403 608 531 608 q 285 557 331 608 q 219 429 239 506 q 199 274 199 353 q 228 163 199 200 q 319 126 257 126 m 192 817 l 371 1004 l 521 1004 l 635 817 l 497 817 l 436 917 l 346 817 l 192 817 m 165 -240 l 194 -76 l 358 -76 l 329 -240 l 165 -240 z "},"ầ":{"ha":804,"x_min":25,"x_max":758,"o":"m 25 0 m 651 157 q 692 119 651 119 l 738 119 l 717 6 q 611 -17 675 -17 q 524 15 557 -17 q 492 103 492 47 l 485 103 q 388 15 447 46 q 261 -17 328 -17 q 88 56 151 -17 q 25 264 25 128 q 64 496 25 385 q 178 677 103 607 q 360 747 254 747 q 484 722 435 747 q 564 646 533 697 l 572 646 l 615 731 l 753 731 q 720 548 735 629 q 694 403 706 467 q 651 157 651 171 m 319 126 q 440 181 393 126 q 509 311 488 235 q 531 457 531 388 q 403 608 531 608 q 285 557 331 608 q 219 429 239 506 q 199 274 199 353 q 228 163 199 200 q 319 126 257 126 m 192 817 l 371 1004 l 521 1004 l 635 817 l 497 817 l 436 917 l 346 817 l 192 817 m 632 953 l 514 1132 l 515 1136 l 678 1136 l 758 953 l 632 953 z "},"ẩ":{"ha":804,"x_min":25,"x_max":811,"o":"m 25 0 m 651 157 q 692 119 651 119 l 738 119 l 717 6 q 611 -17 675 -17 q 524 15 557 -17 q 492 103 492 47 l 485 103 q 388 15 447 46 q 261 -17 328 -17 q 88 56 151 -17 q 25 264 25 128 q 64 496 25 385 q 178 677 103 607 q 360 747 254 747 q 484 722 435 747 q 564 646 533 697 l 572 646 l 615 731 l 753 731 q 720 548 735 629 q 694 403 706 467 q 651 157 651 171 m 319 126 q 440 181 393 126 q 509 311 488 235 q 531 457 531 388 q 403 608 531 608 q 285 557 331 608 q 219 429 239 506 q 199 274 199 353 q 228 163 199 200 q 319 126 257 126 m 192 817 l 371 1004 l 521 1004 l 635 817 l 497 817 l 436 917 l 346 817 l 192 817 m 610 1031 l 629 1031 q 665 1038 654 1031 q 676 1063 676 1046 q 666 1079 676 1075 q 633 1083 656 1083 l 553 1083 l 563 1142 q 675 1153 615 1153 q 770 1137 729 1153 q 811 1082 811 1121 q 776 1016 811 1039 q 692 989 742 993 l 685 953 l 596 953 l 610 1031 z "},"ẫ":{"ha":804,"x_min":25,"x_max":753,"o":"m 25 0 m 651 157 q 692 119 651 119 l 738 119 l 717 6 q 611 -17 675 -17 q 524 15 557 -17 q 492 103 492 47 l 485 103 q 388 15 447 46 q 261 -17 328 -17 q 88 56 151 -17 q 25 264 25 128 q 64 496 25 385 q 178 677 103 607 q 360 747 254 747 q 484 722 435 747 q 564 646 533 697 l 572 646 l 615 731 l 753 731 q 720 548 735 629 q 694 403 706 467 q 651 157 651 171 m 319 126 q 440 181 393 126 q 509 311 488 235 q 531 457 531 388 q 403 608 531 608 q 285 557 331 608 q 219 429 239 506 q 199 274 199 353 q 228 163 199 200 q 319 126 257 126 m 192 817 l 371 1004 l 521 1004 l 635 817 l 497 817 l 436 917 l 346 817 l 192 817 m 229 1065 q 279 1181 240 1135 q 381 1226 318 1226 q 479 1201 421 1226 q 569 1178 535 1178 q 624 1226 608 1178 l 718 1226 q 667 1110 706 1156 q 564 1065 628 1065 q 517 1072 539 1065 q 467 1090 494 1078 q 419 1108 439 1101 q 376 1114 399 1114 q 322 1065 338 1114 l 229 1065 z "},"ȁ":{"ha":804,"x_min":25,"x_max":753,"o":"m 25 0 m 651 157 q 692 119 651 119 l 738 119 l 717 6 q 611 -17 675 -17 q 524 15 557 -17 q 492 103 492 47 l 485 103 q 388 15 447 46 q 261 -17 328 -17 q 88 56 151 -17 q 25 264 25 128 q 64 496 25 385 q 178 677 103 607 q 360 747 254 747 q 484 722 435 747 q 564 646 533 697 l 572 646 l 615 731 l 753 731 q 720 548 735 629 q 694 403 706 467 q 651 157 651 171 m 319 126 q 440 181 393 126 q 509 311 488 235 q 531 457 531 388 q 403 608 531 608 q 285 557 331 608 q 219 429 239 506 q 199 274 199 353 q 228 163 199 200 q 319 126 257 126 m 269 821 l 163 1000 l 165 1004 l 332 1004 l 401 821 l 269 821 m 494 821 l 388 1000 l 390 1004 l 558 1004 l 626 821 l 494 821 z "},"ä":{"ha":804,"x_min":25,"x_max":753,"o":"m 25 0 m 651 157 q 692 119 651 119 l 738 119 l 717 6 q 611 -17 675 -17 q 524 15 557 -17 q 492 103 492 47 l 485 103 q 388 15 447 46 q 261 -17 328 -17 q 88 56 151 -17 q 25 264 25 128 q 64 496 25 385 q 178 677 103 607 q 360 747 254 747 q 484 722 435 747 q 564 646 533 697 l 572 646 l 615 731 l 753 731 q 720 548 735 629 q 694 403 706 467 q 651 157 651 171 m 319 126 q 440 181 393 126 q 509 311 488 235 q 531 457 531 388 q 403 608 531 608 q 285 557 331 608 q 219 429 239 506 q 199 274 199 353 q 228 163 199 200 q 319 126 257 126 m 214 851 l 240 1004 l 389 1004 l 363 851 l 214 851 m 493 851 l 521 1004 l 671 1004 l 643 851 l 493 851 z "},"ạ":{"ha":804,"x_min":25,"x_max":753,"o":"m 25 0 m 651 157 q 692 119 651 119 l 738 119 l 717 6 q 611 -17 675 -17 q 524 15 557 -17 q 492 103 492 47 l 485 103 q 388 15 447 46 q 261 -17 328 -17 q 88 56 151 -17 q 25 264 25 128 q 64 496 25 385 q 178 677 103 607 q 360 747 254 747 q 484 722 435 747 q 564 646 533 697 l 572 646 l 615 731 l 753 731 q 720 548 735 629 q 694 403 706 467 q 651 157 651 171 m 319 126 q 440 181 393 126 q 509 311 488 235 q 531 457 531 388 q 403 608 531 608 q 285 557 331 608 q 219 429 239 506 q 199 274 199 353 q 228 163 199 200 q 319 126 257 126 m 165 -240 l 194 -76 l 358 -76 l 329 -240 l 165 -240 z "},"à":{"ha":804,"x_min":25,"x_max":753,"o":"m 25 0 m 651 157 q 692 119 651 119 l 738 119 l 717 6 q 611 -17 675 -17 q 524 15 557 -17 q 492 103 492 47 l 485 103 q 388 15 447 46 q 261 -17 328 -17 q 88 56 151 -17 q 25 264 25 128 q 64 496 25 385 q 178 677 103 607 q 360 747 254 747 q 484 722 435 747 q 564 646 533 697 l 572 646 l 615 731 l 753 731 q 720 548 735 629 q 694 403 706 467 q 651 157 651 171 m 319 126 q 440 181 393 126 q 509 311 488 235 q 531 457 531 388 q 403 608 531 608 q 285 557 331 608 q 219 429 239 506 q 199 274 199 353 q 228 163 199 200 q 319 126 257 126 m 360 821 l 242 1000 l 243 1004 l 406 1004 l 486 821 l 360 821 z "},"ả":{"ha":804,"x_min":25,"x_max":753,"o":"m 25 0 m 651 157 q 692 119 651 119 l 738 119 l 717 6 q 611 -17 675 -17 q 524 15 557 -17 q 492 103 492 47 l 485 103 q 388 15 447 46 q 261 -17 328 -17 q 88 56 151 -17 q 25 264 25 128 q 64 496 25 385 q 178 677 103 607 q 360 747 254 747 q 484 722 435 747 q 564 646 533 697 l 572 646 l 615 731 l 753 731 q 720 548 735 629 q 694 403 706 467 q 651 157 651 171 m 319 126 q 440 181 393 126 q 509 311 488 235 q 531 457 531 388 q 403 608 531 608 q 285 557 331 608 q 219 429 239 506 q 199 274 199 353 q 228 163 199 200 q 319 126 257 126 m 393 899 l 413 899 q 449 906 438 899 q 460 931 460 914 q 449 947 460 943 q 417 951 439 951 l 336 951 l 346 1010 q 458 1021 399 1021 q 553 1005 513 1021 q 594 950 594 989 q 560 884 594 907 q 475 857 525 861 l 468 821 l 379 821 l 393 899 z "},"ȃ":{"ha":804,"x_min":25,"x_max":753,"o":"m 25 0 m 651 157 q 692 119 651 119 l 738 119 l 717 6 q 611 -17 675 -17 q 524 15 557 -17 q 492 103 492 47 l 485 103 q 388 15 447 46 q 261 -17 328 -17 q 88 56 151 -17 q 25 264 25 128 q 64 496 25 385 q 178 677 103 607 q 360 747 254 747 q 484 722 435 747 q 564 646 533 697 l 572 646 l 615 731 l 753 731 q 720 548 735 629 q 694 403 706 467 q 651 157 651 171 m 319 126 q 440 181 393 126 q 509 311 488 235 q 531 457 531 388 q 403 608 531 608 q 285 557 331 608 q 219 429 239 506 q 199 274 199 353 q 228 163 199 200 q 319 126 257 126 m 207 824 q 276 952 219 900 q 454 1004 333 1004 q 592 958 543 1004 q 642 849 642 913 q 639 824 642 840 l 529 824 q 508 872 531 850 q 435 893 485 893 q 356 872 385 893 q 318 824 328 851 l 207 824 z "},"ā":{"ha":804,"x_min":25,"x_max":753,"o":"m 25 0 m 651 157 q 692 119 651 119 l 738 119 l 717 6 q 611 -17 675 -17 q 524 15 557 -17 q 492 103 492 47 l 485 103 q 388 15 447 46 q 261 -17 328 -17 q 88 56 151 -17 q 25 264 25 128 q 64 496 25 385 q 178 677 103 607 q 360 747 254 747 q 484 722 435 747 q 564 646 533 697 l 572 646 l 615 731 l 753 731 q 720 548 735 629 q 694 403 706 467 q 651 157 651 171 m 319 126 q 440 181 393 126 q 509 311 488 235 q 531 457 531 388 q 403 608 531 608 q 285 557 331 608 q 219 429 239 506 q 199 274 199 353 q 228 163 199 200 q 319 126 257 126 m 218 857 l 239 971 l 663 971 l 642 857 l 218 857 z "},"ą":{"ha":804,"x_min":25,"x_max":753,"o":"m 649 157 q 660 128 649 138 q 689 119 671 119 l 735 119 l 715 6 q 592 -110 592 -46 q 650 -158 592 -158 l 686 -158 l 674 -233 q 576 -253 618 -253 q 487 -228 524 -253 q 450 -147 450 -203 q 558 -7 450 -64 q 507 32 525 3 q 489 103 489 61 l 482 103 q 385 15 444 46 q 261 -17 326 -17 q 88 56 151 -17 q 25 264 25 128 q 64 496 25 385 q 178 677 103 607 q 360 747 254 747 q 484 722 435 747 q 564 646 533 697 l 572 646 l 615 731 l 753 731 q 674 299 690 386 q 649 157 649 158 m 319 126 q 440 183 392 126 q 509 317 488 240 q 531 457 531 394 q 403 608 531 608 q 285 557 331 608 q 219 429 239 506 q 199 274 199 353 q 228 163 199 200 q 319 126 257 126 z "},"å":{"ha":804,"x_min":25,"x_max":753,"o":"m 25 0 m 651 157 q 692 119 651 119 l 738 119 l 717 6 q 611 -17 675 -17 q 524 15 557 -17 q 492 103 492 47 l 485 103 q 388 15 447 46 q 261 -17 328 -17 q 88 56 151 -17 q 25 264 25 128 q 64 496 25 385 q 178 677 103 607 q 360 747 254 747 q 484 722 435 747 q 564 646 533 697 l 572 646 l 615 731 l 753 731 q 720 548 735 629 q 694 403 706 467 q 651 157 651 171 m 319 126 q 440 181 393 126 q 509 311 488 235 q 531 457 531 388 q 403 608 531 608 q 285 557 331 608 q 219 429 239 506 q 199 274 199 353 q 228 163 199 200 q 319 126 257 126 m 418 776 q 329 809 363 776 q 296 892 296 842 q 340 1006 296 960 q 453 1053 383 1053 q 542 1020 510 1053 q 575 936 575 988 q 531 822 575 868 q 418 776 488 776 m 425 850 q 479 872 457 850 q 501 926 501 894 q 486 965 501 950 q 446 979 471 979 q 392 956 413 979 q 371 901 371 933 q 385 865 371 879 q 425 850 400 850 z "},"ǻ":{"ha":804,"x_min":25,"x_max":753,"o":"m 25 0 m 651 157 q 692 119 651 119 l 738 119 l 717 6 q 611 -17 675 -17 q 524 15 557 -17 q 492 103 492 47 l 485 103 q 388 15 447 46 q 261 -17 328 -17 q 88 56 151 -17 q 25 264 25 128 q 64 496 25 385 q 178 677 103 607 q 360 747 254 747 q 484 722 435 747 q 564 646 533 697 l 572 646 l 615 731 l 753 731 q 720 548 735 629 q 694 403 706 467 q 651 157 651 171 m 319 126 q 440 181 393 126 q 509 311 488 235 q 531 457 531 388 q 403 608 531 608 q 285 557 331 608 q 219 429 239 506 q 199 274 199 353 q 228 163 199 200 q 319 126 257 126 m 418 776 q 329 809 363 776 q 296 892 296 842 q 340 1006 296 960 q 453 1053 383 1053 q 542 1020 510 1053 q 575 936 575 988 q 531 822 575 868 q 418 776 488 776 m 425 850 q 479 872 457 850 q 501 926 501 894 q 486 965 501 950 q 446 979 471 979 q 392 956 413 979 q 371 901 371 933 q 385 865 371 879 q 425 850 400 850 m 394 1081 l 539 1264 l 713 1264 l 714 1260 l 535 1081 l 394 1081 z "},"ã":{"ha":804,"x_min":25,"x_max":753,"o":"m 25 0 m 651 157 q 692 119 651 119 l 738 119 l 717 6 q 611 -17 675 -17 q 524 15 557 -17 q 492 103 492 47 l 485 103 q 388 15 447 46 q 261 -17 328 -17 q 88 56 151 -17 q 25 264 25 128 q 64 496 25 385 q 178 677 103 607 q 360 747 254 747 q 484 722 435 747 q 564 646 533 697 l 572 646 l 615 731 l 753 731 q 720 548 735 629 q 694 403 706 467 q 651 157 651 171 m 319 126 q 440 181 393 126 q 509 311 488 235 q 531 457 531 388 q 403 608 531 608 q 285 557 331 608 q 219 429 239 506 q 199 274 199 353 q 228 163 199 200 q 319 126 257 126 m 197 843 q 247 958 208 913 q 349 1004 286 1004 q 447 979 389 1004 q 538 956 503 956 q 592 1004 576 956 l 686 1004 q 635 888 674 933 q 532 843 596 843 q 485 849 507 843 q 435 868 463 856 q 387 885 407 879 q 344 892 367 892 q 290 843 306 892 l 197 843 z "},"æ":{"ha":1235,"x_min":-8,"x_max":1181,"o":"m 256 -17 q 71 22 150 -17 q -8 163 -8 60 q 131 382 -8 321 q 519 443 269 443 l 531 504 q 533 535 533 526 q 506 594 533 574 q 411 615 479 615 q 297 592 335 615 q 254 533 260 568 l 250 514 l 89 514 q 132 637 89 583 q 249 719 175 690 q 413 747 322 747 q 657 671 589 747 q 886 747 746 747 q 1181 482 1181 747 q 1169 375 1181 438 l 1161 325 l 668 325 q 663 265 663 296 q 699 152 663 189 q 814 115 735 115 q 928 150 883 115 q 985 256 972 185 l 1149 256 q 1039 52 1128 121 q 818 -17 950 -17 q 538 93 611 -17 q 256 -17 428 -17 m 1010 443 q 1014 492 1014 468 q 981 585 1014 556 q 890 615 949 615 q 763 572 811 615 q 690 443 714 529 l 1010 443 m 274 117 q 421 165 361 117 q 493 292 481 213 l 500 325 q 256 294 346 325 q 167 185 167 264 q 274 117 167 117 z "},"ǽ":{"ha":1235,"x_min":-8,"x_max":1181,"o":"m 0 0 m 256 -17 q 71 22 150 -17 q -8 163 -8 60 q 131 382 -8 321 q 519 443 269 443 l 531 504 q 533 535 533 526 q 506 594 533 574 q 411 615 479 615 q 297 592 335 615 q 254 533 260 568 l 250 514 l 89 514 q 132 637 89 583 q 249 719 175 690 q 413 747 322 747 q 657 671 589 747 q 886 747 746 747 q 1181 482 1181 747 q 1169 375 1181 438 l 1161 325 l 668 325 q 663 265 663 296 q 699 152 663 189 q 814 115 735 115 q 928 150 883 115 q 985 256 972 185 l 1149 256 q 1039 52 1128 121 q 818 -17 950 -17 q 538 93 611 -17 q 256 -17 428 -17 m 1010 443 q 1014 492 1014 468 q 981 585 1014 556 q 890 615 949 615 q 763 572 811 615 q 690 443 714 529 l 1010 443 m 274 117 q 421 165 361 117 q 493 292 481 213 l 500 325 q 256 294 346 325 q 167 185 167 264 q 274 117 167 117 m 626 821 l 771 1004 l 944 1004 l 946 1000 l 767 821 l 626 821 z "},"b":{"ha":822,"x_min":18,"x_max":767,"o":"m 414 -17 q 279 12 336 -17 q 196 97 222 40 l 186 97 l 156 0 l 18 0 l 194 1004 l 361 1004 l 299 646 l 307 646 q 522 747 386 747 q 701 677 636 747 q 767 468 767 607 q 728 235 767 346 q 609 53 689 124 q 414 -17 529 -17 m 375 122 q 502 174 453 122 q 573 301 551 225 q 594 458 594 378 q 562 569 594 533 q 460 604 529 604 q 335 553 385 604 q 263 426 286 501 q 240 279 240 351 q 375 122 240 122 z "},"c":{"ha":746,"x_min":25,"x_max":703,"o":"m 338 -17 q 102 51 179 -17 q 25 263 25 119 q 65 501 25 392 q 190 679 104 611 q 408 747 276 747 q 626 688 550 747 q 703 518 703 628 q 699 457 703 489 l 529 457 q 532 494 532 482 q 413 613 532 613 q 208 383 251 613 q 197 274 197 318 q 231 156 197 194 q 335 118 264 118 q 450 160 407 118 q 506 274 493 203 l 667 274 q 560 59 644 135 q 338 -17 476 -17 z "},"ć":{"ha":746,"x_min":25,"x_max":703,"o":"m 25 0 m 338 -17 q 102 51 179 -17 q 25 263 25 119 q 65 501 25 392 q 190 679 104 611 q 408 747 276 747 q 626 688 550 747 q 703 518 703 628 q 699 457 703 489 l 529 457 q 532 494 532 482 q 413 613 532 613 q 208 383 251 613 q 197 274 197 318 q 231 156 197 194 q 335 118 264 118 q 450 160 407 118 q 506 274 493 203 l 667 274 q 560 59 644 135 q 338 -17 476 -17 m 364 821 l 508 1004 l 682 1004 l 683 1000 l 504 821 l 364 821 z "},"č":{"ha":746,"x_min":25,"x_max":703,"o":"m 25 0 m 338 -17 q 102 51 179 -17 q 25 263 25 119 q 65 501 25 392 q 190 679 104 611 q 408 747 276 747 q 626 688 550 747 q 703 518 703 628 q 699 457 703 489 l 529 457 q 532 494 532 482 q 413 613 532 613 q 208 383 251 613 q 197 274 197 318 q 231 156 197 194 q 335 118 264 118 q 450 160 407 118 q 506 274 493 203 l 667 274 q 560 59 644 135 q 338 -17 476 -17 m 360 817 l 246 1004 l 383 1004 l 446 904 l 536 1004 l 689 1004 l 510 817 l 360 817 z "},"ç":{"ha":746,"x_min":25,"x_max":703,"o":"m 529 457 q 532 494 532 482 q 413 613 532 613 q 208 383 251 613 q 197 274 197 318 q 231 156 197 194 q 335 118 264 118 q 450 160 407 118 q 506 274 493 203 l 667 274 q 566 63 646 139 q 353 -17 486 -12 l 343 -47 q 428 -72 396 -50 q 461 -135 461 -93 q 401 -226 461 -200 q 264 -253 340 -253 q 121 -242 185 -253 l 133 -174 l 263 -174 q 311 -165 294 -174 q 328 -133 328 -156 q 316 -113 328 -119 q 276 -107 304 -107 l 215 -107 l 249 -10 q 80 74 135 7 q 25 263 25 142 q 65 501 25 392 q 190 679 104 611 q 408 747 276 747 q 626 688 550 747 q 703 518 703 628 q 699 457 703 489 l 529 457 z "},"ĉ":{"ha":746,"x_min":25,"x_max":703,"o":"m 25 0 m 338 -17 q 102 51 179 -17 q 25 263 25 119 q 65 501 25 392 q 190 679 104 611 q 408 747 276 747 q 626 688 550 747 q 703 518 703 628 q 699 457 703 489 l 529 457 q 532 494 532 482 q 413 613 532 613 q 208 383 251 613 q 197 274 197 318 q 231 156 197 194 q 335 118 264 118 q 450 160 407 118 q 506 274 493 203 l 667 274 q 560 59 644 135 q 338 -17 476 -17 m 204 817 l 383 1004 l 533 1004 l 647 817 l 510 817 l 449 917 l 358 817 l 204 817 z "},"ċ":{"ha":746,"x_min":25,"x_max":703,"o":"m 25 0 m 338 -17 q 102 51 179 -17 q 25 263 25 119 q 65 501 25 392 q 190 679 104 611 q 408 747 276 747 q 626 688 550 747 q 703 518 703 628 q 699 457 703 489 l 529 457 q 532 494 532 482 q 413 613 532 613 q 208 383 251 613 q 197 274 197 318 q 231 156 197 194 q 335 118 264 118 q 450 160 407 118 q 506 274 493 203 l 667 274 q 560 59 644 135 q 338 -17 476 -17 m 356 842 l 385 1006 l 549 1006 l 519 842 l 356 842 z "},"d":{"ha":822,"x_min":26,"x_max":824,"o":"m 285 -17 q 93 54 160 -17 q 26 272 26 125 q 66 500 26 390 q 183 678 106 610 q 369 747 261 747 q 501 722 449 747 q 586 646 553 696 l 594 646 l 657 1004 l 824 1004 l 647 0 l 513 0 l 513 97 l 504 97 q 406 13 463 43 q 285 -17 349 -17 m 335 126 q 459 175 410 126 q 531 299 508 224 q 554 457 554 375 q 415 608 554 608 q 251 508 301 608 q 200 278 200 407 q 233 163 200 200 q 335 126 265 126 z "},"ð":{"ha":822,"x_min":26,"x_max":803,"o":"m 356 -17 q 108 52 190 -17 q 26 264 26 121 q 58 478 26 381 q 151 640 90 576 q 256 713 196 688 q 388 738 317 738 q 522 715 465 738 l 528 719 q 460 835 507 769 l 233 818 l 249 913 l 390 924 q 339 972 383 932 l 313 997 l 318 1004 l 507 1004 q 572 936 554 960 l 803 953 l 785 857 l 646 849 q 734 673 703 767 q 765 479 765 579 q 668 121 765 258 q 356 -17 571 -17 m 357 119 q 506 176 453 119 q 579 340 560 233 q 590 447 590 401 q 552 564 590 526 q 432 601 514 601 q 282 544 335 601 q 211 379 229 486 q 200 274 200 318 q 238 157 200 194 q 357 119 275 119 z "},"ď":{"ha":953,"x_min":26,"x_max":1061,"o":"m 285 -17 q 93 54 160 -17 q 26 272 26 125 q 66 500 26 390 q 183 678 106 610 q 369 747 261 747 q 501 722 449 747 q 586 646 553 696 l 594 646 l 657 1004 l 824 1004 l 647 0 l 513 0 l 513 97 l 504 97 q 406 13 463 43 q 285 -17 349 -17 m 839 638 l 933 793 l 868 793 l 894 953 l 1061 953 l 1036 808 l 926 638 l 839 638 m 335 126 q 459 175 410 126 q 531 299 508 224 q 554 457 554 375 q 415 608 554 608 q 251 508 301 608 q 200 278 200 407 q 233 163 200 200 q 335 126 265 126 z "},"đ":{"ha":822,"x_min":26,"x_max":894,"o":"m 285 -17 q 93 54 160 -17 q 26 272 26 125 q 66 500 26 390 q 183 678 106 610 q 369 747 261 747 q 501 722 449 747 q 586 646 553 696 l 594 646 l 625 819 l 419 819 l 436 914 l 642 914 l 657 1004 l 824 1004 l 807 914 l 894 914 l 878 819 l 792 819 l 647 0 l 513 0 l 513 97 l 504 97 q 406 13 463 43 q 285 -17 349 -17 m 335 126 q 459 175 410 126 q 531 299 508 224 q 554 457 554 375 q 415 608 554 608 q 251 508 301 608 q 200 278 200 407 q 233 163 200 200 q 335 126 265 126 z "},"ḍ":{"ha":822,"x_min":26,"x_max":824,"o":"m 26 0 m 285 -17 q 93 54 160 -17 q 26 272 26 125 q 66 500 26 390 q 183 678 106 610 q 369 747 261 747 q 501 722 449 747 q 586 646 553 696 l 594 646 l 657 1004 l 824 1004 l 647 0 l 513 0 l 513 97 l 504 97 q 406 13 463 43 q 285 -17 349 -17 m 335 126 q 459 175 410 126 q 531 299 508 224 q 554 457 554 375 q 415 608 554 608 q 251 508 301 608 q 200 278 200 407 q 233 163 200 200 q 335 126 265 126 m 222 -240 l 251 -76 l 415 -76 l 386 -240 l 222 -240 z "},"ǳ":{"ha":1517,"x_min":26,"x_max":1531,"o":"m 26 0 m 285 -17 q 93 54 160 -17 q 26 272 26 125 q 66 500 26 390 q 183 678 106 610 q 369 747 261 747 q 501 722 449 747 q 586 646 553 696 l 594 646 l 657 1004 l 824 1004 l 647 0 l 513 0 l 513 97 l 504 97 q 406 13 463 43 q 285 -17 349 -17 m 335 126 q 459 175 410 126 q 531 299 508 224 q 554 457 554 375 q 415 608 554 608 q 251 508 301 608 q 200 278 200 407 q 233 163 200 200 q 335 126 265 126 m 788 0 l 801 78 l 1251 594 l 914 594 l 939 731 l 1531 731 l 1517 654 l 1064 136 l 1442 136 l 1418 0 l 788 0 z "},"ǆ":{"ha":1517,"x_min":26,"x_max":1531,"o":"m 26 0 m 285 -17 q 93 54 160 -17 q 26 272 26 125 q 66 500 26 390 q 183 678 106 610 q 369 747 261 747 q 501 722 449 747 q 586 646 553 696 l 594 646 l 657 1004 l 824 1004 l 647 0 l 513 0 l 513 97 l 504 97 q 406 13 463 43 q 285 -17 349 -17 m 335 126 q 459 175 410 126 q 531 299 508 224 q 554 457 554 375 q 415 608 554 608 q 251 508 301 608 q 200 278 200 407 q 233 163 200 200 q 335 126 265 126 m 788 0 l 801 78 l 1251 594 l 914 594 l 939 731 l 1531 731 l 1517 654 l 1064 136 l 1442 136 l 1418 0 l 788 0 m 1174 817 l 1060 1004 l 1197 1004 l 1260 904 l 1350 1004 l 1503 1004 l 1324 817 l 1174 817 z "},"e":{"ha":772,"x_min":25,"x_max":717,"o":"m 353 -17 q 106 52 188 -17 q 25 264 25 121 q 66 504 25 394 q 195 681 107 614 q 419 747 283 747 q 717 482 717 747 q 706 375 717 426 l 697 325 l 199 325 q 194 265 194 303 q 231 152 194 189 q 347 115 268 115 q 463 150 418 115 q 521 256 508 185 l 685 256 q 574 52 664 121 q 353 -17 485 -17 m 546 443 q 550 492 550 468 q 517 585 550 556 q 424 615 483 615 q 222 443 269 615 l 546 443 z "},"é":{"ha":772,"x_min":25,"x_max":717,"o":"m 25 0 m 353 -17 q 106 52 188 -17 q 25 264 25 121 q 66 504 25 394 q 195 681 107 614 q 419 747 283 747 q 717 482 717 747 q 706 375 717 426 l 697 325 l 199 325 q 194 265 194 303 q 231 152 194 189 q 347 115 268 115 q 463 150 418 115 q 521 256 508 185 l 685 256 q 574 52 664 121 q 353 -17 485 -17 m 546 443 q 550 492 550 468 q 517 585 550 556 q 424 615 483 615 q 222 443 269 615 l 546 443 m 371 821 l 515 1004 l 689 1004 l 690 1000 l 511 821 l 371 821 z "},"ĕ":{"ha":772,"x_min":25,"x_max":717,"o":"m 25 0 m 353 -17 q 106 52 188 -17 q 25 264 25 121 q 66 504 25 394 q 195 681 107 614 q 419 747 283 747 q 717 482 717 747 q 706 375 717 426 l 697 325 l 199 325 q 194 265 194 303 q 231 152 194 189 q 347 115 268 115 q 463 150 418 115 q 521 256 508 185 l 685 256 q 574 52 664 121 q 353 -17 485 -17 m 546 443 q 550 492 550 468 q 517 585 550 556 q 424 615 483 615 q 222 443 269 615 l 546 443 m 442 824 q 288 865 335 824 q 240 971 240 907 q 243 1004 240 993 l 354 1004 q 374 955 354 975 q 444 935 394 935 q 525 956 493 935 q 565 1004 557 978 l 676 1004 q 648 931 668 967 q 594 869 628 896 q 442 824 532 824 z "},"ě":{"ha":772,"x_min":25,"x_max":717,"o":"m 25 0 m 353 -17 q 106 52 188 -17 q 25 264 25 121 q 66 504 25 394 q 195 681 107 614 q 419 747 283 747 q 717 482 717 747 q 706 375 717 426 l 697 325 l 199 325 q 194 265 194 303 q 231 152 194 189 q 347 115 268 115 q 463 150 418 115 q 521 256 508 185 l 685 256 q 574 52 664 121 q 353 -17 485 -17 m 546 443 q 550 492 550 468 q 517 585 550 556 q 424 615 483 615 q 222 443 269 615 l 546 443 m 367 817 l 253 1004 l 390 1004 l 453 904 l 543 1004 l 696 1004 l 517 817 l 367 817 z "},"ê":{"ha":772,"x_min":25,"x_max":717,"o":"m 25 0 m 353 -17 q 106 52 188 -17 q 25 264 25 121 q 66 504 25 394 q 195 681 107 614 q 419 747 283 747 q 717 482 717 747 q 706 375 717 426 l 697 325 l 199 325 q 194 265 194 303 q 231 152 194 189 q 347 115 268 115 q 463 150 418 115 q 521 256 508 185 l 685 256 q 574 52 664 121 q 353 -17 485 -17 m 546 443 q 550 492 550 468 q 517 585 550 556 q 424 615 483 615 q 222 443 269 615 l 546 443 m 211 817 l 390 1004 l 540 1004 l 654 817 l 517 817 l 456 917 l 365 817 l 211 817 z "},"ế":{"ha":772,"x_min":25,"x_max":908,"o":"m 25 0 m 353 -17 q 106 52 188 -17 q 25 264 25 121 q 66 504 25 394 q 195 681 107 614 q 419 747 283 747 q 717 482 717 747 q 706 375 717 426 l 697 325 l 199 325 q 194 265 194 303 q 231 152 194 189 q 347 115 268 115 q 463 150 418 115 q 521 256 508 185 l 685 256 q 574 52 664 121 q 353 -17 485 -17 m 546 443 q 550 492 550 468 q 517 585 550 556 q 424 615 483 615 q 222 443 269 615 l 546 443 m 211 817 l 390 1004 l 540 1004 l 654 817 l 517 817 l 456 917 l 365 817 l 211 817 m 589 953 l 733 1136 l 907 1136 l 908 1132 l 729 953 l 589 953 z "},"ệ":{"ha":772,"x_min":25,"x_max":717,"o":"m 25 0 m 353 -17 q 106 52 188 -17 q 25 264 25 121 q 66 504 25 394 q 195 681 107 614 q 419 747 283 747 q 717 482 717 747 q 706 375 717 426 l 697 325 l 199 325 q 194 265 194 303 q 231 152 194 189 q 347 115 268 115 q 463 150 418 115 q 521 256 508 185 l 685 256 q 574 52 664 121 q 353 -17 485 -17 m 546 443 q 550 492 550 468 q 517 585 550 556 q 424 615 483 615 q 222 443 269 615 l 546 443 m 211 817 l 390 1004 l 540 1004 l 654 817 l 517 817 l 456 917 l 365 817 l 211 817 m 197 -240 l 226 -76 l 390 -76 l 361 -240 l 197 -240 z "},"ề":{"ha":772,"x_min":25,"x_max":778,"o":"m 25 0 m 353 -17 q 106 52 188 -17 q 25 264 25 121 q 66 504 25 394 q 195 681 107 614 q 419 747 283 747 q 717 482 717 747 q 706 375 717 426 l 697 325 l 199 325 q 194 265 194 303 q 231 152 194 189 q 347 115 268 115 q 463 150 418 115 q 521 256 508 185 l 685 256 q 574 52 664 121 q 353 -17 485 -17 m 546 443 q 550 492 550 468 q 517 585 550 556 q 424 615 483 615 q 222 443 269 615 l 546 443 m 211 817 l 390 1004 l 540 1004 l 654 817 l 517 817 l 456 917 l 365 817 l 211 817 m 651 953 l 533 1132 l 535 1136 l 697 1136 l 778 953 l 651 953 z "},"ể":{"ha":772,"x_min":25,"x_max":831,"o":"m 25 0 m 353 -17 q 106 52 188 -17 q 25 264 25 121 q 66 504 25 394 q 195 681 107 614 q 419 747 283 747 q 717 482 717 747 q 706 375 717 426 l 697 325 l 199 325 q 194 265 194 303 q 231 152 194 189 q 347 115 268 115 q 463 150 418 115 q 521 256 508 185 l 685 256 q 574 52 664 121 q 353 -17 485 -17 m 546 443 q 550 492 550 468 q 517 585 550 556 q 424 615 483 615 q 222 443 269 615 l 546 443 m 211 817 l 390 1004 l 540 1004 l 654 817 l 517 817 l 456 917 l 365 817 l 211 817 m 629 1031 l 649 1031 q 685 1038 674 1031 q 696 1063 696 1046 q 685 1079 696 1075 q 653 1083 675 1083 l 572 1083 l 582 1142 q 694 1153 635 1153 q 790 1137 749 1153 q 831 1082 831 1121 q 796 1016 831 1039 q 711 989 761 993 l 704 953 l 615 953 l 629 1031 z "},"ễ":{"ha":772,"x_min":25,"x_max":738,"o":"m 25 0 m 353 -17 q 106 52 188 -17 q 25 264 25 121 q 66 504 25 394 q 195 681 107 614 q 419 747 283 747 q 717 482 717 747 q 706 375 717 426 l 697 325 l 199 325 q 194 265 194 303 q 231 152 194 189 q 347 115 268 115 q 463 150 418 115 q 521 256 508 185 l 685 256 q 574 52 664 121 q 353 -17 485 -17 m 546 443 q 550 492 550 468 q 517 585 550 556 q 424 615 483 615 q 222 443 269 615 l 546 443 m 211 817 l 390 1004 l 540 1004 l 654 817 l 517 817 l 456 917 l 365 817 l 211 817 m 249 1065 q 299 1181 260 1135 q 400 1226 338 1226 q 499 1201 440 1226 q 589 1178 554 1178 q 643 1226 628 1178 l 738 1226 q 686 1110 725 1156 q 583 1065 647 1065 q 536 1072 558 1065 q 486 1090 514 1078 q 438 1108 458 1101 q 396 1114 418 1114 q 342 1065 357 1114 l 249 1065 z "},"ȅ":{"ha":772,"x_min":25,"x_max":717,"o":"m 25 0 m 353 -17 q 106 52 188 -17 q 25 264 25 121 q 66 504 25 394 q 195 681 107 614 q 419 747 283 747 q 717 482 717 747 q 706 375 717 426 l 697 325 l 199 325 q 194 265 194 303 q 231 152 194 189 q 347 115 268 115 q 463 150 418 115 q 521 256 508 185 l 685 256 q 574 52 664 121 q 353 -17 485 -17 m 546 443 q 550 492 550 468 q 517 585 550 556 q 424 615 483 615 q 222 443 269 615 l 546 443 m 289 821 l 182 1000 l 185 1004 l 351 1004 l 421 821 l 289 821 m 514 821 l 407 1000 l 410 1004 l 578 1004 l 646 821 l 514 821 z "},"ë":{"ha":772,"x_min":25,"x_max":717,"o":"m 25 0 m 353 -17 q 106 52 188 -17 q 25 264 25 121 q 66 504 25 394 q 195 681 107 614 q 419 747 283 747 q 717 482 717 747 q 706 375 717 426 l 697 325 l 199 325 q 194 265 194 303 q 231 152 194 189 q 347 115 268 115 q 463 150 418 115 q 521 256 508 185 l 685 256 q 574 52 664 121 q 353 -17 485 -17 m 546 443 q 550 492 550 468 q 517 585 550 556 q 424 615 483 615 q 222 443 269 615 l 546 443 m 233 851 l 260 1004 l 408 1004 l 382 851 l 233 851 m 513 851 l 540 1004 l 690 1004 l 663 851 l 513 851 z "},"ė":{"ha":772,"x_min":25,"x_max":717,"o":"m 25 0 m 353 -17 q 106 52 188 -17 q 25 264 25 121 q 66 504 25 394 q 195 681 107 614 q 419 747 283 747 q 717 482 717 747 q 706 375 717 426 l 697 325 l 199 325 q 194 265 194 303 q 231 152 194 189 q 347 115 268 115 q 463 150 418 115 q 521 256 508 185 l 685 256 q 574 52 664 121 q 353 -17 485 -17 m 546 443 q 550 492 550 468 q 517 585 550 556 q 424 615 483 615 q 222 443 269 615 l 546 443 m 363 842 l 392 1006 l 556 1006 l 526 842 l 363 842 z "},"ẹ":{"ha":772,"x_min":25,"x_max":717,"o":"m 25 0 m 353 -17 q 106 52 188 -17 q 25 264 25 121 q 66 504 25 394 q 195 681 107 614 q 419 747 283 747 q 717 482 717 747 q 706 375 717 426 l 697 325 l 199 325 q 194 265 194 303 q 231 152 194 189 q 347 115 268 115 q 463 150 418 115 q 521 256 508 185 l 685 256 q 574 52 664 121 q 353 -17 485 -17 m 546 443 q 550 492 550 468 q 517 585 550 556 q 424 615 483 615 q 222 443 269 615 l 546 443 m 197 -240 l 226 -76 l 390 -76 l 361 -240 l 197 -240 z "},"è":{"ha":772,"x_min":25,"x_max":717,"o":"m 25 0 m 353 -17 q 106 52 188 -17 q 25 264 25 121 q 66 504 25 394 q 195 681 107 614 q 419 747 283 747 q 717 482 717 747 q 706 375 717 426 l 697 325 l 199 325 q 194 265 194 303 q 231 152 194 189 q 347 115 268 115 q 463 150 418 115 q 521 256 508 185 l 685 256 q 574 52 664 121 q 353 -17 485 -17 m 546 443 q 550 492 550 468 q 517 585 550 556 q 424 615 483 615 q 222 443 269 615 l 546 443 m 379 821 l 261 1000 l 263 1004 l 425 1004 l 506 821 l 379 821 z "},"ẻ":{"ha":772,"x_min":25,"x_max":717,"o":"m 25 0 m 353 -17 q 106 52 188 -17 q 25 264 25 121 q 66 504 25 394 q 195 681 107 614 q 419 747 283 747 q 717 482 717 747 q 706 375 717 426 l 697 325 l 199 325 q 194 265 194 303 q 231 152 194 189 q 347 115 268 115 q 463 150 418 115 q 521 256 508 185 l 685 256 q 574 52 664 121 q 353 -17 485 -17 m 546 443 q 550 492 550 468 q 517 585 550 556 q 424 615 483 615 q 222 443 269 615 l 546 443 m 413 899 l 432 899 q 468 906 457 899 q 479 931 479 914 q 469 947 479 943 q 436 951 458 951 l 356 951 l 365 1010 q 478 1021 418 1021 q 573 1005 532 1021 q 614 950 614 989 q 579 884 614 907 q 494 857 544 861 l 488 821 l 399 821 l 413 899 z "},"ȇ":{"ha":772,"x_min":25,"x_max":717,"o":"m 25 0 m 353 -17 q 106 52 188 -17 q 25 264 25 121 q 66 504 25 394 q 195 681 107 614 q 419 747 283 747 q 717 482 717 747 q 706 375 717 426 l 697 325 l 199 325 q 194 265 194 303 q 231 152 194 189 q 347 115 268 115 q 463 150 418 115 q 521 256 508 185 l 685 256 q 574 52 664 121 q 353 -17 485 -17 m 546 443 q 550 492 550 468 q 517 585 550 556 q 424 615 483 615 q 222 443 269 615 l 546 443 m 226 824 q 296 952 239 900 q 474 1004 353 1004 q 612 958 563 1004 q 661 849 661 913 q 658 824 661 840 l 549 824 q 527 872 550 850 q 454 893 504 893 q 376 872 404 893 q 338 824 347 851 l 226 824 z "},"ē":{"ha":772,"x_min":25,"x_max":717,"o":"m 25 0 m 353 -17 q 106 52 188 -17 q 25 264 25 121 q 66 504 25 394 q 195 681 107 614 q 419 747 283 747 q 717 482 717 747 q 706 375 717 426 l 697 325 l 199 325 q 194 265 194 303 q 231 152 194 189 q 347 115 268 115 q 463 150 418 115 q 521 256 508 185 l 685 256 q 574 52 664 121 q 353 -17 485 -17 m 546 443 q 550 492 550 468 q 517 585 550 556 q 424 615 483 615 q 222 443 269 615 l 546 443 m 238 857 l 258 971 l 682 971 l 661 857 l 238 857 z "},"ę":{"ha":772,"x_min":25,"x_max":717,"o":"m 500 -253 q 410 -226 446 -253 q 374 -142 374 -200 q 431 -10 374 -74 q 353 -17 397 -17 q 106 52 188 -17 q 25 264 25 121 q 66 504 25 394 q 195 681 107 614 q 419 747 283 747 q 717 482 717 747 q 706 375 717 438 l 697 325 l 199 325 q 194 265 194 303 q 231 152 194 189 q 347 115 268 115 q 463 150 418 115 q 521 256 508 185 l 685 256 q 653 151 675 196 q 594 71 631 107 q 517 -93 517 -7 q 535 -139 517 -119 q 582 -158 553 -158 l 611 -158 l 599 -233 q 500 -253 543 -253 m 546 443 q 550 492 550 468 q 517 585 550 556 q 424 615 483 615 q 222 443 269 615 l 546 443 z "},"ẽ":{"ha":772,"x_min":25,"x_max":717,"o":"m 25 0 m 353 -17 q 106 52 188 -17 q 25 264 25 121 q 66 504 25 394 q 195 681 107 614 q 419 747 283 747 q 717 482 717 747 q 706 375 717 426 l 697 325 l 199 325 q 194 265 194 303 q 231 152 194 189 q 347 115 268 115 q 463 150 418 115 q 521 256 508 185 l 685 256 q 574 52 664 121 q 353 -17 485 -17 m 546 443 q 550 492 550 468 q 517 585 550 556 q 424 615 483 615 q 222 443 269 615 l 546 443 m 217 843 q 267 958 228 913 q 368 1004 306 1004 q 467 979 408 1004 q 557 956 522 956 q 611 1004 596 956 l 706 1004 q 654 888 693 933 q 551 843 615 843 q 504 849 526 843 q 454 868 482 856 q 406 885 426 879 q 364 892 386 892 q 310 843 325 892 l 217 843 z "},"f":{"ha":436,"x_min":-137,"x_max":511,"o":"m -17 -253 q -82 -247 -47 -253 q -137 -232 -117 -240 l -117 -117 l -46 -117 q 26 -54 15 -117 l 140 594 l 35 594 l 60 731 l 165 731 l 181 825 q 244 962 196 908 q 389 1015 293 1015 q 455 1009 421 1015 q 511 994 489 1003 l 490 879 l 419 879 q 347 817 358 879 l 332 731 l 465 731 l 440 594 l 307 594 l 192 -62 q 129 -199 178 -146 q -17 -253 81 -253 z "},"g":{"ha":822,"x_min":-3,"x_max":775,"o":"m 288 -253 q 76 -201 154 -253 q -3 -49 -1 -149 l -3 -35 l 160 -35 q 197 -97 164 -78 q 292 -117 229 -117 q 494 82 457 -117 l 501 121 l 493 121 q 276 21 411 21 q 98 88 165 21 q 31 288 31 154 q 71 513 31 407 q 190 683 111 618 q 381 747 269 747 q 513 719 457 747 q 597 633 569 690 l 607 633 l 638 731 l 775 731 l 661 88 q 540 -169 631 -85 q 288 -253 450 -253 m 338 164 q 461 209 413 164 q 533 323 510 254 q 556 464 556 392 q 421 604 556 604 q 255 512 307 604 q 203 296 203 419 q 235 196 203 228 q 338 164 267 164 z "},"ǵ":{"ha":822,"x_min":-3,"x_max":775,"o":"m 0 0 m 288 -253 q 76 -201 154 -253 q -3 -49 -1 -149 l -3 -35 l 160 -35 q 197 -97 164 -78 q 292 -117 229 -117 q 494 82 457 -117 l 501 121 l 493 121 q 276 21 411 21 q 98 88 165 21 q 31 288 31 154 q 71 513 31 407 q 190 683 111 618 q 381 747 269 747 q 513 719 457 747 q 597 633 569 690 l 607 633 l 638 731 l 775 731 l 661 88 q 540 -169 631 -85 q 288 -253 450 -253 m 338 164 q 461 209 413 164 q 533 323 510 254 q 556 464 556 392 q 421 604 556 604 q 255 512 307 604 q 203 296 203 419 q 235 196 203 228 q 338 164 267 164 m 371 821 l 515 1004 l 689 1004 l 690 1000 l 511 821 l 371 821 z "},"ğ":{"ha":822,"x_min":-3,"x_max":775,"o":"m 0 0 m 288 -253 q 76 -201 154 -253 q -3 -49 -1 -149 l -3 -35 l 160 -35 q 197 -97 164 -78 q 292 -117 229 -117 q 494 82 457 -117 l 501 121 l 493 121 q 276 21 411 21 q 98 88 165 21 q 31 288 31 154 q 71 513 31 407 q 190 683 111 618 q 381 747 269 747 q 513 719 457 747 q 597 633 569 690 l 607 633 l 638 731 l 775 731 l 661 88 q 540 -169 631 -85 q 288 -253 450 -253 m 338 164 q 461 209 413 164 q 533 323 510 254 q 556 464 556 392 q 421 604 556 604 q 255 512 307 604 q 203 296 203 419 q 235 196 203 228 q 338 164 267 164 m 442 824 q 288 865 335 824 q 240 971 240 907 q 243 1004 240 993 l 354 1004 q 374 955 354 975 q 444 935 394 935 q 525 956 493 935 q 565 1004 557 978 l 676 1004 q 648 931 668 967 q 594 869 628 896 q 442 824 532 824 z "},"ǧ":{"ha":822,"x_min":-3,"x_max":775,"o":"m 0 0 m 288 -253 q 76 -201 154 -253 q -3 -49 -1 -149 l -3 -35 l 160 -35 q 197 -97 164 -78 q 292 -117 229 -117 q 494 82 457 -117 l 501 121 l 493 121 q 276 21 411 21 q 98 88 165 21 q 31 288 31 154 q 71 513 31 407 q 190 683 111 618 q 381 747 269 747 q 513 719 457 747 q 597 633 569 690 l 607 633 l 638 731 l 775 731 l 661 88 q 540 -169 631 -85 q 288 -253 450 -253 m 338 164 q 461 209 413 164 q 533 323 510 254 q 556 464 556 392 q 421 604 556 604 q 255 512 307 604 q 203 296 203 419 q 235 196 203 228 q 338 164 267 164 m 367 817 l 253 1004 l 390 1004 l 453 904 l 543 1004 l 696 1004 l 517 817 l 367 817 z "},"ĝ":{"ha":822,"x_min":-3,"x_max":775,"o":"m 0 0 m 288 -253 q 76 -201 154 -253 q -3 -49 -1 -149 l -3 -35 l 160 -35 q 197 -97 164 -78 q 292 -117 229 -117 q 494 82 457 -117 l 501 121 l 493 121 q 276 21 411 21 q 98 88 165 21 q 31 288 31 154 q 71 513 31 407 q 190 683 111 618 q 381 747 269 747 q 513 719 457 747 q 597 633 569 690 l 607 633 l 638 731 l 775 731 l 661 88 q 540 -169 631 -85 q 288 -253 450 -253 m 338 164 q 461 209 413 164 q 533 323 510 254 q 556 464 556 392 q 421 604 556 604 q 255 512 307 604 q 203 296 203 419 q 235 196 203 228 q 338 164 267 164 m 211 817 l 390 1004 l 540 1004 l 654 817 l 517 817 l 456 917 l 365 817 l 211 817 z "},"ģ":{"ha":822,"x_min":-3,"x_max":775,"o":"m 365 824 l 386 942 l 493 1083 l 581 1083 l 493 957 l 557 957 l 533 824 l 365 824 m 288 -253 q 76 -201 154 -253 q -3 -49 -1 -149 l -3 -35 l 160 -35 q 197 -97 164 -78 q 292 -117 229 -117 q 494 82 457 -117 l 501 121 l 493 121 q 276 21 411 21 q 98 88 165 21 q 31 288 31 154 q 71 513 31 407 q 190 683 111 618 q 381 747 269 747 q 513 719 457 747 q 597 633 569 690 l 607 633 l 638 731 l 775 731 l 661 88 q 540 -169 631 -85 q 288 -253 450 -253 m 338 164 q 461 209 413 164 q 533 323 510 254 q 556 464 556 392 q 421 604 556 604 q 255 512 307 604 q 203 296 203 419 q 235 196 203 228 q 338 164 267 164 z "},"ġ":{"ha":822,"x_min":-3,"x_max":775,"o":"m 0 0 m 288 -253 q 76 -201 154 -253 q -3 -49 -1 -149 l -3 -35 l 160 -35 q 197 -97 164 -78 q 292 -117 229 -117 q 494 82 457 -117 l 501 121 l 493 121 q 276 21 411 21 q 98 88 165 21 q 31 288 31 154 q 71 513 31 407 q 190 683 111 618 q 381 747 269 747 q 513 719 457 747 q 597 633 569 690 l 607 633 l 638 731 l 775 731 l 661 88 q 540 -169 631 -85 q 288 -253 450 -253 m 338 164 q 461 209 413 164 q 533 323 510 254 q 556 464 556 392 q 421 604 556 604 q 255 512 307 604 q 203 296 203 419 q 235 196 203 228 q 338 164 267 164 m 363 842 l 392 1006 l 556 1006 l 526 842 l 363 842 z "},"h":{"ha":822,"x_min":22,"x_max":747,"o":"m 199 1004 l 365 1004 l 303 647 l 311 647 q 413 719 353 692 q 536 747 472 747 q 690 702 632 747 q 747 561 747 657 q 735 451 747 524 l 654 0 l 488 0 l 565 442 q 574 510 574 492 q 548 581 574 560 q 475 603 522 603 q 335 547 396 603 q 258 393 275 492 l 189 0 l 22 0 l 199 1004 z "},"ħ":{"ha":822,"x_min":22,"x_max":747,"o":"m 165 819 l 81 819 l 97 914 l 182 914 l 199 1004 l 365 1004 l 349 914 l 556 914 l 539 819 l 332 819 l 303 647 l 311 647 q 413 719 353 692 q 536 747 472 747 q 690 702 632 747 q 747 561 747 657 q 735 451 747 524 l 654 0 l 488 0 l 565 442 q 574 510 574 492 q 548 581 574 560 q 475 603 522 603 q 335 547 396 603 q 258 393 275 492 l 189 0 l 22 0 l 165 819 z "},"ĥ":{"ha":822,"x_min":22,"x_max":747,"o":"m 22 0 m 199 1004 l 365 1004 l 303 647 l 311 647 q 413 719 353 692 q 536 747 472 747 q 690 702 632 747 q 747 561 747 657 q 735 451 747 524 l 654 0 l 488 0 l 565 442 q 574 510 574 492 q 548 581 574 560 q 475 603 522 603 q 335 547 396 603 q 258 393 275 492 l 189 0 l 22 0 l 199 1004 m 57 1039 l 236 1226 l 386 1226 l 500 1039 l 363 1039 l 301 1139 l 211 1039 l 57 1039 z "},"ḥ":{"ha":822,"x_min":22,"x_max":747,"o":"m 22 0 m 199 1004 l 365 1004 l 303 647 l 311 647 q 413 719 353 692 q 536 747 472 747 q 690 702 632 747 q 747 561 747 657 q 735 451 747 524 l 654 0 l 488 0 l 565 442 q 574 510 574 492 q 548 581 574 560 q 475 603 522 603 q 335 547 396 603 q 258 393 275 492 l 189 0 l 22 0 l 199 1004 m 222 -240 l 251 -76 l 415 -76 l 386 -240 l 222 -240 z "},"i":{"ha":360,"x_min":18,"x_max":361,"o":"m 167 844 l 194 1004 l 361 1004 l 333 844 l 167 844 m 18 0 l 147 731 l 314 731 l 185 0 l 18 0 z "},"ı":{"ha":386,"x_min":29,"x_max":325,"o":"m 29 0 l 158 731 l 325 731 l 196 0 l 29 0 z "},"í":{"ha":386,"x_min":29,"x_max":485,"o":"m 165 821 l 311 1004 l 483 1004 l 485 1000 l 303 821 l 165 821 m 29 0 l 158 731 l 325 731 l 196 0 l 29 0 z "},"ĭ":{"ha":386,"x_min":29,"x_max":492,"o":"m 29 0 m 29 0 l 158 731 l 325 731 l 196 0 l 29 0 m 257 824 q 103 865 150 824 q 56 971 56 907 q 58 1004 56 993 l 169 1004 q 190 955 169 975 q 260 935 210 935 q 340 956 308 935 q 381 1004 372 978 l 492 1004 q 463 931 483 967 q 410 869 443 896 q 257 824 347 824 z "},"ǐ":{"ha":386,"x_min":29,"x_max":511,"o":"m 29 0 m 29 0 l 158 731 l 325 731 l 196 0 l 29 0 m 182 817 l 68 1004 l 206 1004 l 268 904 l 358 1004 l 511 1004 l 332 817 l 182 817 z "},"î":{"ha":386,"x_min":22,"x_max":465,"o":"m 22 817 l 200 1004 l 351 1004 l 465 817 l 328 817 l 267 917 l 175 817 l 22 817 m 29 0 l 158 731 l 325 731 l 196 0 l 29 0 z "},"ȉ":{"ha":386,"x_min":-3,"x_max":461,"o":"m 0 0 m 29 0 l 158 731 l 325 731 l 196 0 l 29 0 m 104 821 l -3 1000 l 0 1004 l 167 1004 l 236 821 l 104 821 m 329 821 l 222 1000 l 225 1004 l 393 1004 l 461 821 l 329 821 z "},"ï":{"ha":386,"x_min":29,"x_max":497,"o":"m 40 851 l 67 1004 l 215 1004 l 189 851 l 40 851 m 319 851 l 347 1004 l 497 1004 l 469 851 l 319 851 m 29 0 l 158 731 l 325 731 l 196 0 l 29 0 z "},"ị":{"ha":360,"x_min":-24,"x_max":361,"o":"m 0 0 m 167 844 l 194 1004 l 361 1004 l 333 844 l 167 844 m 18 0 l 147 731 l 314 731 l 185 0 l 18 0 m -24 -240 l 6 -76 l 169 -76 l 140 -240 l -24 -240 z "},"ì":{"ha":386,"x_min":29,"x_max":332,"o":"m 204 821 l 86 1000 l 88 1004 l 250 1004 l 332 821 l 204 821 m 29 0 l 158 731 l 325 731 l 196 0 l 29 0 z "},"ỉ":{"ha":386,"x_min":29,"x_max":429,"o":"m 29 0 m 29 0 l 158 731 l 325 731 l 196 0 l 29 0 m 228 899 l 247 899 q 283 906 272 899 q 294 931 294 914 q 284 947 294 943 q 251 951 274 951 l 171 951 l 181 1010 q 293 1021 233 1021 q 388 1005 347 1021 q 429 950 429 989 q 394 884 429 907 q 310 857 360 861 l 303 821 l 214 821 l 228 899 z "},"ȋ":{"ha":386,"x_min":29,"x_max":476,"o":"m 29 0 m 29 0 l 158 731 l 325 731 l 196 0 l 29 0 m 42 824 q 111 952 54 900 q 289 1004 168 1004 q 427 958 378 1004 q 476 849 476 913 q 474 824 476 840 l 364 824 q 342 872 365 850 q 269 893 319 893 q 191 872 219 893 q 153 824 163 851 l 42 824 z "},"ĳ":{"ha":719,"x_min":18,"x_max":721,"o":"m 18 0 m 167 844 l 194 1004 l 361 1004 l 333 844 l 167 844 m 18 0 l 147 731 l 314 731 l 185 0 l 18 0 m 526 844 l 554 1004 l 721 1004 l 693 844 l 526 844 m 332 -253 q 265 -247 301 -253 q 208 -232 229 -240 l 228 -118 l 296 -118 q 368 -56 357 -118 l 507 731 l 674 731 l 533 -67 q 332 -253 500 -253 z "},"ī":{"ha":386,"x_min":29,"x_max":486,"o":"m 43 888 l 63 1001 l 486 1001 l 467 888 l 43 888 m 29 0 l 158 731 l 325 731 l 196 0 l 29 0 z "},"į":{"ha":386,"x_min":-65,"x_max":371,"o":"m 207 1006 l 371 1006 l 342 842 l 178 842 l 207 1006 m 158 731 l 325 731 l 196 0 l 142 0 q 97 -52 117 -21 q 76 -115 76 -83 q 135 -169 76 -169 l 172 -169 l 158 -244 q 60 -264 103 -264 q -29 -238 7 -264 q -65 -158 -65 -212 q -39 -71 -65 -108 q 31 0 -12 -33 l 29 0 l 158 731 z "},"ĩ":{"ha":386,"x_min":7,"x_max":496,"o":"m 7 843 q 57 958 18 913 q 158 1004 96 1004 q 257 979 199 1004 q 347 956 313 956 q 401 1004 386 956 l 496 1004 q 444 888 483 933 q 342 843 406 843 q 295 849 317 843 q 243 868 274 856 q 195 885 215 879 q 153 892 175 892 q 100 843 115 892 l 7 843 m 29 0 l 158 731 l 325 731 l 196 0 l 29 0 z "},"j":{"ha":360,"x_min":-151,"x_max":361,"o":"m 167 844 l 194 1004 l 361 1004 l 333 844 l 167 844 m -28 -253 q -94 -247 -58 -253 q -151 -232 -131 -240 l -132 -118 l -64 -118 q 8 -56 -3 -118 l 147 731 l 314 731 l 174 -67 q -28 -253 140 -253 z "},"ȷ":{"ha":360,"x_min":-151,"x_max":314,"o":"m -28 -253 q -94 -247 -58 -253 q -151 -232 -131 -240 l -132 -118 l -64 -118 q 8 -56 -3 -118 l 147 731 l 314 731 l 174 -67 q -28 -253 140 -253 z "},"ĵ":{"ha":360,"x_min":-151,"x_max":450,"o":"m 6 817 l 185 1004 l 336 1004 l 450 817 l 311 817 l 250 917 l 160 817 l 6 817 m -28 -253 q -94 -247 -58 -253 q -151 -232 -131 -240 l -132 -118 l -64 -118 q 8 -56 -3 -118 l 147 731 l 314 731 l 174 -67 q -28 -253 140 -253 z "},"k":{"ha":746,"x_min":18,"x_max":775,"o":"m 18 0 l 194 1004 l 361 1004 l 258 417 l 579 731 l 775 731 l 481 443 l 660 0 l 479 0 l 361 326 l 224 218 l 185 0 l 18 0 z "},"ķ":{"ha":746,"x_min":18,"x_max":775,"o":"m 18 0 m 18 0 l 194 1004 l 361 1004 l 258 417 l 579 731 l 775 731 l 481 443 l 660 0 l 479 0 l 361 326 l 224 218 l 185 0 l 18 0 m 194 -319 l 279 -197 l 215 -197 l 239 -64 l 407 -64 l 386 -183 l 283 -319 l 194 -319 z "},"ĸ":{"ha":746,"x_min":18,"x_max":775,"o":"m 18 0 l 146 731 l 313 731 l 258 417 l 579 731 l 775 731 l 481 443 l 660 0 l 479 0 l 361 326 l 224 218 l 185 0 l 18 0 z "},"l":{"ha":360,"x_min":18,"x_max":361,"o":"m 18 0 l 194 1004 l 361 1004 l 185 0 l 18 0 z "},"ĺ":{"ha":360,"x_min":18,"x_max":540,"o":"m 18 0 m 18 0 l 194 1004 l 361 1004 l 185 0 l 18 0 m 221 1043 l 365 1226 l 539 1226 l 540 1222 l 361 1043 l 221 1043 z "},"ľ":{"ha":490,"x_min":18,"x_max":599,"o":"m 18 0 l 194 1004 l 361 1004 l 185 0 l 18 0 m 375 638 l 468 793 l 404 793 l 432 953 l 599 953 l 574 808 l 463 638 l 375 638 z "},"ļ":{"ha":360,"x_min":-37,"x_max":361,"o":"m 0 0 m 18 0 l 194 1004 l 361 1004 l 185 0 l 18 0 m -37 -319 l 47 -197 l -17 -197 l 7 -64 l 175 -64 l 154 -183 l 51 -319 l -37 -319 z "},"ŀ":{"ha":471,"x_min":18,"x_max":529,"o":"m 18 0 m 18 0 l 194 1004 l 361 1004 l 185 0 l 18 0 m 325 408 l 357 585 l 529 585 l 497 408 l 325 408 z "},"ǉ":{"ha":719,"x_min":18,"x_max":721,"o":"m 18 0 m 18 0 l 194 1004 l 361 1004 l 185 0 l 18 0 m 526 844 l 554 1004 l 721 1004 l 693 844 l 526 844 m 332 -253 q 265 -247 301 -253 q 208 -232 229 -240 l 228 -118 l 296 -118 q 368 -56 357 -118 l 507 731 l 674 731 l 533 -67 q 332 -253 500 -253 z "},"ł":{"ha":360,"x_min":-24,"x_max":403,"o":"m 19 0 l 83 363 l -24 293 l -1 422 l 107 493 l 196 1004 l 363 1004 l 294 613 l 403 683 l 379 554 l 271 483 l 186 0 l 19 0 z "},"m":{"ha":1208,"x_min":22,"x_max":1135,"o":"m 151 731 l 286 731 l 286 632 l 296 632 q 519 747 392 747 q 635 719 589 747 q 699 632 682 690 l 708 632 q 814 716 754 685 q 940 747 874 747 q 1135 564 1135 747 q 1124 467 1135 525 l 1040 0 l 874 0 l 953 450 q 961 513 961 497 q 869 603 961 603 q 753 547 804 603 q 686 404 701 492 l 615 0 l 449 0 l 528 450 q 535 513 535 489 q 444 603 535 603 q 327 547 379 603 q 260 404 275 492 l 189 0 l 22 0 l 151 731 z "},"n":{"ha":822,"x_min":22,"x_max":747,"o":"m 151 731 l 286 731 l 286 632 l 296 632 q 402 715 338 682 q 536 747 467 747 q 690 702 632 747 q 747 561 747 657 q 735 451 747 524 l 654 0 l 488 0 l 565 442 q 574 510 574 492 q 548 581 574 560 q 475 603 522 603 q 335 547 396 603 q 258 393 275 492 l 189 0 l 22 0 l 151 731 z "},"ń":{"ha":822,"x_min":22,"x_max":747,"o":"m 22 0 m 151 731 l 286 731 l 286 632 l 296 632 q 402 715 338 682 q 536 747 467 747 q 690 702 632 747 q 747 561 747 657 q 735 451 747 524 l 654 0 l 488 0 l 565 442 q 574 510 574 492 q 548 581 574 560 q 475 603 522 603 q 335 547 396 603 q 258 393 275 492 l 189 0 l 22 0 l 151 731 m 419 821 l 564 1004 l 738 1004 l 739 1000 l 560 821 l 419 821 z "},"ŉ":{"ha":933,"x_min":35,"x_max":858,"o":"m 35 638 l 125 793 l 63 793 l 90 953 l 256 953 l 231 808 l 121 638 l 35 638 m 263 731 l 397 731 l 397 632 l 407 632 q 513 715 449 682 q 647 747 578 747 q 801 702 743 747 q 858 561 858 657 q 846 451 858 524 l 765 0 l 599 0 l 676 442 q 685 510 685 492 q 659 581 685 560 q 586 603 633 603 q 447 547 507 603 q 369 393 386 492 l 300 0 l 133 0 l 263 731 z "},"ň":{"ha":822,"x_min":22,"x_max":747,"o":"m 22 0 m 151 731 l 286 731 l 286 632 l 296 632 q 402 715 338 682 q 536 747 467 747 q 690 702 632 747 q 747 561 747 657 q 735 451 747 524 l 654 0 l 488 0 l 565 442 q 574 510 574 492 q 548 581 574 560 q 475 603 522 603 q 335 547 396 603 q 258 393 275 492 l 189 0 l 22 0 l 151 731 m 415 817 l 301 1004 l 439 1004 l 501 904 l 592 1004 l 744 1004 l 565 817 l 415 817 z "},"ņ":{"ha":822,"x_min":22,"x_max":747,"o":"m 22 0 m 151 731 l 286 731 l 286 632 l 296 632 q 402 715 338 682 q 536 747 467 747 q 690 702 632 747 q 747 561 747 657 q 735 451 747 524 l 654 0 l 488 0 l 565 442 q 574 510 574 492 q 548 581 574 560 q 475 603 522 603 q 335 547 396 603 q 258 393 275 492 l 189 0 l 22 0 l 151 731 m 208 -319 l 293 -197 l 229 -197 l 253 -64 l 421 -64 l 400 -183 l 297 -319 l 208 -319 z "},"ṅ":{"ha":822,"x_min":22,"x_max":747,"o":"m 22 0 m 151 731 l 286 731 l 286 632 l 296 632 q 402 715 338 682 q 536 747 467 747 q 690 702 632 747 q 747 561 747 657 q 735 451 747 524 l 654 0 l 488 0 l 565 442 q 574 510 574 492 q 548 581 574 560 q 475 603 522 603 q 335 547 396 603 q 258 393 275 492 l 189 0 l 22 0 l 151 731 m 411 842 l 440 1006 l 604 1006 l 575 842 l 411 842 z "},"ŋ":{"ha":822,"x_min":22,"x_max":747,"o":"m 443 -253 q 375 -247 411 -253 q 318 -232 339 -240 l 338 -118 l 406 -118 q 478 -56 467 -118 l 565 442 q 574 510 574 492 q 548 581 574 560 q 475 603 522 603 q 335 547 396 603 q 258 393 275 492 l 189 0 l 22 0 l 151 731 l 286 731 l 286 632 l 296 632 q 402 715 338 682 q 536 747 467 747 q 690 702 632 747 q 747 561 747 657 q 735 451 747 524 l 643 -67 q 443 -253 610 -253 z "},"ɲ":{"ha":822,"x_min":-147,"x_max":747,"o":"m -24 -253 q -91 -247 -56 -253 q -147 -232 -126 -240 l -128 -118 l -60 -118 q 13 -56 1 -118 l 151 731 l 286 731 l 286 632 l 296 632 q 402 715 338 682 q 536 747 467 747 q 690 702 632 747 q 747 561 747 657 q 735 451 747 524 l 654 0 l 488 0 l 565 442 q 574 510 574 492 q 548 581 574 560 q 475 603 522 603 q 335 547 396 603 q 258 393 275 492 l 176 -67 q 116 -200 163 -147 q -24 -253 69 -253 z "},"ǌ":{"ha":1182,"x_min":22,"x_max":1183,"o":"m 22 0 m 151 731 l 286 731 l 286 632 l 296 632 q 402 715 338 682 q 536 747 467 747 q 690 702 632 747 q 747 561 747 657 q 735 451 747 524 l 654 0 l 488 0 l 565 442 q 574 510 574 492 q 548 581 574 560 q 475 603 522 603 q 335 547 396 603 q 258 393 275 492 l 189 0 l 22 0 l 151 731 m 989 844 l 1017 1004 l 1183 1004 l 1156 844 l 989 844 m 794 -253 q 728 -247 764 -253 q 671 -232 692 -240 l 690 -118 l 758 -118 q 831 -56 819 -118 l 969 731 l 1136 731 l 996 -67 q 794 -253 963 -253 z "},"ñ":{"ha":822,"x_min":22,"x_max":754,"o":"m 22 0 m 151 731 l 286 731 l 286 632 l 296 632 q 402 715 338 682 q 536 747 467 747 q 690 702 632 747 q 747 561 747 657 q 735 451 747 524 l 654 0 l 488 0 l 565 442 q 574 510 574 492 q 548 581 574 560 q 475 603 522 603 q 335 547 396 603 q 258 393 275 492 l 189 0 l 22 0 l 151 731 m 265 843 q 315 958 276 913 q 417 1004 354 1004 q 515 979 457 1004 q 606 956 571 956 q 660 1004 644 956 l 754 1004 q 703 888 742 933 q 600 843 664 843 q 553 849 575 843 q 503 868 531 856 q 455 885 475 879 q 413 892 435 892 q 358 843 374 892 l 265 843 z "},"o":{"ha":822,"x_min":32,"x_max":758,"o":"m 351 -17 q 186 21 258 -17 q 74 126 114 58 q 32 282 33 193 q 42 396 32 343 q 167 658 69 568 q 438 747 265 747 q 604 710 532 747 q 717 606 676 674 q 758 450 757 538 q 750 335 758 393 q 351 -17 692 -17 m 363 121 q 517 179 463 121 q 589 364 572 238 q 596 453 596 404 q 550 569 594 528 q 425 611 506 611 q 272 552 326 611 q 201 367 218 493 q 196 278 196 324 q 240 163 197 204 q 363 121 283 121 z "},"ó":{"ha":822,"x_min":32,"x_max":758,"o":"m 32 0 m 351 -17 q 186 21 258 -17 q 74 126 114 58 q 32 282 33 193 q 42 396 32 343 q 167 658 69 568 q 438 747 265 747 q 604 710 532 747 q 717 606 676 674 q 758 450 757 538 q 750 335 758 393 q 351 -17 692 -17 m 363 121 q 517 179 463 121 q 589 364 572 238 q 596 453 596 404 q 550 569 594 528 q 425 611 506 611 q 272 552 326 611 q 201 367 218 493 q 196 278 196 324 q 240 163 197 204 q 363 121 283 121 m 381 821 l 525 1004 l 699 1004 l 700 1000 l 521 821 l 381 821 z "},"ŏ":{"ha":822,"x_min":32,"x_max":758,"o":"m 32 0 m 351 -17 q 186 21 258 -17 q 74 126 114 58 q 32 282 33 193 q 42 396 32 343 q 167 658 69 568 q 438 747 265 747 q 604 710 532 747 q 717 606 676 674 q 758 450 757 538 q 750 335 758 393 q 351 -17 692 -17 m 363 121 q 517 179 463 121 q 589 364 572 238 q 596 453 596 404 q 550 569 594 528 q 425 611 506 611 q 272 552 326 611 q 201 367 218 493 q 196 278 196 324 q 240 163 197 204 q 363 121 283 121 m 451 824 q 297 865 344 824 q 250 971 250 907 q 253 1004 250 993 l 364 1004 q 384 955 364 975 q 454 935 404 935 q 535 956 503 935 q 575 1004 567 978 l 686 1004 q 658 931 678 967 q 604 869 638 896 q 451 824 542 824 z "},"ǒ":{"ha":822,"x_min":32,"x_max":758,"o":"m 32 0 m 351 -17 q 186 21 258 -17 q 74 126 114 58 q 32 282 33 193 q 42 396 32 343 q 167 658 69 568 q 438 747 265 747 q 604 710 532 747 q 717 606 676 674 q 758 450 757 538 q 750 335 758 393 q 351 -17 692 -17 m 363 121 q 517 179 463 121 q 589 364 572 238 q 596 453 596 404 q 550 569 594 528 q 425 611 506 611 q 272 552 326 611 q 201 367 218 493 q 196 278 196 324 q 240 163 197 204 q 363 121 283 121 m 376 817 l 263 1004 l 400 1004 l 463 904 l 553 1004 l 706 1004 l 526 817 l 376 817 z "},"ô":{"ha":822,"x_min":32,"x_max":758,"o":"m 32 0 m 351 -17 q 186 21 258 -17 q 74 126 114 58 q 32 282 33 193 q 42 396 32 343 q 167 658 69 568 q 438 747 265 747 q 604 710 532 747 q 717 606 676 674 q 758 450 757 538 q 750 335 758 393 q 351 -17 692 -17 m 363 121 q 517 179 463 121 q 589 364 572 238 q 596 453 596 404 q 550 569 594 528 q 425 611 506 611 q 272 552 326 611 q 201 367 218 493 q 196 278 196 324 q 240 163 197 204 q 363 121 283 121 m 221 817 l 400 1004 l 550 1004 l 664 817 l 526 817 l 465 917 l 375 817 l 221 817 z "},"ố":{"ha":822,"x_min":32,"x_max":918,"o":"m 32 0 m 351 -17 q 186 21 258 -17 q 74 126 114 58 q 32 282 33 193 q 42 396 32 343 q 167 658 69 568 q 438 747 265 747 q 604 710 532 747 q 717 606 676 674 q 758 450 757 538 q 750 335 758 393 q 351 -17 692 -17 m 363 121 q 517 179 463 121 q 589 364 572 238 q 596 453 596 404 q 550 569 594 528 q 425 611 506 611 q 272 552 326 611 q 201 367 218 493 q 196 278 196 324 q 240 163 197 204 q 363 121 283 121 m 221 817 l 400 1004 l 550 1004 l 664 817 l 526 817 l 465 917 l 375 817 l 221 817 m 599 953 l 743 1136 l 917 1136 l 918 1132 l 739 953 l 599 953 z "},"ộ":{"ha":822,"x_min":32,"x_max":758,"o":"m 32 0 m 351 -17 q 186 21 258 -17 q 74 126 114 58 q 32 282 33 193 q 42 396 32 343 q 167 658 69 568 q 438 747 265 747 q 604 710 532 747 q 717 606 676 674 q 758 450 757 538 q 750 335 758 393 q 351 -17 692 -17 m 363 121 q 517 179 463 121 q 589 364 572 238 q 596 453 596 404 q 550 569 594 528 q 425 611 506 611 q 272 552 326 611 q 201 367 218 493 q 196 278 196 324 q 240 163 197 204 q 363 121 283 121 m 221 817 l 400 1004 l 550 1004 l 664 817 l 526 817 l 465 917 l 375 817 l 221 817 m 222 -240 l 251 -76 l 415 -76 l 386 -240 l 222 -240 z "},"ồ":{"ha":822,"x_min":32,"x_max":788,"o":"m 32 0 m 351 -17 q 186 21 258 -17 q 74 126 114 58 q 32 282 33 193 q 42 396 32 343 q 167 658 69 568 q 438 747 265 747 q 604 710 532 747 q 717 606 676 674 q 758 450 757 538 q 750 335 758 393 q 351 -17 692 -17 m 363 121 q 517 179 463 121 q 589 364 572 238 q 596 453 596 404 q 550 569 594 528 q 425 611 506 611 q 272 552 326 611 q 201 367 218 493 q 196 278 196 324 q 240 163 197 204 q 363 121 283 121 m 221 817 l 400 1004 l 550 1004 l 664 817 l 526 817 l 465 917 l 375 817 l 221 817 m 661 953 l 543 1132 l 544 1136 l 707 1136 l 788 953 l 661 953 z "},"ổ":{"ha":822,"x_min":32,"x_max":840,"o":"m 32 0 m 351 -17 q 186 21 258 -17 q 74 126 114 58 q 32 282 33 193 q 42 396 32 343 q 167 658 69 568 q 438 747 265 747 q 604 710 532 747 q 717 606 676 674 q 758 450 757 538 q 750 335 758 393 q 351 -17 692 -17 m 363 121 q 517 179 463 121 q 589 364 572 238 q 596 453 596 404 q 550 569 594 528 q 425 611 506 611 q 272 552 326 611 q 201 367 218 493 q 196 278 196 324 q 240 163 197 204 q 363 121 283 121 m 221 817 l 400 1004 l 550 1004 l 664 817 l 526 817 l 465 917 l 375 817 l 221 817 m 639 1031 l 658 1031 q 694 1038 683 1031 q 706 1063 706 1046 q 695 1079 706 1075 q 663 1083 685 1083 l 582 1083 l 592 1142 q 704 1153 644 1153 q 799 1137 758 1153 q 840 1082 840 1121 q 806 1016 840 1039 q 721 989 771 993 l 714 953 l 625 953 l 639 1031 z "},"ỗ":{"ha":822,"x_min":32,"x_max":758,"o":"m 32 0 m 351 -17 q 186 21 258 -17 q 74 126 114 58 q 32 282 33 193 q 42 396 32 343 q 167 658 69 568 q 438 747 265 747 q 604 710 532 747 q 717 606 676 674 q 758 450 757 538 q 750 335 758 393 q 351 -17 692 -17 m 363 121 q 517 179 463 121 q 589 364 572 238 q 596 453 596 404 q 550 569 594 528 q 425 611 506 611 q 272 552 326 611 q 201 367 218 493 q 196 278 196 324 q 240 163 197 204 q 363 121 283 121 m 221 817 l 400 1004 l 550 1004 l 664 817 l 526 817 l 465 917 l 375 817 l 221 817 m 258 1065 q 308 1181 269 1135 q 410 1226 347 1226 q 508 1201 450 1226 q 599 1178 564 1178 q 653 1226 638 1178 l 747 1226 q 696 1110 735 1156 q 593 1065 657 1065 q 546 1072 568 1065 q 496 1090 524 1078 q 448 1108 468 1101 q 406 1114 428 1114 q 351 1065 367 1114 l 258 1065 z "},"ȍ":{"ha":822,"x_min":32,"x_max":758,"o":"m 32 0 m 351 -17 q 186 21 258 -17 q 74 126 114 58 q 32 282 33 193 q 42 396 32 343 q 167 658 69 568 q 438 747 265 747 q 604 710 532 747 q 717 606 676 674 q 758 450 757 538 q 750 335 758 393 q 351 -17 692 -17 m 363 121 q 517 179 463 121 q 589 364 572 238 q 596 453 596 404 q 550 569 594 528 q 425 611 506 611 q 272 552 326 611 q 201 367 218 493 q 196 278 196 324 q 240 163 197 204 q 363 121 283 121 m 299 821 l 192 1000 l 194 1004 l 361 1004 l 431 821 l 299 821 m 524 821 l 417 1000 l 419 1004 l 588 1004 l 656 821 l 524 821 z "},"ö":{"ha":822,"x_min":32,"x_max":758,"o":"m 32 0 m 351 -17 q 186 21 258 -17 q 74 126 114 58 q 32 282 33 193 q 42 396 32 343 q 167 658 69 568 q 438 747 265 747 q 604 710 532 747 q 717 606 676 674 q 758 450 757 538 q 750 335 758 393 q 351 -17 692 -17 m 363 121 q 517 179 463 121 q 589 364 572 238 q 596 453 596 404 q 550 569 594 528 q 425 611 506 611 q 272 552 326 611 q 201 367 218 493 q 196 278 196 324 q 240 163 197 204 q 363 121 283 121 m 243 851 l 269 1004 l 418 1004 l 392 851 l 243 851 m 522 851 l 550 1004 l 700 1004 l 672 851 l 522 851 z "},"ọ":{"ha":822,"x_min":32,"x_max":758,"o":"m 32 0 m 351 -17 q 186 21 258 -17 q 74 126 114 58 q 32 282 33 193 q 42 396 32 343 q 167 658 69 568 q 438 747 265 747 q 604 710 532 747 q 717 606 676 674 q 758 450 757 538 q 750 335 758 393 q 351 -17 692 -17 m 363 121 q 517 179 463 121 q 589 364 572 238 q 596 453 596 404 q 550 569 594 528 q 425 611 506 611 q 272 552 326 611 q 201 367 218 493 q 196 278 196 324 q 240 163 197 204 q 363 121 283 121 m 222 -240 l 251 -76 l 415 -76 l 386 -240 l 222 -240 z "},"ò":{"ha":822,"x_min":32,"x_max":758,"o":"m 32 0 m 351 -17 q 186 21 258 -17 q 74 126 114 58 q 32 282 33 193 q 42 396 32 343 q 167 658 69 568 q 438 747 265 747 q 604 710 532 747 q 717 606 676 674 q 758 450 757 538 q 750 335 758 393 q 351 -17 692 -17 m 363 121 q 517 179 463 121 q 589 364 572 238 q 596 453 596 404 q 550 569 594 528 q 425 611 506 611 q 272 552 326 611 q 201 367 218 493 q 196 278 196 324 q 240 163 197 204 q 363 121 283 121 m 389 821 l 271 1000 l 272 1004 l 435 1004 l 515 821 l 389 821 z "},"ỏ":{"ha":822,"x_min":32,"x_max":758,"o":"m 32 0 m 351 -17 q 186 21 258 -17 q 74 126 114 58 q 32 282 33 193 q 42 396 32 343 q 167 658 69 568 q 438 747 265 747 q 604 710 532 747 q 717 606 676 674 q 758 450 757 538 q 750 335 758 393 q 351 -17 692 -17 m 363 121 q 517 179 463 121 q 589 364 572 238 q 596 453 596 404 q 550 569 594 528 q 425 611 506 611 q 272 552 326 611 q 201 367 218 493 q 196 278 196 324 q 240 163 197 204 q 363 121 283 121 m 422 899 l 442 899 q 478 906 467 899 q 489 931 489 914 q 478 947 489 943 q 446 951 468 951 l 365 951 l 375 1010 q 488 1021 428 1021 q 583 1005 542 1021 q 624 950 624 989 q 589 884 624 907 q 504 857 554 861 l 497 821 l 408 821 l 422 899 z "},"ơ":{"ha":822,"x_min":32,"x_max":932,"o":"m 932 953 l 918 878 q 851 706 900 772 q 715 607 801 640 q 758 450 756 543 q 750 335 758 393 q 351 -17 692 -17 q 186 21 258 -17 q 74 126 114 58 q 32 282 33 193 q 42 396 32 343 q 167 658 69 568 q 435 747 264 747 q 654 678 567 747 q 788 776 751 706 l 713 776 l 744 953 l 932 953 m 589 364 q 596 453 596 404 q 550 569 594 528 q 425 611 506 611 q 272 552 326 611 q 201 367 218 493 q 196 278 196 324 q 240 163 197 204 q 363 121 283 121 q 517 179 463 121 q 589 364 572 238 z "},"ớ":{"ha":822,"x_min":32,"x_max":932,"o":"m 32 0 m 932 953 l 918 878 q 851 706 900 772 q 715 607 801 640 q 758 450 756 543 q 750 335 758 393 q 351 -17 692 -17 q 186 21 258 -17 q 74 126 114 58 q 32 282 33 193 q 42 396 32 343 q 167 658 69 568 q 435 747 264 747 q 654 678 567 747 q 788 776 751 706 l 713 776 l 744 953 l 932 953 m 589 364 q 596 453 596 404 q 550 569 594 528 q 425 611 506 611 q 272 552 326 611 q 201 367 218 493 q 196 278 196 324 q 240 163 197 204 q 363 121 283 121 q 517 179 463 121 q 589 364 572 238 m 381 821 l 525 1004 l 699 1004 l 700 1000 l 521 821 l 381 821 z "},"ợ":{"ha":822,"x_min":32,"x_max":932,"o":"m 32 0 m 932 953 l 918 878 q 851 706 900 772 q 715 607 801 640 q 758 450 756 543 q 750 335 758 393 q 351 -17 692 -17 q 186 21 258 -17 q 74 126 114 58 q 32 282 33 193 q 42 396 32 343 q 167 658 69 568 q 435 747 264 747 q 654 678 567 747 q 788 776 751 706 l 713 776 l 744 953 l 932 953 m 589 364 q 596 453 596 404 q 550 569 594 528 q 425 611 506 611 q 272 552 326 611 q 201 367 218 493 q 196 278 196 324 q 240 163 197 204 q 363 121 283 121 q 517 179 463 121 q 589 364 572 238 m 222 -240 l 251 -76 l 415 -76 l 386 -240 l 222 -240 z "},"ờ":{"ha":822,"x_min":32,"x_max":932,"o":"m 32 0 m 932 953 l 918 878 q 851 706 900 772 q 715 607 801 640 q 758 450 756 543 q 750 335 758 393 q 351 -17 692 -17 q 186 21 258 -17 q 74 126 114 58 q 32 282 33 193 q 42 396 32 343 q 167 658 69 568 q 435 747 264 747 q 654 678 567 747 q 788 776 751 706 l 713 776 l 744 953 l 932 953 m 589 364 q 596 453 596 404 q 550 569 594 528 q 425 611 506 611 q 272 552 326 611 q 201 367 218 493 q 196 278 196 324 q 240 163 197 204 q 363 121 283 121 q 517 179 463 121 q 589 364 572 238 m 389 821 l 271 1000 l 272 1004 l 435 1004 l 515 821 l 389 821 z "},"ở":{"ha":822,"x_min":32,"x_max":932,"o":"m 32 0 m 932 953 l 918 878 q 851 706 900 772 q 715 607 801 640 q 758 450 756 543 q 750 335 758 393 q 351 -17 692 -17 q 186 21 258 -17 q 74 126 114 58 q 32 282 33 193 q 42 396 32 343 q 167 658 69 568 q 435 747 264 747 q 654 678 567 747 q 788 776 751 706 l 713 776 l 744 953 l 932 953 m 589 364 q 596 453 596 404 q 550 569 594 528 q 425 611 506 611 q 272 552 326 611 q 201 367 218 493 q 196 278 196 324 q 240 163 197 204 q 363 121 283 121 q 517 179 463 121 q 589 364 572 238 m 422 899 l 442 899 q 478 906 467 899 q 489 931 489 914 q 478 947 489 943 q 446 951 468 951 l 365 951 l 375 1010 q 488 1021 428 1021 q 583 1005 542 1021 q 624 950 624 989 q 589 884 624 907 q 504 857 554 861 l 497 821 l 408 821 l 422 899 z "},"ỡ":{"ha":822,"x_min":32,"x_max":932,"o":"m 32 0 m 932 953 l 918 878 q 851 706 900 772 q 715 607 801 640 q 758 450 756 543 q 750 335 758 393 q 351 -17 692 -17 q 186 21 258 -17 q 74 126 114 58 q 32 282 33 193 q 42 396 32 343 q 167 658 69 568 q 435 747 264 747 q 654 678 567 747 q 788 776 751 706 l 713 776 l 744 953 l 932 953 m 589 364 q 596 453 596 404 q 550 569 594 528 q 425 611 506 611 q 272 552 326 611 q 201 367 218 493 q 196 278 196 324 q 240 163 197 204 q 363 121 283 121 q 517 179 463 121 q 589 364 572 238 m 226 843 q 276 958 238 913 q 378 1004 315 1004 q 476 979 418 1004 q 567 956 532 956 q 621 1004 606 956 l 715 1004 q 664 888 703 933 q 561 843 625 843 q 514 849 536 843 q 464 868 492 856 q 416 885 436 879 q 374 892 396 892 q 319 843 335 892 l 226 843 z "},"ő":{"ha":822,"x_min":32,"x_max":806,"o":"m 32 0 m 351 -17 q 186 21 258 -17 q 74 126 114 58 q 32 282 33 193 q 42 396 32 343 q 167 658 69 568 q 438 747 265 747 q 604 710 532 747 q 717 606 676 674 q 758 450 757 538 q 750 335 758 393 q 351 -17 692 -17 m 363 121 q 517 179 463 121 q 589 364 572 238 q 596 453 596 404 q 550 569 594 528 q 425 611 506 611 q 272 552 326 611 q 201 367 218 493 q 196 278 196 324 q 240 163 197 204 q 363 121 283 121 m 268 821 l 400 1004 l 574 1004 l 575 1000 l 404 821 l 268 821 m 499 821 l 632 1004 l 804 1004 l 806 1000 l 636 821 l 499 821 z "},"ȏ":{"ha":822,"x_min":32,"x_max":758,"o":"m 32 0 m 351 -17 q 186 21 258 -17 q 74 126 114 58 q 32 282 33 193 q 42 396 32 343 q 167 658 69 568 q 438 747 265 747 q 604 710 532 747 q 717 606 676 674 q 758 450 757 538 q 750 335 758 393 q 351 -17 692 -17 m 363 121 q 517 179 463 121 q 589 364 572 238 q 596 453 596 404 q 550 569 594 528 q 425 611 506 611 q 272 552 326 611 q 201 367 218 493 q 196 278 196 324 q 240 163 197 204 q 363 121 283 121 m 236 824 q 306 952 249 900 q 483 1004 363 1004 q 622 958 572 1004 q 671 849 671 913 q 668 824 671 840 l 558 824 q 537 872 560 850 q 464 893 514 893 q 385 872 414 893 q 347 824 357 851 l 236 824 z "},"ō":{"ha":822,"x_min":32,"x_max":758,"o":"m 32 0 m 351 -17 q 186 21 258 -17 q 74 126 114 58 q 32 282 33 193 q 42 396 32 343 q 167 658 69 568 q 438 747 265 747 q 604 710 532 747 q 717 606 676 674 q 758 450 757 538 q 750 335 758 393 q 351 -17 692 -17 m 363 121 q 517 179 463 121 q 589 364 572 238 q 596 453 596 404 q 550 569 594 528 q 425 611 506 611 q 272 552 326 611 q 201 367 218 493 q 196 278 196 324 q 240 163 197 204 q 363 121 283 121 m 247 857 l 268 971 l 692 971 l 671 857 l 247 857 z "},"ǫ":{"ha":822,"x_min":32,"x_max":758,"o":"m 438 747 q 604 710 532 747 q 717 606 676 674 q 758 450 757 538 q 750 335 758 393 q 525 13 710 86 l 525 11 q 480 -41 500 -10 q 460 -104 460 -72 q 518 -158 460 -158 l 556 -158 l 542 -233 q 443 -253 486 -253 q 354 -227 390 -253 q 318 -147 318 -201 q 381 -17 318 -76 l 354 -17 q 188 20 260 -17 q 74 125 115 57 q 32 282 33 193 q 42 396 32 343 q 167 658 69 568 q 438 747 265 747 m 589 364 q 596 453 596 404 q 550 569 594 528 q 425 611 506 611 q 272 552 326 611 q 201 367 218 493 q 196 278 196 324 q 240 163 197 204 q 363 121 283 121 q 517 179 463 121 q 589 364 572 238 z "},"ø":{"ha":849,"x_min":-17,"x_max":832,"o":"m 101 71 q 38 263 38 139 q 77 500 38 390 q 206 678 117 610 q 436 747 296 747 q 643 708 564 747 l 719 799 l 832 799 l 713 658 q 776 465 776 590 q 736 228 776 338 q 606 51 696 119 q 376 -17 517 -17 q 171 21 250 -17 l 96 -68 l -17 -68 l 101 71 m 540 589 q 444 611 503 611 q 299 554 351 611 q 224 392 246 497 q 211 275 211 328 q 219 208 211 238 l 540 589 m 368 119 q 510 172 458 119 q 585 322 563 224 q 603 454 603 400 q 594 519 603 481 l 272 140 q 368 119 310 119 z "},"ǿ":{"ha":849,"x_min":-17,"x_max":832,"o":"m 0 0 m 101 71 q 38 263 38 139 q 77 500 38 390 q 206 678 117 610 q 436 747 296 747 q 643 708 564 747 l 719 799 l 832 799 l 713 658 q 776 465 776 590 q 736 228 776 338 q 606 51 696 119 q 376 -17 517 -17 q 171 21 250 -17 l 96 -68 l -17 -68 l 101 71 m 540 589 q 444 611 503 611 q 299 554 351 611 q 224 392 246 497 q 211 275 211 328 q 219 208 211 238 l 540 589 m 368 119 q 510 172 458 119 q 585 322 563 224 q 603 454 603 400 q 594 519 603 481 l 272 140 q 368 119 310 119 m 411 821 l 556 1004 l 729 1004 l 731 1000 l 551 821 l 411 821 z "},"õ":{"ha":822,"x_min":32,"x_max":758,"o":"m 32 0 m 351 -17 q 186 21 258 -17 q 74 126 114 58 q 32 282 33 193 q 42 396 32 343 q 167 658 69 568 q 438 747 265 747 q 604 710 532 747 q 717 606 676 674 q 758 450 757 538 q 750 335 758 393 q 351 -17 692 -17 m 363 121 q 517 179 463 121 q 589 364 572 238 q 596 453 596 404 q 550 569 594 528 q 425 611 506 611 q 272 552 326 611 q 201 367 218 493 q 196 278 196 324 q 240 163 197 204 q 363 121 283 121 m 226 843 q 276 958 238 913 q 378 1004 315 1004 q 476 979 418 1004 q 567 956 532 956 q 621 1004 606 956 l 715 1004 q 664 888 703 933 q 561 843 625 843 q 514 849 536 843 q 464 868 492 856 q 416 885 436 879 q 374 892 396 892 q 319 843 335 892 l 226 843 z "},"œ":{"ha":1311,"x_min":26,"x_max":1260,"o":"m 360 -17 q 110 52 193 -17 q 26 263 26 121 q 65 500 26 390 q 193 678 104 610 q 421 747 282 747 q 696 633 618 747 q 963 747 799 747 q 1260 482 1260 747 q 1249 375 1260 426 l 1240 325 l 742 325 q 738 265 738 303 q 774 152 738 189 q 890 115 811 115 q 1006 150 961 115 q 1064 256 1051 185 l 1228 256 q 1117 52 1207 121 q 896 -17 1028 -17 q 726 10 794 -17 q 618 96 657 38 q 360 -17 521 -17 m 1089 443 q 1093 492 1093 468 q 1060 585 1093 556 q 967 615 1026 615 q 765 443 813 615 l 1089 443 m 351 119 q 571 347 532 119 q 582 454 582 410 q 544 572 582 533 q 428 611 507 611 q 283 551 333 611 q 210 379 232 492 q 200 275 200 326 q 237 158 200 196 q 351 119 274 119 z "},"p":{"ha":822,"x_min":-28,"x_max":765,"o":"m 143 731 l 278 731 l 278 633 l 288 633 q 386 717 329 688 q 507 747 443 747 q 699 676 632 747 q 765 458 765 606 q 725 231 765 340 q 607 52 685 121 q 421 -17 529 -17 q 290 9 343 -17 q 204 85 238 35 l 196 85 l 139 -240 l -28 -240 l 143 731 m 375 122 q 540 223 489 122 q 592 453 592 324 q 559 567 592 531 q 457 604 526 604 q 333 556 382 604 q 260 431 283 507 q 238 274 238 356 q 375 122 238 122 z "},"þ":{"ha":822,"x_min":-28,"x_max":765,"o":"m 193 1017 l 360 1017 l 294 646 l 304 646 q 397 720 343 693 q 511 747 451 747 q 699 676 633 747 q 765 458 765 606 q 725 231 765 340 q 607 52 685 121 q 421 -17 529 -17 q 290 9 343 -17 q 204 85 238 35 l 196 85 l 139 -240 l -28 -240 l 193 1017 m 375 122 q 540 223 489 122 q 592 453 592 324 q 559 567 592 531 q 457 604 526 604 q 333 556 382 604 q 260 431 283 507 q 238 274 238 356 q 375 122 238 122 z "},"q":{"ha":822,"x_min":26,"x_max":775,"o":"m 494 85 l 486 85 q 271 -17 407 -17 q 92 53 157 -17 q 26 263 26 124 q 65 496 26 385 q 184 677 104 607 q 379 747 264 747 q 514 719 457 747 q 597 633 571 690 l 607 633 l 638 731 l 775 731 l 604 -240 l 438 -240 l 494 85 m 333 126 q 458 178 408 126 q 530 304 507 229 q 553 451 553 379 q 418 608 553 608 q 291 557 340 608 q 220 429 242 506 q 199 272 199 353 q 231 162 199 197 q 333 126 264 126 z "},"r":{"ha":514,"x_min":22,"x_max":547,"o":"m 151 731 l 286 731 l 283 615 l 293 615 q 368 712 326 676 q 475 747 410 747 q 525 742 503 747 q 547 735 547 736 l 521 578 l 468 578 q 254 375 290 578 l 189 0 l 22 0 l 151 731 z "},"ŕ":{"ha":514,"x_min":22,"x_max":585,"o":"m 22 0 m 151 731 l 286 731 l 283 615 l 293 615 q 368 712 326 676 q 475 747 410 747 q 525 742 503 747 q 547 735 547 736 l 521 578 l 468 578 q 254 375 290 578 l 189 0 l 22 0 l 151 731 m 265 821 l 410 1004 l 583 1004 l 585 1000 l 406 821 l 265 821 z "},"ř":{"ha":514,"x_min":22,"x_max":590,"o":"m 22 0 m 151 731 l 286 731 l 283 615 l 293 615 q 368 712 326 676 q 475 747 410 747 q 525 742 503 747 q 547 735 547 736 l 521 578 l 468 578 q 254 375 290 578 l 189 0 l 22 0 l 151 731 m 261 817 l 147 1004 l 285 1004 l 347 904 l 438 1004 l 590 1004 l 411 817 l 261 817 z "},"ŗ":{"ha":514,"x_min":-33,"x_max":547,"o":"m 0 0 m 151 731 l 286 731 l 283 615 l 293 615 q 368 712 326 676 q 475 747 410 747 q 525 742 503 747 q 547 735 547 736 l 521 578 l 468 578 q 254 375 290 578 l 189 0 l 22 0 l 151 731 m -33 -319 l 51 -197 l -12 -197 l 11 -64 l 179 -64 l 158 -183 l 56 -319 l -33 -319 z "},"ȑ":{"ha":514,"x_min":22,"x_max":547,"o":"m 22 0 m 151 731 l 286 731 l 283 615 l 293 615 q 368 712 326 676 q 475 747 410 747 q 525 742 503 747 q 547 735 547 736 l 521 578 l 468 578 q 254 375 290 578 l 189 0 l 22 0 l 151 731 m 183 821 l 76 1000 l 79 1004 l 246 1004 l 315 821 l 183 821 m 408 821 l 301 1000 l 304 1004 l 472 1004 l 540 821 l 408 821 z "},"ṛ":{"ha":514,"x_min":-19,"x_max":547,"o":"m 0 0 m 151 731 l 286 731 l 283 615 l 293 615 q 368 712 326 676 q 475 747 410 747 q 525 742 503 747 q 547 735 547 736 l 521 578 l 468 578 q 254 375 290 578 l 189 0 l 22 0 l 151 731 m -19 -240 l 10 -76 l 174 -76 l 144 -240 l -19 -240 z "},"ȓ":{"ha":514,"x_min":22,"x_max":556,"o":"m 22 0 m 151 731 l 286 731 l 283 615 l 293 615 q 368 712 326 676 q 475 747 410 747 q 525 742 503 747 q 547 735 547 736 l 521 578 l 468 578 q 254 375 290 578 l 189 0 l 22 0 l 151 731 m 121 824 q 190 952 133 900 q 368 1004 247 1004 q 506 958 457 1004 q 556 849 556 913 q 553 824 556 840 l 443 824 q 422 872 444 850 q 349 893 399 893 q 270 872 299 893 q 232 824 242 851 l 121 824 z "},"s":{"ha":746,"x_min":8,"x_max":693,"o":"m 317 -17 q 88 35 167 -17 q 8 174 8 88 q 13 210 8 193 q 18 231 17 226 l 181 231 q 175 204 175 218 q 215 135 175 157 q 318 114 256 114 q 433 137 385 114 q 482 206 482 160 q 443 265 482 246 q 319 308 404 285 q 197 347 244 328 q 115 404 149 367 q 81 501 81 442 q 172 682 81 617 q 406 747 264 747 q 615 701 536 747 q 693 578 693 656 q 690 542 693 560 q 683 518 686 525 l 521 518 q 524 539 524 526 q 493 595 524 575 q 403 615 463 615 q 292 592 331 615 q 254 535 254 568 q 290 483 254 500 q 406 446 325 467 q 533 408 483 426 q 619 349 583 389 q 656 246 656 310 q 559 47 656 111 q 317 -17 463 -17 z "},"ś":{"ha":746,"x_min":8,"x_max":693,"o":"m 8 0 m 317 -17 q 88 35 167 -17 q 8 174 8 88 q 13 210 8 193 q 18 231 17 226 l 181 231 q 175 204 175 218 q 215 135 175 157 q 318 114 256 114 q 433 137 385 114 q 482 206 482 160 q 443 265 482 246 q 319 308 404 285 q 197 347 244 328 q 115 404 149 367 q 81 501 81 442 q 172 682 81 617 q 406 747 264 747 q 615 701 536 747 q 693 578 693 656 q 690 542 693 560 q 683 518 686 525 l 521 518 q 524 539 524 526 q 493 595 524 575 q 403 615 463 615 q 292 592 331 615 q 254 535 254 568 q 290 483 254 500 q 406 446 325 467 q 533 408 483 426 q 619 349 583 389 q 656 246 656 310 q 559 47 656 111 q 317 -17 463 -17 m 361 821 l 506 1004 l 679 1004 l 681 1000 l 501 821 l 361 821 z "},"ꞌ":{"ha":254,"x_min":60,"x_max":326,"o":"m 60 399 l 165 1004 l 326 1004 l 297 838 l 161 399 l 60 399 z "},"š":{"ha":746,"x_min":8,"x_max":693,"o":"m 8 0 m 317 -17 q 88 35 167 -17 q 8 174 8 88 q 13 210 8 193 q 18 231 17 226 l 181 231 q 175 204 175 218 q 215 135 175 157 q 318 114 256 114 q 433 137 385 114 q 482 206 482 160 q 443 265 482 246 q 319 308 404 285 q 197 347 244 328 q 115 404 149 367 q 81 501 81 442 q 172 682 81 617 q 406 747 264 747 q 615 701 536 747 q 693 578 693 656 q 690 542 693 560 q 683 518 686 525 l 521 518 q 524 539 524 526 q 493 595 524 575 q 403 615 463 615 q 292 592 331 615 q 254 535 254 568 q 290 483 254 500 q 406 446 325 467 q 533 408 483 426 q 619 349 583 389 q 656 246 656 310 q 559 47 656 111 q 317 -17 463 -17 m 357 817 l 243 1004 l 381 1004 l 443 904 l 533 1004 l 686 1004 l 507 817 l 357 817 z "},"ş":{"ha":746,"x_min":8,"x_max":693,"o":"m 521 518 q 524 539 524 526 q 493 595 524 575 q 403 615 463 615 q 292 592 331 615 q 254 535 254 568 q 290 483 254 500 q 406 446 325 467 q 533 408 483 426 q 619 349 583 389 q 656 246 656 310 q 571 56 656 119 q 354 -15 486 -7 l 343 -47 q 428 -72 396 -50 q 461 -135 461 -93 q 401 -226 461 -200 q 264 -253 340 -253 q 121 -242 185 -253 l 133 -174 l 263 -174 q 311 -165 294 -174 q 328 -133 328 -156 q 316 -113 328 -119 q 276 -107 304 -107 l 215 -107 l 247 -14 q 69 49 131 -1 q 8 174 8 99 q 13 210 8 193 q 18 231 17 226 l 181 231 q 175 204 175 218 q 215 135 175 157 q 318 114 256 114 q 433 137 385 114 q 482 206 482 160 q 443 265 482 246 q 319 308 404 285 q 197 347 244 328 q 115 404 149 367 q 81 501 81 442 q 172 682 81 617 q 406 747 264 747 q 615 701 536 747 q 693 578 693 656 q 690 542 693 560 q 683 518 686 525 l 521 518 z "},"ŝ":{"ha":746,"x_min":8,"x_max":693,"o":"m 8 0 m 317 -17 q 88 35 167 -17 q 8 174 8 88 q 13 210 8 193 q 18 231 17 226 l 181 231 q 175 204 175 218 q 215 135 175 157 q 318 114 256 114 q 433 137 385 114 q 482 206 482 160 q 443 265 482 246 q 319 308 404 285 q 197 347 244 328 q 115 404 149 367 q 81 501 81 442 q 172 682 81 617 q 406 747 264 747 q 615 701 536 747 q 693 578 693 656 q 690 542 693 560 q 683 518 686 525 l 521 518 q 524 539 524 526 q 493 595 524 575 q 403 615 463 615 q 292 592 331 615 q 254 535 254 568 q 290 483 254 500 q 406 446 325 467 q 533 408 483 426 q 619 349 583 389 q 656 246 656 310 q 559 47 656 111 q 317 -17 463 -17 m 201 817 l 381 1004 l 531 1004 l 644 817 l 507 817 l 446 917 l 356 817 l 201 817 z "},"ș":{"ha":746,"x_min":8,"x_max":693,"o":"m 8 0 m 317 -17 q 88 35 167 -17 q 8 174 8 88 q 13 210 8 193 q 18 231 17 226 l 181 231 q 175 204 175 218 q 215 135 175 157 q 318 114 256 114 q 433 137 385 114 q 482 206 482 160 q 443 265 482 246 q 319 308 404 285 q 197 347 244 328 q 115 404 149 367 q 81 501 81 442 q 172 682 81 617 q 406 747 264 747 q 615 701 536 747 q 693 578 693 656 q 690 542 693 560 q 683 518 686 525 l 521 518 q 524 539 524 526 q 493 595 524 575 q 403 615 463 615 q 292 592 331 615 q 254 535 254 568 q 290 483 254 500 q 406 446 325 467 q 533 408 483 426 q 619 349 583 389 q 656 246 656 310 q 559 47 656 111 q 317 -17 463 -17 m 169 -319 l 254 -197 l 190 -197 l 214 -64 l 382 -64 l 361 -183 l 258 -319 l 169 -319 z "},"ṣ":{"ha":746,"x_min":8,"x_max":693,"o":"m 8 0 m 317 -17 q 88 35 167 -17 q 8 174 8 88 q 13 210 8 193 q 18 231 17 226 l 181 231 q 175 204 175 218 q 215 135 175 157 q 318 114 256 114 q 433 137 385 114 q 482 206 482 160 q 443 265 482 246 q 319 308 404 285 q 197 347 244 328 q 115 404 149 367 q 81 501 81 442 q 172 682 81 617 q 406 747 264 747 q 615 701 536 747 q 693 578 693 656 q 690 542 693 560 q 683 518 686 525 l 521 518 q 524 539 524 526 q 493 595 524 575 q 403 615 463 615 q 292 592 331 615 q 254 535 254 568 q 290 483 254 500 q 406 446 325 467 q 533 408 483 426 q 619 349 583 389 q 656 246 656 310 q 559 47 656 111 q 317 -17 463 -17 m 183 -240 l 213 -76 l 376 -76 l 347 -240 l 183 -240 z "},"ß":{"ha":849,"x_min":11,"x_max":822,"o":"m 136 713 q 263 947 164 871 q 508 1021 358 1021 q 740 960 657 1021 q 822 792 822 900 q 768 642 822 707 q 622 550 714 578 l 622 544 q 774 319 774 490 q 726 153 774 225 q 595 40 679 81 q 401 0 511 0 l 272 0 l 296 136 l 404 136 q 510 161 464 136 q 581 228 556 186 q 606 318 606 271 q 566 420 606 381 q 460 460 526 460 l 351 460 l 378 604 l 478 604 q 599 650 549 604 q 649 764 649 696 q 613 853 649 821 q 507 886 578 886 q 372 843 426 886 q 304 721 318 800 l 178 0 l 11 0 l 136 713 z "},"ſ":{"ha":386,"x_min":-137,"x_max":511,"o":"m -17 -253 q -82 -247 -47 -253 q -137 -232 -117 -240 l -117 -117 l -46 -117 q 26 -54 15 -117 l 140 594 l 35 594 l 60 731 l 165 731 l 181 825 q 244 962 196 908 q 389 1015 293 1015 q 455 1009 421 1015 q 511 994 489 1003 l 490 879 l 419 879 q 347 817 358 879 l 192 -62 q -17 -253 158 -253 z "},"ə":{"ha":772,"x_min":40,"x_max":732,"o":"m 311 -17 q 111 55 182 -17 q 40 256 40 126 q 50 356 40 306 l 60 406 l 560 406 q 565 468 565 438 q 530 579 565 543 q 419 615 494 615 q 297 581 346 615 q 236 475 247 546 l 72 475 q 204 689 97 619 q 446 747 296 747 q 658 674 583 747 q 732 467 732 600 q 693 246 732 360 q 588 71 654 132 q 311 -17 494 -17 m 333 115 q 536 288 488 115 l 211 288 q 206 233 206 260 q 238 143 206 171 q 333 115 271 115 z "},"t":{"ha":436,"x_min":43,"x_max":447,"o":"m 211 -17 q 89 21 126 -17 q 51 119 51 58 q 68 233 51 146 l 131 594 l 43 594 l 67 731 l 154 731 l 190 935 l 368 935 l 321 731 l 447 731 l 422 594 l 297 594 l 229 206 q 222 163 222 178 q 272 119 222 119 l 339 119 l 319 6 q 266 -10 297 -3 q 211 -17 235 -17 z "},"ŧ":{"ha":436,"x_min":1,"x_max":447,"o":"m 297 594 l 272 451 l 397 451 l 381 357 l 256 357 l 229 206 q 222 163 222 178 q 272 119 222 119 l 339 119 l 319 6 q 266 -10 297 -3 q 211 -17 235 -17 q 89 21 126 -17 q 51 119 51 58 q 68 233 51 146 l 89 357 l 1 357 l 17 451 l 106 451 l 131 594 l 43 594 l 67 731 l 154 731 l 190 935 l 368 935 l 321 731 l 447 731 l 422 594 l 297 594 z "},"ť":{"ha":615,"x_min":43,"x_max":715,"o":"m 493 654 l 586 811 l 521 811 l 549 971 l 715 971 l 690 826 l 579 654 l 493 654 m 211 -17 q 89 21 126 -17 q 51 119 51 58 q 68 233 51 146 l 131 594 l 43 594 l 67 731 l 154 731 l 190 935 l 368 935 l 321 731 l 447 731 l 422 594 l 297 594 l 229 206 q 222 163 222 178 q 272 119 222 119 l 339 119 l 319 6 q 266 -10 297 -3 q 211 -17 235 -17 z "},"ţ":{"ha":436,"x_min":-33,"x_max":447,"o":"m 229 206 q 222 163 222 178 q 272 119 222 119 l 339 119 l 319 6 q 266 -10 297 -3 q 211 -17 235 -17 l 199 -17 l 189 -47 q 274 -72 242 -50 q 307 -135 307 -93 q 247 -226 307 -200 q 110 -253 186 -253 q -33 -242 31 -253 l -21 -174 l 108 -174 q 157 -165 140 -174 q 174 -133 174 -156 q 162 -113 174 -119 q 122 -107 150 -107 l 61 -107 l 101 11 q 51 119 51 46 q 68 233 51 146 l 131 594 l 43 594 l 67 731 l 154 731 l 190 935 l 368 935 l 321 731 l 447 731 l 422 594 l 297 594 l 229 206 z "},"ț":{"ha":436,"x_min":15,"x_max":447,"o":"m 15 0 m 211 -17 q 89 21 126 -17 q 51 119 51 58 q 68 233 51 146 l 131 594 l 43 594 l 67 731 l 154 731 l 190 935 l 368 935 l 321 731 l 447 731 l 422 594 l 297 594 l 229 206 q 222 163 222 178 q 272 119 222 119 l 339 119 l 319 6 q 266 -10 297 -3 q 211 -17 235 -17 m 15 -319 l 100 -197 l 36 -197 l 60 -64 l 228 -64 l 207 -183 l 104 -319 l 15 -319 z "},"ṭ":{"ha":436,"x_min":29,"x_max":447,"o":"m 29 0 m 211 -17 q 89 21 126 -17 q 51 119 51 58 q 68 233 51 146 l 131 594 l 43 594 l 67 731 l 154 731 l 190 935 l 368 935 l 321 731 l 447 731 l 422 594 l 297 594 l 229 206 q 222 163 222 178 q 272 119 222 119 l 339 119 l 319 6 q 266 -10 297 -3 q 211 -17 235 -17 m 29 -240 l 58 -76 l 222 -76 l 193 -240 l 29 -240 z "},"u":{"ha":822,"x_min":49,"x_max":775,"o":"m 261 -17 q 107 28 165 -17 q 49 169 49 74 q 55 237 49 200 q 63 279 61 274 l 143 731 l 310 731 l 232 289 q 224 221 224 239 q 249 149 224 171 q 322 128 275 128 q 462 183 401 128 q 539 338 522 239 l 608 731 l 775 731 l 646 0 l 511 0 l 511 99 l 501 99 q 395 16 460 49 q 261 -17 331 -17 z "},"ú":{"ha":822,"x_min":49,"x_max":775,"o":"m 49 0 m 261 -17 q 107 28 165 -17 q 49 169 49 74 q 55 237 49 200 q 63 279 61 274 l 143 731 l 310 731 l 232 289 q 224 221 224 239 q 249 149 224 171 q 322 128 275 128 q 462 183 401 128 q 539 338 522 239 l 608 731 l 775 731 l 646 0 l 511 0 l 511 99 l 501 99 q 395 16 460 49 q 261 -17 331 -17 m 404 821 l 549 1004 l 722 1004 l 724 1000 l 544 821 l 404 821 z "},"ŭ":{"ha":822,"x_min":49,"x_max":775,"o":"m 49 0 m 261 -17 q 107 28 165 -17 q 49 169 49 74 q 55 237 49 200 q 63 279 61 274 l 143 731 l 310 731 l 232 289 q 224 221 224 239 q 249 149 224 171 q 322 128 275 128 q 462 183 401 128 q 539 338 522 239 l 608 731 l 775 731 l 646 0 l 511 0 l 511 99 l 501 99 q 395 16 460 49 q 261 -17 331 -17 m 475 824 q 321 865 368 824 q 274 971 274 907 q 276 1004 274 993 l 388 1004 q 408 955 388 975 q 478 935 428 935 q 558 956 526 935 q 599 1004 590 978 l 710 1004 q 681 931 701 967 q 628 869 661 896 q 475 824 565 824 z "},"ǔ":{"ha":822,"x_min":49,"x_max":775,"o":"m 49 0 m 261 -17 q 107 28 165 -17 q 49 169 49 74 q 55 237 49 200 q 63 279 61 274 l 143 731 l 310 731 l 232 289 q 224 221 224 239 q 249 149 224 171 q 322 128 275 128 q 462 183 401 128 q 539 338 522 239 l 608 731 l 775 731 l 646 0 l 511 0 l 511 99 l 501 99 q 395 16 460 49 q 261 -17 331 -17 m 400 817 l 286 1004 l 424 1004 l 486 904 l 576 1004 l 729 1004 l 550 817 l 400 817 z "},"û":{"ha":822,"x_min":49,"x_max":775,"o":"m 49 0 m 261 -17 q 107 28 165 -17 q 49 169 49 74 q 55 237 49 200 q 63 279 61 274 l 143 731 l 310 731 l 232 289 q 224 221 224 239 q 249 149 224 171 q 322 128 275 128 q 462 183 401 128 q 539 338 522 239 l 608 731 l 775 731 l 646 0 l 511 0 l 511 99 l 501 99 q 395 16 460 49 q 261 -17 331 -17 m 244 817 l 424 1004 l 574 1004 l 688 817 l 550 817 l 489 917 l 399 817 l 244 817 z "},"ȕ":{"ha":822,"x_min":49,"x_max":775,"o":"m 49 0 m 261 -17 q 107 28 165 -17 q 49 169 49 74 q 55 237 49 200 q 63 279 61 274 l 143 731 l 310 731 l 232 289 q 224 221 224 239 q 249 149 224 171 q 322 128 275 128 q 462 183 401 128 q 539 338 522 239 l 608 731 l 775 731 l 646 0 l 511 0 l 511 99 l 501 99 q 395 16 460 49 q 261 -17 331 -17 m 322 821 l 215 1000 l 218 1004 l 385 1004 l 454 821 l 322 821 m 547 821 l 440 1000 l 443 1004 l 611 1004 l 679 821 l 547 821 z "},"ü":{"ha":822,"x_min":49,"x_max":775,"o":"m 49 0 m 261 -17 q 107 28 165 -17 q 49 169 49 74 q 55 237 49 200 q 63 279 61 274 l 143 731 l 310 731 l 232 289 q 224 221 224 239 q 249 149 224 171 q 322 128 275 128 q 462 183 401 128 q 539 338 522 239 l 608 731 l 775 731 l 646 0 l 511 0 l 511 99 l 501 99 q 395 16 460 49 q 261 -17 331 -17 m 267 851 l 293 1004 l 442 1004 l 415 851 l 267 851 m 546 851 l 574 1004 l 724 1004 l 696 851 l 546 851 z "},"ǘ":{"ha":822,"x_min":49,"x_max":775,"o":"m 49 0 m 261 -17 q 107 28 165 -17 q 49 169 49 74 q 55 237 49 200 q 63 279 61 274 l 143 731 l 310 731 l 232 289 q 224 221 224 239 q 249 149 224 171 q 322 128 275 128 q 462 183 401 128 q 539 338 522 239 l 608 731 l 775 731 l 646 0 l 511 0 l 511 99 l 501 99 q 395 16 460 49 q 261 -17 331 -17 m 267 851 l 293 1004 l 442 1004 l 415 851 l 267 851 m 546 851 l 574 1004 l 724 1004 l 696 851 l 546 851 m 446 1053 l 590 1236 l 764 1236 l 765 1232 l 586 1053 l 446 1053 z "},"ǚ":{"ha":822,"x_min":49,"x_max":775,"o":"m 49 0 m 261 -17 q 107 28 165 -17 q 49 169 49 74 q 55 237 49 200 q 63 279 61 274 l 143 731 l 310 731 l 232 289 q 224 221 224 239 q 249 149 224 171 q 322 128 275 128 q 462 183 401 128 q 539 338 522 239 l 608 731 l 775 731 l 646 0 l 511 0 l 511 99 l 501 99 q 395 16 460 49 q 261 -17 331 -17 m 267 851 l 293 1004 l 442 1004 l 415 851 l 267 851 m 546 851 l 574 1004 l 724 1004 l 696 851 l 546 851 m 442 1049 l 328 1236 l 465 1236 l 528 1136 l 618 1236 l 771 1236 l 592 1049 l 442 1049 z "},"ǜ":{"ha":822,"x_min":49,"x_max":775,"o":"m 49 0 m 261 -17 q 107 28 165 -17 q 49 169 49 74 q 55 237 49 200 q 63 279 61 274 l 143 731 l 310 731 l 232 289 q 224 221 224 239 q 249 149 224 171 q 322 128 275 128 q 462 183 401 128 q 539 338 522 239 l 608 731 l 775 731 l 646 0 l 511 0 l 511 99 l 501 99 q 395 16 460 49 q 261 -17 331 -17 m 267 851 l 293 1004 l 442 1004 l 415 851 l 267 851 m 546 851 l 574 1004 l 724 1004 l 696 851 l 546 851 m 454 1053 l 336 1232 l 338 1236 l 500 1236 l 581 1053 l 454 1053 z "},"ǖ":{"ha":822,"x_min":49,"x_max":775,"o":"m 49 0 m 261 -17 q 107 28 165 -17 q 49 169 49 74 q 55 237 49 200 q 63 279 61 274 l 143 731 l 310 731 l 232 289 q 224 221 224 239 q 249 149 224 171 q 322 128 275 128 q 462 183 401 128 q 539 338 522 239 l 608 731 l 775 731 l 646 0 l 511 0 l 511 99 l 501 99 q 395 16 460 49 q 261 -17 331 -17 m 267 851 l 293 1004 l 442 1004 l 415 851 l 267 851 m 546 851 l 574 1004 l 724 1004 l 696 851 l 546 851 m 313 1089 l 333 1203 l 757 1203 l 736 1089 l 313 1089 z "},"ụ":{"ha":822,"x_min":49,"x_max":775,"o":"m 49 0 m 261 -17 q 107 28 165 -17 q 49 169 49 74 q 55 237 49 200 q 63 279 61 274 l 143 731 l 310 731 l 232 289 q 224 221 224 239 q 249 149 224 171 q 322 128 275 128 q 462 183 401 128 q 539 338 522 239 l 608 731 l 775 731 l 646 0 l 511 0 l 511 99 l 501 99 q 395 16 460 49 q 261 -17 331 -17 m 222 -240 l 251 -76 l 415 -76 l 386 -240 l 222 -240 z "},"ù":{"ha":822,"x_min":49,"x_max":775,"o":"m 49 0 m 261 -17 q 107 28 165 -17 q 49 169 49 74 q 55 237 49 200 q 63 279 61 274 l 143 731 l 310 731 l 232 289 q 224 221 224 239 q 249 149 224 171 q 322 128 275 128 q 462 183 401 128 q 539 338 522 239 l 608 731 l 775 731 l 646 0 l 511 0 l 511 99 l 501 99 q 395 16 460 49 q 261 -17 331 -17 m 413 821 l 294 1000 l 296 1004 l 458 1004 l 539 821 l 413 821 z "},"ủ":{"ha":822,"x_min":49,"x_max":775,"o":"m 49 0 m 261 -17 q 107 28 165 -17 q 49 169 49 74 q 55 237 49 200 q 63 279 61 274 l 143 731 l 310 731 l 232 289 q 224 221 224 239 q 249 149 224 171 q 322 128 275 128 q 462 183 401 128 q 539 338 522 239 l 608 731 l 775 731 l 646 0 l 511 0 l 511 99 l 501 99 q 395 16 460 49 q 261 -17 331 -17 m 446 899 l 465 899 q 501 906 490 899 q 513 931 513 914 q 502 947 513 943 q 469 951 492 951 l 389 951 l 399 1010 q 511 1021 451 1021 q 606 1005 565 1021 q 647 950 647 989 q 613 884 647 907 q 528 857 578 861 l 521 821 l 432 821 l 446 899 z "},"ư":{"ha":822,"x_min":49,"x_max":985,"o":"m 985 1004 l 971 929 q 902 756 953 822 q 763 657 851 689 l 646 0 l 511 0 l 511 99 l 501 99 q 395 16 460 49 q 261 -17 331 -17 q 107 28 165 -17 q 49 169 49 74 q 55 237 49 200 q 63 279 61 274 l 143 731 l 310 731 l 232 289 q 224 221 224 239 q 249 149 224 171 q 322 128 275 128 q 462 183 401 128 q 539 338 522 239 l 608 731 l 710 731 q 840 828 803 756 l 765 828 l 797 1004 l 985 1004 z "},"ứ":{"ha":822,"x_min":49,"x_max":985,"o":"m 49 0 m 985 1004 l 971 929 q 902 756 953 822 q 763 657 851 689 l 646 0 l 511 0 l 511 99 l 501 99 q 395 16 460 49 q 261 -17 331 -17 q 107 28 165 -17 q 49 169 49 74 q 55 237 49 200 q 63 279 61 274 l 143 731 l 310 731 l 232 289 q 224 221 224 239 q 249 149 224 171 q 322 128 275 128 q 462 183 401 128 q 539 338 522 239 l 608 731 l 710 731 q 840 828 803 756 l 765 828 l 797 1004 l 985 1004 m 404 821 l 549 1004 l 722 1004 l 724 1000 l 544 821 l 404 821 z "},"ự":{"ha":822,"x_min":49,"x_max":985,"o":"m 49 0 m 985 1004 l 971 929 q 902 756 953 822 q 763 657 851 689 l 646 0 l 511 0 l 511 99 l 501 99 q 395 16 460 49 q 261 -17 331 -17 q 107 28 165 -17 q 49 169 49 74 q 55 237 49 200 q 63 279 61 274 l 143 731 l 310 731 l 232 289 q 224 221 224 239 q 249 149 224 171 q 322 128 275 128 q 462 183 401 128 q 539 338 522 239 l 608 731 l 710 731 q 840 828 803 756 l 765 828 l 797 1004 l 985 1004 m 222 -240 l 251 -76 l 415 -76 l 386 -240 l 222 -240 z "},"ừ":{"ha":822,"x_min":49,"x_max":985,"o":"m 49 0 m 985 1004 l 971 929 q 902 756 953 822 q 763 657 851 689 l 646 0 l 511 0 l 511 99 l 501 99 q 395 16 460 49 q 261 -17 331 -17 q 107 28 165 -17 q 49 169 49 74 q 55 237 49 200 q 63 279 61 274 l 143 731 l 310 731 l 232 289 q 224 221 224 239 q 249 149 224 171 q 322 128 275 128 q 462 183 401 128 q 539 338 522 239 l 608 731 l 710 731 q 840 828 803 756 l 765 828 l 797 1004 l 985 1004 m 413 821 l 294 1000 l 296 1004 l 458 1004 l 539 821 l 413 821 z "},"ử":{"ha":822,"x_min":49,"x_max":985,"o":"m 49 0 m 985 1004 l 971 929 q 902 756 953 822 q 763 657 851 689 l 646 0 l 511 0 l 511 99 l 501 99 q 395 16 460 49 q 261 -17 331 -17 q 107 28 165 -17 q 49 169 49 74 q 55 237 49 200 q 63 279 61 274 l 143 731 l 310 731 l 232 289 q 224 221 224 239 q 249 149 224 171 q 322 128 275 128 q 462 183 401 128 q 539 338 522 239 l 608 731 l 710 731 q 840 828 803 756 l 765 828 l 797 1004 l 985 1004 m 446 899 l 465 899 q 501 906 490 899 q 513 931 513 914 q 502 947 513 943 q 469 951 492 951 l 389 951 l 399 1010 q 511 1021 451 1021 q 606 1005 565 1021 q 647 950 647 989 q 613 884 647 907 q 528 857 578 861 l 521 821 l 432 821 l 446 899 z "},"ữ":{"ha":822,"x_min":49,"x_max":985,"o":"m 49 0 m 985 1004 l 971 929 q 902 756 953 822 q 763 657 851 689 l 646 0 l 511 0 l 511 99 l 501 99 q 395 16 460 49 q 261 -17 331 -17 q 107 28 165 -17 q 49 169 49 74 q 55 237 49 200 q 63 279 61 274 l 143 731 l 310 731 l 232 289 q 224 221 224 239 q 249 149 224 171 q 322 128 275 128 q 462 183 401 128 q 539 338 522 239 l 608 731 l 710 731 q 840 828 803 756 l 765 828 l 797 1004 l 985 1004 m 250 843 q 300 958 261 913 q 401 1004 339 1004 q 500 979 442 1004 q 590 956 556 956 q 644 1004 629 956 l 739 1004 q 688 888 726 933 q 585 843 649 843 q 538 849 560 843 q 488 868 515 856 q 440 885 460 879 q 397 892 419 892 q 343 843 358 892 l 250 843 z "},"ű":{"ha":822,"x_min":49,"x_max":829,"o":"m 49 0 m 261 -17 q 107 28 165 -17 q 49 169 49 74 q 55 237 49 200 q 63 279 61 274 l 143 731 l 310 731 l 232 289 q 224 221 224 239 q 249 149 224 171 q 322 128 275 128 q 462 183 401 128 q 539 338 522 239 l 608 731 l 775 731 l 646 0 l 511 0 l 511 99 l 501 99 q 395 16 460 49 q 261 -17 331 -17 m 292 821 l 424 1004 l 597 1004 l 599 1000 l 428 821 l 292 821 m 522 821 l 656 1004 l 828 1004 l 829 1000 l 660 821 l 522 821 z "},"ȗ":{"ha":822,"x_min":49,"x_max":775,"o":"m 49 0 m 261 -17 q 107 28 165 -17 q 49 169 49 74 q 55 237 49 200 q 63 279 61 274 l 143 731 l 310 731 l 232 289 q 224 221 224 239 q 249 149 224 171 q 322 128 275 128 q 462 183 401 128 q 539 338 522 239 l 608 731 l 775 731 l 646 0 l 511 0 l 511 99 l 501 99 q 395 16 460 49 q 261 -17 331 -17 m 260 824 q 329 952 272 900 q 507 1004 386 1004 q 645 958 596 1004 q 694 849 694 913 q 692 824 694 840 l 582 824 q 560 872 583 850 q 488 893 538 893 q 409 872 438 893 q 371 824 381 851 l 260 824 z "},"ū":{"ha":822,"x_min":49,"x_max":775,"o":"m 49 0 m 261 -17 q 107 28 165 -17 q 49 169 49 74 q 55 237 49 200 q 63 279 61 274 l 143 731 l 310 731 l 232 289 q 224 221 224 239 q 249 149 224 171 q 322 128 275 128 q 462 183 401 128 q 539 338 522 239 l 608 731 l 775 731 l 646 0 l 511 0 l 511 99 l 501 99 q 395 16 460 49 q 261 -17 331 -17 m 271 857 l 292 971 l 715 971 l 694 857 l 271 857 z "},"ų":{"ha":822,"x_min":49,"x_max":775,"o":"m 507 -253 q 418 -228 454 -253 q 382 -149 382 -203 q 511 1 382 -57 l 511 99 l 501 99 q 395 16 460 49 q 261 -17 331 -17 q 107 28 165 -17 q 49 169 49 74 q 55 237 49 200 q 63 279 61 274 l 143 731 l 310 731 l 232 289 q 224 221 224 251 q 249 149 224 171 q 322 128 275 128 q 462 183 401 128 q 539 338 522 239 l 608 731 l 775 731 l 646 0 q 556 -52 588 -26 q 524 -112 524 -78 q 538 -146 524 -133 q 583 -158 553 -158 l 618 -158 l 606 -233 q 507 -253 550 -253 z "},"ů":{"ha":822,"x_min":49,"x_max":775,"o":"m 49 0 m 261 -17 q 107 28 165 -17 q 49 169 49 74 q 55 237 49 200 q 63 279 61 274 l 143 731 l 310 731 l 232 289 q 224 221 224 239 q 249 149 224 171 q 322 128 275 128 q 462 183 401 128 q 539 338 522 239 l 608 731 l 775 731 l 646 0 l 511 0 l 511 99 l 501 99 q 395 16 460 49 q 261 -17 331 -17 m 471 776 q 382 809 415 776 q 349 892 349 842 q 392 1006 349 960 q 506 1053 436 1053 q 595 1020 563 1053 q 628 936 628 988 q 584 822 628 868 q 471 776 540 776 m 478 850 q 532 872 510 850 q 554 926 554 894 q 539 965 554 950 q 499 979 524 979 q 444 956 465 979 q 424 901 424 933 q 438 865 424 879 q 478 850 453 850 z "},"ũ":{"ha":822,"x_min":49,"x_max":775,"o":"m 49 0 m 261 -17 q 107 28 165 -17 q 49 169 49 74 q 55 237 49 200 q 63 279 61 274 l 143 731 l 310 731 l 232 289 q 224 221 224 239 q 249 149 224 171 q 322 128 275 128 q 462 183 401 128 q 539 338 522 239 l 608 731 l 775 731 l 646 0 l 511 0 l 511 99 l 501 99 q 395 16 460 49 q 261 -17 331 -17 m 250 843 q 300 958 261 913 q 401 1004 339 1004 q 500 979 442 1004 q 590 956 556 956 q 644 1004 629 956 l 739 1004 q 688 888 726 933 q 585 843 649 843 q 538 849 560 843 q 488 868 515 856 q 440 885 460 879 q 397 892 419 892 q 343 843 358 892 l 250 843 z "},"v":{"ha":746,"x_min":67,"x_max":782,"o":"m 67 731 l 235 731 l 294 399 q 313 280 303 358 q 325 176 322 201 l 332 176 q 374 277 342 201 q 431 399 407 353 l 607 731 l 782 731 l 382 0 l 208 0 l 67 731 z "},"w":{"ha":1054,"x_min":60,"x_max":1101,"o":"m 60 731 l 225 731 l 256 392 q 263 279 260 340 q 267 194 265 218 l 272 194 q 303 278 281 218 q 346 390 325 338 l 488 731 l 668 731 l 694 389 q 701 276 699 335 q 704 194 703 217 l 711 194 q 743 281 718 215 q 786 389 768 347 l 935 731 l 1101 731 l 754 0 l 579 0 l 554 379 q 551 468 551 417 q 550 536 550 519 l 543 536 q 519 469 538 521 q 485 381 501 418 l 325 0 l 149 0 l 60 731 z "},"ẃ":{"ha":1054,"x_min":60,"x_max":1101,"o":"m 60 0 m 60 731 l 225 731 l 256 392 q 263 279 260 340 q 267 194 265 218 l 272 194 q 303 278 281 218 q 346 390 325 338 l 488 731 l 668 731 l 694 389 q 701 276 699 335 q 704 194 703 217 l 711 194 q 743 281 718 215 q 786 389 768 347 l 935 731 l 1101 731 l 754 0 l 579 0 l 554 379 q 551 468 551 417 q 550 536 550 519 l 543 536 q 519 469 538 521 q 485 381 501 418 l 325 0 l 149 0 l 60 731 m 524 821 l 668 1004 l 842 1004 l 843 1000 l 664 821 l 524 821 z "},"ŵ":{"ha":1054,"x_min":60,"x_max":1101,"o":"m 60 0 m 60 731 l 225 731 l 256 392 q 263 279 260 340 q 267 194 265 218 l 272 194 q 303 278 281 218 q 346 390 325 338 l 488 731 l 668 731 l 694 389 q 701 276 699 335 q 704 194 703 217 l 711 194 q 743 281 718 215 q 786 389 768 347 l 935 731 l 1101 731 l 754 0 l 579 0 l 554 379 q 551 468 551 417 q 550 536 550 519 l 543 536 q 519 469 538 521 q 485 381 501 418 l 325 0 l 149 0 l 60 731 m 364 817 l 543 1004 l 693 1004 l 807 817 l 669 817 l 608 917 l 518 817 l 364 817 z "},"ẅ":{"ha":1054,"x_min":60,"x_max":1101,"o":"m 60 0 m 60 731 l 225 731 l 256 392 q 263 279 260 340 q 267 194 265 218 l 272 194 q 303 278 281 218 q 346 390 325 338 l 488 731 l 668 731 l 694 389 q 701 276 699 335 q 704 194 703 217 l 711 194 q 743 281 718 215 q 786 389 768 347 l 935 731 l 1101 731 l 754 0 l 579 0 l 554 379 q 551 468 551 417 q 550 536 550 519 l 543 536 q 519 469 538 521 q 485 381 501 418 l 325 0 l 149 0 l 60 731 m 386 851 l 413 1004 l 561 1004 l 535 851 l 386 851 m 665 851 l 693 1004 l 843 1004 l 815 851 l 665 851 z "},"ẁ":{"ha":1054,"x_min":60,"x_max":1101,"o":"m 60 0 m 60 731 l 225 731 l 256 392 q 263 279 260 340 q 267 194 265 218 l 272 194 q 303 278 281 218 q 346 390 325 338 l 488 731 l 668 731 l 694 389 q 701 276 699 335 q 704 194 703 217 l 711 194 q 743 281 718 215 q 786 389 768 347 l 935 731 l 1101 731 l 754 0 l 579 0 l 554 379 q 551 468 551 417 q 550 536 550 519 l 543 536 q 519 469 538 521 q 485 381 501 418 l 325 0 l 149 0 l 60 731 m 532 821 l 414 1000 l 415 1004 l 578 1004 l 658 821 l 532 821 z "},"x":{"ha":746,"x_min":-71,"x_max":769,"o":"m -71 0 l 264 379 l 75 731 l 260 731 l 375 500 l 383 500 l 576 731 l 769 731 l 453 374 l 654 0 l 468 0 l 343 250 l 335 250 l 122 0 l -71 0 z "},"y":{"ha":746,"x_min":-44,"x_max":782,"o":"m 76 -253 q -12 -245 17 -253 q -44 -237 -42 -237 l -24 -122 l 51 -122 q 147 -94 106 -122 q 222 0 189 -65 l 67 731 l 232 731 l 307 379 q 326 269 315 339 q 339 176 336 199 l 346 176 q 383 265 354 197 q 435 379 411 333 l 608 731 l 782 731 l 422 38 q 269 -176 350 -100 q 76 -253 189 -253 z "},"ý":{"ha":746,"x_min":-44,"x_max":782,"o":"m 0 0 m 76 -253 q -12 -245 17 -253 q -44 -237 -42 -237 l -24 -122 l 51 -122 q 147 -94 106 -122 q 222 0 189 -65 l 67 731 l 232 731 l 307 379 q 326 269 315 339 q 339 176 336 199 l 346 176 q 383 265 354 197 q 435 379 411 333 l 608 731 l 782 731 l 422 38 q 269 -176 350 -100 q 76 -253 189 -253 m 365 821 l 510 1004 l 683 1004 l 685 1000 l 506 821 l 365 821 z "},"ŷ":{"ha":746,"x_min":-44,"x_max":782,"o":"m 0 0 m 76 -253 q -12 -245 17 -253 q -44 -237 -42 -237 l -24 -122 l 51 -122 q 147 -94 106 -122 q 222 0 189 -65 l 67 731 l 232 731 l 307 379 q 326 269 315 339 q 339 176 336 199 l 346 176 q 383 265 354 197 q 435 379 411 333 l 608 731 l 782 731 l 422 38 q 269 -176 350 -100 q 76 -253 189 -253 m 206 817 l 385 1004 l 535 1004 l 649 817 l 511 817 l 450 917 l 360 817 l 206 817 z "},"ÿ":{"ha":746,"x_min":-44,"x_max":782,"o":"m 0 0 m 76 -253 q -12 -245 17 -253 q -44 -237 -42 -237 l -24 -122 l 51 -122 q 147 -94 106 -122 q 222 0 189 -65 l 67 731 l 232 731 l 307 379 q 326 269 315 339 q 339 176 336 199 l 346 176 q 383 265 354 197 q 435 379 411 333 l 608 731 l 782 731 l 422 38 q 269 -176 350 -100 q 76 -253 189 -253 m 228 851 l 254 1004 l 403 1004 l 376 851 l 228 851 m 507 851 l 535 1004 l 685 1004 l 657 851 l 507 851 z "}}}
